{
	"asset":{
		"generator":"Khronos glTF Blender I/O v3.6.27",
		"version":"2.0"
	},
	"scene":0,
	"scenes":[
		{
			"name":"Scene",
			"nodes":[
				0
			]
		}
	],
	"nodes":[
		{
			"mesh":0,
			"name":"Curve",
			"scale":[
				11.236178398132324,
				11.236178398132324,
				11.236178398132324
			],
			"translation":[
				0.020269280299544334,
				-0.0017132513457909226,
				-0.08193020522594452
			]
		}
	],
	"animations":[
		{
			"channels":[
				{
					"sampler":0,
					"target":{
						"node":0,
						"path":"weights"
					}
				}
			],
			"name":"KeyAction_Curve",
			"samplers":[
				{
					"input":18,
					"interpolation":"LINEAR",
					"output":19
				}
			]
		}
	],
	"materials":[
		{
			"doubleSided":true,
			"name":"material1",
			"pbrMetallicRoughness":{
				"metallicFactor":0,
				"roughnessFactor":0.5
			}
		},
		{
			"doubleSided":true,
			"name":"material2",
			"pbrMetallicRoughness":{
				"baseColorFactor":[
					0.5542991161346436,
					0.0115504814311862,
					0,
					1
				],
				"metallicFactor":0,
				"roughnessFactor":0.5
			}
		},
		{
			"doubleSided":true,
			"name":"material3",
			"pbrMetallicRoughness":{
				"metallicFactor":0,
				"roughnessFactor":0.5
			}
		}
	],
	"meshes":[
		{
			"extras":{
				"targetNames":[
					"Key 1"
				]
			},
			"name":"Curve",
			"primitives":[
				{
					"attributes":{
						"POSITION":0,
						"NORMAL":1,
						"TEXCOORD_0":2
					},
					"indices":3,
					"material":0,
					"targets":[
						{
							"POSITION":4,
							"NORMAL":5
						}
					]
				},
				{
					"attributes":{
						"POSITION":6,
						"NORMAL":7,
						"TEXCOORD_0":8
					},
					"indices":9,
					"material":1,
					"targets":[
						{
							"POSITION":10,
							"NORMAL":11
						}
					]
				},
				{
					"attributes":{
						"POSITION":12,
						"NORMAL":13,
						"TEXCOORD_0":14
					},
					"indices":15,
					"material":2,
					"targets":[
						{
							"POSITION":16,
							"NORMAL":17
						}
					]
				}
			],
			"weights":[
				0
			]
		}
	],
	"accessors":[
		{
			"bufferView":0,
			"componentType":5126,
			"count":1583,
			"max":[
				0.013704411685466766,
				0.002091393806040287,
				0.04454094544053078
			],
			"min":[
				-0.016436846926808357,
				-0.0020914021879434586,
				-0.03849839046597481
			],
			"type":"VEC3"
		},
		{
			"bufferView":1,
			"componentType":5126,
			"count":1583,
			"type":"VEC3"
		},
		{
			"bufferView":2,
			"componentType":5126,
			"count":1583,
			"type":"VEC2"
		},
		{
			"bufferView":3,
			"componentType":5123,
			"count":3000,
			"type":"SCALAR"
		},
		{
			"bufferView":4,
			"componentType":5126,
			"count":1583,
			"max":[
				0.0016613639891147614,
				0.00014705711510032415,
				0.005020197480916977
			],
			"min":[
				-0.0018715839833021164,
				0.0001308131031692028,
				-0.004859652370214462
			],
			"type":"VEC3"
		},
		{
			"bufferView":5,
			"componentType":5126,
			"count":1583,
			"type":"VEC3"
		},
		{
			"bufferView":6,
			"componentType":5126,
			"count":32,
			"max":[
				0.06215020269155502,
				0.00014751376875210553,
				0.0709497481584549
			],
			"min":[
				-0.0656406357884407,
				0.00014751376875210553,
				-0.05684109404683113
			],
			"type":"VEC3"
		},
		{
			"bufferView":7,
			"componentType":5126,
			"count":32,
			"type":"VEC3"
		},
		{
			"bufferView":8,
			"componentType":5126,
			"count":32,
			"type":"VEC2"
		},
		{
			"bufferView":9,
			"componentType":5123,
			"count":90,
			"type":"SCALAR"
		},
		{
			"bufferView":10,
			"componentType":5126,
			"count":32,
			"max":[
				0.015294693410396576,
				-6.042615859769285e-05,
				0.015845999121665955
			],
			"min":[
				-0.015513375401496887,
				-6.042615859769285e-05,
				-0.014962073415517807
			],
			"type":"VEC3"
		},
		{
			"bufferView":11,
			"componentType":5126,
			"count":32,
			"type":"VEC3"
		},
		{
			"bufferView":12,
			"componentType":5126,
			"count":4868,
			"max":[
				0.10688765347003937,
				0.004332922864705324,
				0.11598323285579681
			],
			"min":[
				-0.11049551516771317,
				-0.004027970600873232,
				-0.10139993578195572
			],
			"type":"VEC3"
		},
		{
			"bufferView":13,
			"componentType":5126,
			"count":4868,
			"type":"VEC3"
		},
		{
			"bufferView":14,
			"componentType":5126,
			"count":4868,
			"type":"VEC2"
		},
		{
			"bufferView":15,
			"componentType":5123,
			"count":6912,
			"type":"SCALAR"
		},
		{
			"bufferView":16,
			"componentType":5126,
			"count":4868,
			"max":[
				0.016105473041534424,
				0.0008550137281417847,
				0.016656778752803802
			],
			"min":[
				-0.016324155032634735,
				-0.0009758665692061186,
				-0.01577286794781685
			],
			"type":"VEC3"
		},
		{
			"bufferView":17,
			"componentType":5126,
			"count":4868,
			"type":"VEC3"
		},
		{
			"bufferView":18,
			"componentType":5126,
			"count":30,
			"max":[
				1.25
			],
			"min":[
				0.041666666666666664
			],
			"type":"SCALAR"
		},
		{
			"bufferView":19,
			"componentType":5126,
			"count":30,
			"type":"SCALAR"
		}
	],
	"bufferViews":[
		{
			"buffer":0,
			"byteLength":18996,
			"byteOffset":0,
			"target":34962
		},
		{
			"buffer":0,
			"byteLength":18996,
			"byteOffset":18996,
			"target":34962
		},
		{
			"buffer":0,
			"byteLength":12664,
			"byteOffset":37992,
			"target":34962
		},
		{
			"buffer":0,
			"byteLength":6000,
			"byteOffset":50656,
			"target":34963
		},
		{
			"buffer":0,
			"byteLength":18996,
			"byteOffset":56656,
			"target":34962
		},
		{
			"buffer":0,
			"byteLength":18996,
			"byteOffset":75652,
			"target":34962
		},
		{
			"buffer":0,
			"byteLength":384,
			"byteOffset":94648,
			"target":34962
		},
		{
			"buffer":0,
			"byteLength":384,
			"byteOffset":95032,
			"target":34962
		},
		{
			"buffer":0,
			"byteLength":256,
			"byteOffset":95416,
			"target":34962
		},
		{
			"buffer":0,
			"byteLength":180,
			"byteOffset":95672,
			"target":34963
		},
		{
			"buffer":0,
			"byteLength":384,
			"byteOffset":95852,
			"target":34962
		},
		{
			"buffer":0,
			"byteLength":384,
			"byteOffset":96236,
			"target":34962
		},
		{
			"buffer":0,
			"byteLength":58416,
			"byteOffset":96620,
			"target":34962
		},
		{
			"buffer":0,
			"byteLength":58416,
			"byteOffset":155036,
			"target":34962
		},
		{
			"buffer":0,
			"byteLength":38944,
			"byteOffset":213452,
			"target":34962
		},
		{
			"buffer":0,
			"byteLength":13824,
			"byteOffset":252396,
			"target":34963
		},
		{
			"buffer":0,
			"byteLength":58416,
			"byteOffset":266220,
			"target":34962
		},
		{
			"buffer":0,
			"byteLength":58416,
			"byteOffset":324636,
			"target":34962
		},
		{
			"buffer":0,
			"byteLength":120,
			"byteOffset":383052
		},
		{
			"buffer":0,
			"byteLength":120,
			"byteOffset":383172
		}
	],
	"buffers":[
		{
			"byteLength":383292,
			"uri":"data:application/octet-stream;base64,"
		}
	]
}
