{
	"asset":{
		"generator":"Khronos glTF Blender I/O v4.0.44",
		"version":"2.0"
	},
	"extensionsUsed":[
		"KHR_materials_unlit"
	],
	"scene":0,
	"scenes":[
		{
			"name":"Scene",
			"nodes":[
				0
			]
		}
	],
	"nodes":[
		{
			"mesh":0,
			"name":"mesh"
		}
	],
	"materials":[
		{
			"doubleSided":true,
			"extensions":{
				"KHR_materials_unlit":{}
			},
			"name":"material",
			"pbrMetallicRoughness":{
				"baseColorTexture":{
					"index":0
				},
				"metallicFactor":0,
				"roughnessFactor":0.9
			}
		}
	],
	"meshes":[
		{
			"name":"mesh",
			"primitives":[
				{
					"attributes":{
						"POSITION":0,
						"NORMAL":1,
						"TEXCOORD_0":2
					},
					"indices":3,
					"material":0
				}
			]
		}
	],
	"textures":[
		{
			"sampler":0,
			"source":0
		}
	],
	"images":[
		{
			"mimeType":"image/jpeg",
			"name":"texture",
			"uri":"texture.jpg"
		}
	],
	"accessors":[
		{
			"bufferView":0,
			"componentType":5126,
			"count":115720,
			"max":[
				14.82249641418457,
				2.021087169647217,
				7.561563491821289
			],
			"min":[
				-12.856302261352539,
				-0.21406568586826324,
				-9.153155326843262
			],
			"type":"VEC3"
		},
		{
			"bufferView":1,
			"componentType":5126,
			"count":115720,
			"type":"VEC3"
		},
		{
			"bufferView":2,
			"componentType":5126,
			"count":115720,
			"type":"VEC2"
		},
		{
			"bufferView":3,
			"componentType":5125,
			"count":299997,
			"type":"SCALAR"
		}
	],
	"bufferViews":[
		{
			"buffer":0,
			"byteLength":1388640,
			"byteOffset":0,
			"target":34962
		},
		{
			"buffer":0,
			"byteLength":1388640,
			"byteOffset":1388640,
			"target":34962
		},
		{
			"buffer":0,
			"byteLength":925760,
			"byteOffset":2777280,
			"target":34962
		},
		{
			"buffer":0,
			"byteLength":1199988,
			"byteOffset":3703040,
			"target":34963
		}
	],
	"samplers":[
		{
			"magFilter":9729,
			"minFilter":9987,
			"wrapS":33071,
			"wrapT":33071
		}
	],
	"buffers":[
		{
			"byteLength":4903028,
			"uri":"scene.bin"
		}
	]
}
