<svg width="2000" height="70" viewBox="0 0 2000 70" fill="none" xmlns="http://www.w3.org/2000/svg">
    <rect width="2000" height="70" fill="#FFDD00" />
    <circle cx="301" cy="35" r="20" fill="white" />
    <circle cx="999.5" cy="35.5" r="14.5" fill="white" />
    <circle cx="1943" cy="34" r="14" fill="white" />
    <path
        d="M190 0H211C191.591 21.6799 163.389 35.3232 132 35.3232C100.611 35.3232 72.409 21.6799 53 0L69.5 7.62939e-06L123 0H190Z"
        fill="white" />
    <path
        d="M518 0H543.122C530.183 21.0005 506.977 35 480.5 35C454.023 35 430.817 21.0005 417.878 0H425.5H478.5H518Z"
        fill="white" />
    <path
        d="M717 70H698.5H671H661.5C670.888 60.7472 683.777 55.0372 698 55.0372C712.223 55.0372 725.112 60.7472 734.5 70H717Z"
        fill="white" />
    <path
        d="M915 9.5C915 27.4493 900.449 42 882.5 42C864.551 42 850 27.4493 850 9.5C850 6.19489 850.493 3.00502 851.41 0H883.5H913.59C914.507 3.00502 915 6.19489 915 9.5Z"
        fill="white" />
    <path
        d="M1198.97 6.56424C1198.97 14.5724 1192.47 21.0642 1184.47 21.0642C1176.46 21.0642 1169.97 14.5724 1169.97 6.56424C1169.97 4.20159 1170.53 1.97091 1171.53 0H1185H1197.4C1198.4 1.97091 1198.97 4.20159 1198.97 6.56424Z"
        fill="white" />
    <path
        d="M1391 20C1391 36.5685 1377.57 50 1361 50C1344.43 50 1331 36.5685 1331 20C1331 12.3165 1333.89 5.30756 1338.64 0H1361.5H1383.36C1388.11 5.30756 1391 12.3165 1391 20Z"
        fill="white" />
    <path
        d="M1728.5 0H1744.13C1732.48 17.4821 1712.58 29 1690 29C1667.42 29 1647.52 17.4821 1635.87 0H1651.5H1688.5H1728.5Z"
        fill="white" />
    <path
        d="M1625 66.5C1625 67.6777 1624.96 68.8449 1624.87 70H1581.5H1534.13C1534.04 68.8449 1534 67.6777 1534 66.5C1534 41.371 1554.37 21 1579.5 21C1604.63 21 1625 41.371 1625 66.5Z"
        fill="white" />
</svg>