<svg id="_Слой_2" data-name="Слой 2" xmlns="http://www.w3.org/2000/svg" viewBox="0 0 998.67 346">
    <defs>
        <style>
            .cls-1 {
            fill: #e30613;
            }

            .cls-2 {
            fill: #1e1e1c;
            }

            .cls-3 {
            fill: #fd0;
            }
        </style>
    </defs>
    <g id="_Слой_1-2" data-name="Слой 1">
        <g id="_Логотип_Аврора_жовтий_бабл" data-name="Логотип Аврора_жовтий бабл">
            <path class="cls-3"
                d="M300.04,261.36V123.56h37.47C316.5,52.14,250.47,0,172.25,0,77.12,0,0,77.12,0,172.25s77.12,172.25,172.25,172.25c62.52,0,117.26-33.31,147.44-83.15h-19.65Z" />
            <g>
                <path class="cls-1"
                    d="M300.04,123.56h70.67c17.32,0,29.53,4.33,37.6,12.4,5.51,5.51,8.86,12.79,8.86,22.64,0,15.95-9.05,25.39-21.26,30.71,16.73,5.51,27.36,14.96,27.36,34.06,0,23.62-19.29,37.99-52.17,37.99h-71.07V123.56Zm61.22,54.92c11.61,0,18.11-3.94,18.11-12.4,0-7.48-5.91-11.81-17.32-11.81h-24.8v24.21h24.02Zm5.51,52.17c11.61,0,18.31-4.53,18.31-12.99,0-7.48-5.91-12.4-18.7-12.4h-29.14v25.39h29.53Z" />
                <path class="cls-1"
                    d="M440.79,123.56h59.06c34.84,0,57.29,17.91,57.29,48.82,0,32.48-25,49.61-59.25,49.61h-18.9v39.37h-38.19V123.56Zm56.3,68.51c13.58,0,21.85-7.09,21.85-18.31,0-11.81-8.27-18.11-22.05-18.11h-17.91v36.42h18.11Z" />
                <path class="cls-1"
                    d="M568.54,192.46c0-39.57,31.89-71.66,74.41-71.66s74.02,31.69,74.02,71.66-31.89,71.66-74.41,71.66-74.02-31.69-74.02-71.66Zm109.45,0c0-19.88-14.37-37.21-35.43-37.21s-34.84,16.93-34.84,37.21,14.37,37.21,35.24,37.21,35.04-16.93,35.04-37.21Z" />
                <path class="cls-1"
                    d="M736.85,123.56h59.06c34.84,0,57.29,17.91,57.29,48.82,0,32.48-25,49.61-59.25,49.61h-18.9v39.37h-38.19V123.56Zm56.3,68.51c13.58,0,21.85-7.09,21.85-18.31,0-11.81-8.27-18.11-22.05-18.11h-17.91v36.42h18.11Z" />
                <path class="cls-1"
                    d="M903.19,122.57h36.81l58.66,138.79h-40.95l-10.04-24.61h-53.15l-9.84,24.61h-40.16l58.66-138.79Zm33.47,84.45l-15.36-39.17-15.55,39.17h30.91Z" />
                <g>
                    <path class="cls-2"
                        d="M333.2,337.79c0-.88,.06-1.88,.18-3.01,.12-1.13,.24-2.04,.37-2.72l.2-1.02,5.25-31.39c.49-2.73,1.65-4.9,3.48-6.53,1.83-1.63,4.28-2.45,7.35-2.45,2.7,0,4.95,.76,6.75,2.28,1.8,1.52,3.28,3.75,4.45,6.7l6.72,17.48h.77l6.72-17.48c2.29-5.99,6.02-8.98,11.21-8.98,3.07,0,5.53,.82,7.39,2.45,1.86,1.63,3.01,3.81,3.45,6.53l5.26,31.39c.49,2.51,.73,4.76,.73,6.75,0,2.26-.71,4.07-2.12,5.42-1.41,1.35-3.32,2.03-5.73,2.03s-4.32-.67-5.8-2.01c-1.49-1.34-2.41-3.15-2.77-5.44l-3.39-19.46h-.73l-5.62,14.2c-.97,2.51-2.16,4.38-3.58,5.62-1.41,1.24-3.2,1.86-5.36,1.86s-4-.62-5.44-1.86c-1.44-1.24-2.61-3.11-3.54-5.62l-5.62-14.2h-.73s-3.37,19.46-3.37,19.46c-.36,2.29-1.29,4.1-2.79,5.44-1.5,1.34-3.44,2.01-5.82,2.01s-4.32-.67-5.73-2.03c-1.41-1.35-2.12-3.16-2.12-5.42Z" />
                    <path class="cls-2"
                        d="M404.96,298.91c0-2.09,.77-3.86,2.32-5.31,1.54-1.45,3.51-2.17,5.89-2.17,1.95,0,3.62,.64,5.04,1.92,1.41,1.28,2.73,3.13,3.94,5.57l8.21,15.7h.77l6.35-15.7c2.24-4.99,5.23-7.48,8.98-7.48,2.38,0,4.35,.72,5.89,2.17,1.55,1.45,2.32,3.22,2.32,5.31,0,1.1-.16,2.2-.47,3.32-.32,1.12-.62,1.97-.91,2.55l-.48,.84-11.97,24.67c-1,2.14-2.19,4.12-3.58,5.93-1.39,1.81-2.98,3.47-4.76,4.96-1.79,1.5-3.83,2.67-6.11,3.52-2.29,.85-4.7,1.28-7.23,1.28-3.77,0-6.71-.86-8.82-2.57-2.1-1.72-3.16-3.85-3.16-6.41,0-1.85,.66-3.43,1.97-4.75s2.91-1.97,4.78-1.97c1.12,0,2.18,.25,3.18,.75,1,.5,1.68,.75,2.04,.75,.44,0,.85-.12,1.22-.37,.38-.24,.64-.49,.79-.73l.26-.4-14.6-24.67c-.15-.22-.32-.53-.53-.93-.21-.4-.48-1.19-.82-2.37-.34-1.18-.51-2.32-.51-3.41Z" />
                    <path class="cls-2"
                        d="M450.92,338.52c0-1,.19-1.86,.58-2.59,.39-.73,.89-1.34,1.5-1.84,.61-.5,1.28-1,2.03-1.52,.74-.51,1.48-1.14,2.23-1.9,.74-.75,1.42-1.65,2.03-2.68,.61-1.03,1.11-2.44,1.5-4.22,.39-1.77,.58-3.83,.58-6.17v-17.96c0-2.26,.73-4.08,2.19-5.44,1.46-1.36,3.48-2.05,6.06-2.05h26.54c2.58,0,4.59,.68,6.04,2.03,1.45,1.35,2.17,3.17,2.17,5.46v38.14c0,2.26-.72,4.07-2.17,5.42-1.45,1.35-3.46,2.03-6.04,2.03s-4.6-.67-6.06-2.03c-1.46-1.35-2.19-3.16-2.19-5.42v-30.66h-10.08v10.48c0,3.63-.36,7-1.09,10.11-.73,3.12-1.72,5.77-2.96,7.98-1.24,2.2-2.7,4.09-4.36,5.68-1.67,1.58-3.43,2.75-5.29,3.5-1.86,.75-3.78,1.13-5.75,1.13-2.24,0-4.04-.69-5.4-2.06s-2.04-3.18-2.04-5.42Z" />
                    <path class="cls-2"
                        d="M514.03,337.02v-38.11c0-2.29,.72-4.11,2.17-5.46,1.45-1.35,3.46-2.03,6.04-2.03s4.6,.68,6.06,2.04c1.46,1.36,2.19,3.18,2.19,5.44v8.94h6.72c3.65,0,6.95,.48,9.91,1.44,2.96,.96,5.4,2.28,7.32,3.94,1.92,1.67,3.39,3.61,4.42,5.82,1.02,2.21,1.53,4.59,1.53,7.12s-.51,4.9-1.53,7.12c-1.02,2.22-2.49,4.16-4.42,5.82-1.92,1.67-4.36,2.98-7.32,3.94-2.96,.96-6.26,1.44-9.91,1.44h-14.97c-2.58,0-4.59-.67-6.04-2.03-1.45-1.35-2.17-3.17-2.17-5.46Zm16.46-5.99h6.72c1.8,0,3.25-.47,4.34-1.41,1.1-.94,1.64-2.09,1.64-3.45s-.55-2.51-1.64-3.45c-1.09-.94-2.54-1.41-4.34-1.41h-6.72v9.71Z" />
                    <path class="cls-2"
                        d="M559.53,305.1c-1.45-1.35-2.17-3.17-2.17-5.46s.72-4.11,2.17-5.46c1.45-1.35,3.46-2.03,6.04-2.03h32.89c2.58,0,4.6,.68,6.06,2.05,1.46,1.36,2.19,3.17,2.19,5.44s-.73,4.08-2.19,5.44c-1.46,1.36-3.48,2.04-6.06,2.04h-8.21v30.66c0,2.26-.72,4.07-2.17,5.42-1.45,1.35-3.46,2.03-6.04,2.03s-4.59-.67-6.04-2.03c-1.45-1.35-2.17-3.16-2.17-5.42v-30.66h-8.25c-2.58,0-4.59-.67-6.04-2.03Z" />
                    <path class="cls-2"
                        d="M611.53,337.79v-38.88c0-2.29,.73-4.11,2.17-5.46,1.45-1.35,3.46-2.03,6.04-2.03s4.6,.68,6.06,2.04c1.46,1.36,2.19,3.18,2.19,5.44v17.19h.73l12.7-17.19c1.83-2.65,3.5-4.56,5.02-5.73,1.52-1.17,3.34-1.75,5.46-1.75,2.56,0,4.56,.69,6.02,2.06,1.46,1.37,2.19,3.18,2.19,5.42v38.88c0,2.26-.72,4.07-2.17,5.42-1.45,1.35-3.46,2.03-6.04,2.03s-4.59-.67-6.04-2.03c-1.45-1.35-2.17-3.16-2.17-5.42v-17.19h-.77l-12.7,17.19c-1.83,2.63-3.5,4.53-5.02,5.69-1.52,1.17-3.34,1.75-5.46,1.75-2.58,0-4.59-.68-6.04-2.04-1.45-1.36-2.17-3.16-2.17-5.4Z" />
                    <path class="cls-2"
                        d="M666.46,337.79c0-.88,.06-1.88,.18-3.01,.12-1.13,.24-2.04,.36-2.72l.2-1.02,5.25-31.39c.49-2.73,1.65-4.9,3.48-6.53,1.83-1.63,4.29-2.45,7.35-2.45,2.7,0,4.95,.76,6.75,2.28,1.8,1.52,3.29,3.75,4.45,6.7l6.72,17.48h.77l6.72-17.48c2.29-5.99,6.02-8.98,11.21-8.98,3.07,0,5.53,.82,7.39,2.45,1.86,1.63,3.01,3.81,3.45,6.53l5.26,31.39c.49,2.51,.73,4.76,.73,6.75,0,2.26-.71,4.07-2.12,5.42-1.41,1.35-3.32,2.03-5.73,2.03s-4.32-.67-5.81-2.01c-1.48-1.34-2.41-3.15-2.77-5.44l-3.39-19.46h-.73l-5.62,14.2c-.97,2.51-2.16,4.38-3.58,5.62-1.41,1.24-3.2,1.86-5.36,1.86s-4-.62-5.44-1.86c-1.44-1.24-2.62-3.11-3.54-5.62l-5.62-14.2h-.73s-3.37,19.46-3.37,19.46c-.36,2.29-1.3,4.1-2.79,5.44-1.5,1.34-3.44,2.01-5.82,2.01s-4.32-.67-5.73-2.03c-1.41-1.35-2.12-3.16-2.12-5.42Z" />
                    <path class="cls-2"
                        d="M738.23,337.79c0-.66,.15-1.55,.46-2.68,.3-1.13,.61-2.09,.93-2.87l.47-1.2,11.97-31.39c1.19-3.02,2.78-5.27,4.76-6.75,1.98-1.48,4.75-2.23,8.31-2.23s6.37,.75,8.38,2.24c2.01,1.5,3.58,3.74,4.73,6.74l11.94,31.39c1.26,3.02,1.9,5.27,1.9,6.75,0,2.09-.78,3.86-2.34,5.29-1.56,1.44-3.53,2.15-5.91,2.15-3.89,0-6.87-2.48-8.94-7.44l-1.9-4.49h-15.7l-1.86,4.49c-2.07,4.96-5.06,7.44-8.98,7.44-2.39,0-4.35-.72-5.9-2.15-1.54-1.44-2.32-3.2-2.32-5.29Zm22.41-17.96h8.98l-4.09-11.21h-.77l-4.13,11.21Z" />
                    <path class="cls-2"
                        d="M796.89,337.79v-38.14c0-2.29,.72-4.11,2.17-5.46,1.45-1.35,3.46-2.03,6.04-2.03h14.97c3.65,0,6.95,.48,9.91,1.44,2.96,.96,5.4,2.28,7.32,3.94,1.92,1.67,3.39,3.61,4.42,5.82,1.02,2.22,1.53,4.59,1.53,7.12s-.51,4.9-1.53,7.12c-1.02,2.22-2.49,4.16-4.42,5.82-1.92,1.67-4.36,2.98-7.32,3.94-2.96,.96-6.26,1.44-9.91,1.44h-6.72v8.98c0,2.26-.73,4.07-2.19,5.42-1.46,1.35-3.48,2.03-6.06,2.03s-4.59-.67-6.04-2.03c-1.45-1.35-2.17-3.16-2.17-5.42Zm16.46-22.45h6.72c1.8,0,3.25-.47,4.34-1.41,1.1-.94,1.64-2.08,1.64-3.45s-.55-2.51-1.64-3.45c-1.09-.94-2.54-1.4-4.34-1.4h-6.72v9.71Z" />
                    <path class="cls-2"
                        d="M849.56,337.79v-38.88c0-2.29,.72-4.11,2.17-5.46,1.45-1.35,3.46-2.03,6.04-2.03s4.6,.68,6.06,2.04c1.46,1.36,2.19,3.18,2.19,5.44v10.44l16.43-15.7c.17-.17,.41-.38,.73-.62,.32-.24,1-.57,2.04-.99,1.05-.41,2.12-.62,3.21-.62,2.24,0,4.05,.69,5.42,2.06s2.06,3.18,2.06,5.42c0,1.1-.25,2.14-.75,3.14-.5,1-.99,1.72-1.48,2.15l-.77,.69-10.48,10.08,12.7,16.06c.22,.29,.49,.67,.82,1.13,.33,.46,.77,1.29,1.33,2.5,.56,1.21,.84,2.24,.84,3.12,0,2.26-.73,4.07-2.17,5.42-1.45,1.35-3.46,2.03-6.04,2.03-.78,0-1.55-.13-2.32-.38-.77-.26-1.42-.57-1.97-.93-.55-.36-1.05-.73-1.5-1.09-.45-.36-.79-.68-1-.95l-.33-.36-12.7-16.06-4.09,3.72v8.61c0,2.26-.73,4.07-2.19,5.42-1.46,1.35-3.48,2.03-6.06,2.03s-4.59-.67-6.04-2.03c-1.45-1.35-2.17-3.16-2.17-5.42Z" />
                    <path class="cls-2"
                        d="M903,337.02v-37.38c0-2.29,.73-4.11,2.17-5.46,1.45-1.35,3.46-2.03,6.04-2.03h28.44c2.58,0,4.59,.68,6.04,2.03,1.45,1.35,2.17,3.17,2.17,5.46s-.73,4.11-2.17,5.46c-1.45,1.35-3.46,2.03-6.04,2.03h-20.19v4.49h14.2c2.21,0,4.01,.65,5.4,1.93,1.39,1.29,2.08,2.88,2.08,4.78s-.69,3.5-2.08,4.8c-1.39,1.3-3.19,1.95-5.4,1.95h-14.2v4.45h20.92c2.58,0,4.59,.67,6.04,2.03,1.45,1.35,2.17,3.17,2.17,5.46s-.72,4.1-2.17,5.46c-1.45,1.35-3.46,2.03-6.04,2.03h-29.17c-2.58,0-4.59-.67-6.04-2.03-1.45-1.35-2.17-3.17-2.17-5.46Z" />
                    <path class="cls-2"
                        d="M951.49,305.1c-1.45-1.35-2.17-3.17-2.17-5.46s.72-4.11,2.17-5.46c1.45-1.35,3.46-2.03,6.04-2.03h32.89c2.58,0,4.6,.68,6.06,2.05,1.46,1.36,2.19,3.17,2.19,5.44s-.73,4.08-2.19,5.44c-1.46,1.36-3.48,2.04-6.06,2.04h-8.21v30.66c0,2.26-.72,4.07-2.17,5.42-1.45,1.35-3.46,2.03-6.04,2.03s-4.59-.67-6.04-2.03c-1.45-1.35-2.17-3.16-2.17-5.42v-30.66h-8.25c-2.58,0-4.59-.67-6.04-2.03Z" />
                </g>
                <path class="cls-1"
                    d="M146.21,65.03h52.07l82.99,196.33h-57.92l-14.2-34.81h-75.19l-13.92,34.81H63.23L146.21,65.03Zm47.34,119.47l-21.72-55.42-22,55.42h43.72Z" />
            </g>
        </g>
    </g>
</svg>