<?xml version="1.0" encoding="UTF-8"?>
<svg id="_Слой_2" data-name="Слой 2" xmlns="http://www.w3.org/2000/svg" viewBox="0 0 433.68 146.32">
  <defs>
    <style>
      .cls-1 {
        fill: #1e1e1c;
      }

      .cls-2 {
        fill: #fd0;
      }

      .cls-3 {
        fill: #ed1c24;
      }
    </style>
  </defs>
  <g id="_Слой_1-2" data-name="Слой 1">
    <g id="_Логотип_Аврора_жовтий_бабл" data-name="Логотип Аврора_жовтий бабл">
      <g>
        <path class="cls-1" d="M167.29,139.85l-2.69-6.82h-.36l-1.62,9.34c-.36,2.15-1.8,3.59-4.13,3.59s-3.77-1.44-3.77-3.59c0-1.44,.36-3.23,.36-3.23l2.51-15.08c.43-2.51,2.15-4.31,5.21-4.31,2.69,0,4.31,1.62,5.39,4.31l3.23,8.4h.36l3.23-8.4c1.04-2.69,2.69-4.31,5.39-4.31,3.05,0,4.81,1.8,5.21,4.31l2.51,15.08s.36,1.8,.36,3.23c0,2.15-1.44,3.59-3.77,3.59s-3.77-1.44-4.13-3.59l-1.62-9.34h-.36l-2.69,6.82c-.9,2.33-2.15,3.59-4.31,3.59s-3.45-1.26-4.31-3.59Z"/>
        <path class="cls-1" d="M191.53,135.9v-12.21c0-2.15,1.44-3.59,3.95-3.59s3.95,1.44,3.95,3.59v12.21c0,2.51,1.44,3.95,3.59,3.95s3.59-1.44,3.59-3.95v-12.21c0-2.15,1.44-3.59,3.95-3.59s3.95,1.44,3.95,3.59v12.21c0,6.1-4.31,10.41-11.49,10.41s-11.49-4.31-11.49-10.41Z"/>
        <path class="cls-1" d="M235.7,138.42c2.51,0,3.95,1.44,3.95,3.59s-1.44,3.59-3.95,3.59h-12.57c-2.51,0-3.95-1.44-3.95-3.59v-18.31c0-2.15,1.44-3.59,3.95-3.59s3.95,1.44,3.95,3.59v14.72h8.62Z"/>
        <path class="cls-1" d="M240,127.64c-2.51,0-3.95-1.44-3.95-3.59s1.44-3.59,3.95-3.59h15.8c2.51,0,3.95,1.44,3.95,3.59s-1.44,3.59-3.95,3.59h-3.95v14.72c0,2.15-1.44,3.59-3.95,3.59s-3.95-1.44-3.95-3.59v-14.72h-3.95Z"/>
        <path class="cls-1" d="M269.99,142.37c0,2.15-1.44,3.59-3.95,3.59s-3.95-1.44-3.95-3.59v-18.67c0-2.15,1.44-3.59,3.95-3.59s3.95,1.44,3.95,3.59v18.67Z"/>
        <path class="cls-1" d="M285.61,139.85l-2.69-6.82h-.36l-1.62,9.34c-.36,2.15-1.8,3.59-4.13,3.59s-3.77-1.44-3.77-3.59c0-1.44,.36-3.23,.36-3.23l2.51-15.08c.43-2.51,2.15-4.31,5.21-4.31,2.69,0,4.31,1.62,5.39,4.31l3.23,8.4h.36l3.23-8.4c1.04-2.69,2.69-4.31,5.39-4.31,3.05,0,4.81,1.8,5.21,4.31l2.51,15.08s.36,1.8,.36,3.23c0,2.15-1.44,3.59-3.77,3.59s-3.77-1.44-4.13-3.59l-1.62-9.34h-.36l-2.69,6.82c-.9,2.33-2.15,3.59-4.31,3.59s-3.45-1.26-4.31-3.59Z"/>
        <path class="cls-1" d="M315.77,142.37c-.9,2.15-2.33,3.59-4.31,3.59-2.33,0-3.95-1.62-3.95-3.59,0-1.08,.9-3.23,.9-3.23l5.75-15.08c1.08-2.69,2.69-4.31,6.28-4.31s5.24,1.62,6.28,4.31l5.75,15.08s.9,2.15,.9,3.23c0,1.98-1.62,3.59-3.95,3.59-1.98,0-3.41-1.44-4.31-3.59l-.9-2.15h-7.54l-.9,2.15Zm6.82-8.62l-1.98-5.39h-.36l-1.98,5.39h4.31Z"/>
        <path class="cls-1" d="M343.59,136.62v5.75c0,2.15-1.44,3.59-3.95,3.59s-3.95-1.44-3.95-3.59v-18.31c0-2.15,1.44-3.59,3.95-3.59h7.54c7.54,0,10.77,3.23,10.77,8.08,0,4.49-3.95,5.93-3.95,5.93v.36l3.59,4.31s1.44,1.8,1.44,3.23c0,2.15-1.44,3.59-4.31,3.59-1.8,0-3.23-1.8-3.23-1.8l-5.75-7.54h-2.15Zm3.59-6.1c1.62,0,2.51-.9,2.51-1.98s-.9-1.98-2.51-1.98h-3.59v3.95h3.59Z"/>
        <path class="cls-1" d="M369.81,138.24v4.13c0,2.15-1.44,3.59-3.95,3.59s-3.95-1.44-3.95-3.59v-18.67c0-2.15,1.44-3.59,3.95-3.59s3.95,1.44,3.95,3.59v5.03l7.9-7.54s1.08-1.08,2.87-1.08c2.15,0,3.59,1.44,3.59,3.59,0,1.8-1.44,2.87-1.44,2.87l-5.03,4.85,6.1,7.72s1.44,1.8,1.44,3.23c0,2.15-1.44,3.59-3.95,3.59-1.97,0-3.41-1.8-3.41-1.8l-6.1-7.72-1.98,1.8Z"/>
        <path class="cls-1" d="M395.48,127.64v2.15h6.82c2.15,0,3.59,1.44,3.59,3.23s-1.44,3.23-3.59,3.23h-6.82v2.15h10.06c2.51,0,3.95,1.44,3.95,3.59s-1.44,3.59-3.95,3.59h-14.01c-2.51,0-3.95-1.44-3.95-3.59v-17.96c0-2.15,1.44-3.59,3.95-3.59h13.65c2.51,0,3.95,1.44,3.95,3.59s-1.44,3.59-3.95,3.59h-9.7Z"/>
        <path class="cls-1" d="M413.79,127.64c-2.51,0-3.95-1.44-3.95-3.59s1.44-3.59,3.95-3.59h15.8c2.51,0,3.95,1.44,3.95,3.59s-1.44,3.59-3.95,3.59h-3.95v14.72c0,2.15-1.44,3.59-3.95,3.59s-3.95-1.44-3.95-3.59v-14.72h-3.95Z"/>
      </g>
      <circle class="cls-2" cx="69.93" cy="69.93" r="69.93" transform="translate(-28.97 69.93) rotate(-45)"/>
      <path class="cls-3" d="M58.32,21.71h23.22l37.01,87.56h-25.83l-6.33-15.52H52.86l-6.21,15.52H21.31L58.32,21.71Zm21.11,53.28l-9.69-24.71-9.81,24.71h19.5Z"/>
      <path class="cls-3" d="M159.6,51.12h17.63v34.06c0,3.38-.53,6.57-1.58,9.57-1.05,3-2.7,5.63-4.95,7.87-2.25,2.25-4.61,3.83-7.08,4.73-3.43,1.27-7.55,1.91-12.36,1.91-2.78,0-5.82-.19-9.11-.58-3.29-.39-6.04-1.16-8.25-2.32-2.21-1.16-4.23-2.8-6.06-4.93-1.83-2.13-3.09-4.33-3.76-6.59-1.09-3.64-1.64-6.86-1.64-9.67V51.12h17.63v34.87c0,3.12,.86,5.55,2.59,7.31,1.73,1.75,4.13,2.63,7.2,2.63s5.43-.86,7.16-2.59c1.73-1.73,2.59-4.18,2.59-7.35V51.12Z"/>
      <path class="cls-3" d="M243.18,80.13c0-16.05,12.94-29.07,30.19-29.07s30.03,12.86,30.03,29.07-12.94,29.07-30.19,29.07-30.03-12.86-30.03-29.07Zm44.41,0c0-8.07-5.83-15.1-14.38-15.1s-14.14,6.87-14.14,15.1,5.83,15.1,14.3,15.1,14.22-6.87,14.22-15.1Z"/>
      <path class="cls-3" d="M185.84,109.26V51.11h29.95c5.55,0,9.8,.48,12.73,1.43,2.94,.95,5.3,2.72,7.1,5.3,1.8,2.58,2.7,5.72,2.7,9.42,0,3.23-.69,6.01-2.06,8.35s-3.27,4.24-5.68,5.69c-1.53,.93-3.64,1.69-6.31,2.3,2.14,.72,3.7,1.43,4.68,2.14,.66,.48,1.62,1.5,2.87,3.06,1.26,1.56,2.09,2.77,2.52,3.61l8.7,16.85h-20.3l-9.6-17.77c-1.22-2.3-2.3-3.79-3.25-4.48-1.3-.9-2.76-1.35-4.4-1.35h-1.59v23.6h-18.05Zm18.05-34.59h7.58c.82,0,2.41-.26,4.76-.79,1.19-.24,2.16-.85,2.92-1.82,.75-.98,1.13-2.1,1.13-3.37,0-1.88-.59-3.32-1.78-4.32-1.19-1-3.42-1.51-6.7-1.51h-7.89v11.82Z"/>
      <path class="cls-3" d="M309.64,109.21V51.06h29.95c5.55,0,9.8,.48,12.73,1.43,2.94,.95,5.3,2.72,7.1,5.3,1.8,2.58,2.7,5.72,2.7,9.42,0,3.23-.69,6.01-2.06,8.35s-3.27,4.24-5.68,5.69c-1.53,.93-3.64,1.69-6.31,2.3,2.14,.72,3.7,1.43,4.68,2.14,.66,.48,1.62,1.5,2.87,3.06,1.26,1.56,2.09,2.77,2.52,3.61l8.7,16.85h-20.3l-9.6-17.77c-1.22-2.3-2.3-3.79-3.25-4.48-1.3-.9-2.76-1.35-4.4-1.35h-1.59v23.6h-18.05Zm18.05-34.59h7.58c.82,0,2.41-.26,4.76-.79,1.19-.24,2.16-.85,2.92-1.82,.75-.98,1.13-2.1,1.13-3.37,0-1.88-.59-3.32-1.78-4.32-1.19-1-3.42-1.51-6.7-1.51h-7.89v11.82Z"/>
      <path class="cls-3" d="M411.96,99.61h-20.4l-2.83,9.6h-18.35l21.86-58.15h19.6l21.85,58.15h-18.82l-2.91-9.6Zm-3.73-12.57l-6.42-20.9-6.35,20.9h12.77Z"/>
    </g>
  </g>
</svg>