<?xml version="1.0" encoding="utf-8"?>
<svg viewBox="0 0.0005 50 49.9995" width="50" height="49.9995" xmlns="http://www.w3.org/2000/svg">
  <path d="M 20.689 27.587 C 24.497 27.587 27.585 24.499 27.585 20.69 C 27.585 16.882 24.497 13.794 20.689 13.794 C 16.88 13.794 13.793 16.882 13.793 20.69 C 13.793 24.499 16.88 27.587 20.689 27.587 Z" fill="#FCBC04" transform="matrix(1, 0, 0, 1, 0, 3.552713678800501e-15)"/>
  <path d="M 27.585 20.69 C 27.585 22.52 26.858 24.273 25.565 25.567 C 24.272 26.86 22.518 27.587 20.689 27.587 C 18.86 27.587 17.106 26.86 15.812 25.567 C 14.519 24.273 13.793 22.52 13.793 20.69 C 13.79 19.556 14.071 18.438 14.611 17.441 C 15.447 18.411 16.537 19.128 17.759 19.512 C 18.98 19.896 20.285 19.931 21.525 19.613 L 18.266 14.915 C 18.146 14.74 18.039 14.555 17.948 14.363 C 18.812 13.985 19.746 13.791 20.689 13.794 C 22.518 13.794 24.272 14.521 25.565 15.814 C 26.858 17.107 27.585 18.861 27.585 20.69 Z" fill="#E59730" transform="matrix(1, 0, 0, 1, 0, 3.552713678800501e-15)"/>
  <path d="M 11.272 19.923 L 11.875 18.309 C 12.196 17.452 12.843 16.757 13.675 16.378 C 14.507 15.998 15.456 15.966 16.313 16.285 L 15.709 17.9 C 15.389 18.757 14.742 19.452 13.91 19.831 C 13.078 20.21 12.129 20.243 11.272 19.923 Z" fill="#7AB92D" transform="matrix(1, 0, 0, 1, 0, 3.552713678800501e-15)"/>
  <path d="M 16.31 16.285 L 15.706 17.897 C 15.386 18.753 14.741 19.446 13.91 19.827 C 13.08 20.207 12.131 20.241 11.275 19.923 L 11.862 18.363 C 12.657 18.507 13.479 18.366 14.181 17.966 C 14.885 17.566 15.424 16.931 15.706 16.173 L 15.723 16.122 C 15.923 16.163 16.118 16.217 16.31 16.285 Z" fill="#5BA006" transform="matrix(1, 0, 0, 1, 0, 3.552713678800501e-15)"/>
  <path d="M 16.379 17.242 C 16.15 17.242 15.931 17.151 15.769 16.99 L 13.183 14.404 C 13.026 14.241 12.939 14.023 12.941 13.798 C 12.943 13.571 13.034 13.355 13.193 13.195 C 13.354 13.036 13.57 12.945 13.796 12.942 C 14.022 12.941 14.24 13.028 14.402 13.185 L 16.988 15.771 C 17.109 15.891 17.191 16.045 17.224 16.212 C 17.257 16.379 17.241 16.553 17.175 16.71 C 17.11 16.867 16.999 17.002 16.858 17.097 C 16.716 17.191 16.549 17.242 16.379 17.242 Z" fill="#A1D51C" transform="matrix(1, 0, 0, 1, 0, 3.552713678800501e-15)"/>
  <path d="M 22.675 11.892 L 16.241 7.644 L 18.796 5.174 L 23.737 10.284 L 22.675 11.892 Z" fill="#7AB92D" transform="matrix(1, 0, 0, 1, 0, 3.552713678800501e-15)"/>
  <path d="M 23.74 10.286 L 22.671 11.889 L 16.241 7.648 L 17.129 6.786 L 19.344 8.243 C 19.725 8.496 20.184 8.603 20.637 8.544 L 20.042 6.467 L 23.74 10.286 Z" fill="#5BA006" transform="matrix(1, 0, 0, 1, 0, 3.552713678800501e-15)"/>
  <path d="M 24.168 11.03 L 23.706 3.334 L 20.289 4.312 L 22.244 11.146 L 24.168 11.03 Z" fill="#A1D51C" transform="matrix(1, 0, 0, 1, 0, 3.552713678800501e-15)"/>
  <path d="M 24.171 11.027 L 22.24 11.148 L 20.292 4.312 L 21.62 3.932 L 22.146 5.777 C 22.265 6.197 22.496 6.577 22.815 6.875 C 23.134 7.173 23.528 7.377 23.956 7.467 L 24.171 11.027 Z" fill="#7AB92D" transform="matrix(1, 0, 0, 1, 0, 3.552713678800501e-15)"/>
  <path d="M 32.473 27.139 C 31.862 27.492 31.142 27.601 30.453 27.448 C 29.765 27.294 29.161 26.887 28.758 26.307 L 20.853 14.915 C 20.541 14.464 20.327 13.954 20.222 13.417 C 20.117 12.879 20.125 12.325 20.245 11.791 C 20.365 11.256 20.594 10.752 20.918 10.311 C 21.242 9.869 21.654 9.499 22.128 9.225 C 22.603 8.951 23.13 8.778 23.676 8.718 C 24.221 8.657 24.773 8.711 25.296 8.875 C 25.82 9.038 26.304 9.31 26.717 9.67 C 27.131 10.03 27.465 10.473 27.699 10.969 L 33.61 23.51 C 33.91 24.147 33.959 24.874 33.749 25.546 C 33.537 26.218 33.082 26.787 32.473 27.139 Z" fill="#F9E109" transform="matrix(1, 0, 0, 1, 0, 3.552713678800501e-15)"/>
  <path d="M 32.473 27.138 C 31.862 27.491 31.142 27.602 30.454 27.449 C 29.766 27.295 29.16 26.889 28.757 26.311 L 20.853 14.915 C 20.29 14.104 20.051 13.113 20.181 12.136 C 20.312 11.158 20.803 10.264 21.559 9.631 L 27.042 18.587 C 27.412 19.187 27.994 19.627 28.671 19.82 C 29.35 20.013 30.075 19.946 30.706 19.63 C 31.006 19.481 31.275 19.276 31.499 19.027 L 33.611 23.509 C 33.911 24.146 33.96 24.873 33.749 25.545 C 33.538 26.218 33.083 26.786 32.473 27.138 Z" fill="#FCBC04" transform="matrix(1, 0, 0, 1, 0, 3.552713678800501e-15)"/>
  <path d="M 24.827 15.622 L 22.344 17.061 L 21.361 15.648 C 21.379 15.63 21.4 15.616 21.422 15.604 L 23.965 14.13 C 24.164 14.017 24.4 13.988 24.621 14.048 C 24.841 14.107 25.03 14.252 25.146 14.449 C 25.202 14.547 25.239 14.655 25.254 14.767 C 25.27 14.879 25.262 14.993 25.232 15.103 C 25.202 15.211 25.152 15.314 25.082 15.403 C 25.012 15.491 24.926 15.566 24.827 15.622 Z" fill="#E59730" transform="matrix(1, 0, 0, 1, 0, 3.552713678800501e-15)"/>
  <path d="M 24.602 11.777 C 24.546 11.679 24.508 11.571 24.492 11.458 C 24.477 11.346 24.483 11.231 24.513 11.122 C 24.541 11.012 24.591 10.909 24.66 10.819 C 24.729 10.729 24.815 10.653 24.913 10.596 L 26.637 9.605 C 27.088 9.974 27.45 10.439 27.697 10.967 L 27.706 10.984 C 27.701 10.988 27.695 10.992 27.689 10.993 L 25.775 12.096 C 25.577 12.208 25.343 12.238 25.123 12.178 C 24.903 12.118 24.716 11.974 24.602 11.777 Z" fill="#E59730" transform="matrix(1, 0, 0, 1, 0, 3.552713678800501e-15)"/>
  <path d="M 28.051 17.751 C 28.164 17.949 28.193 18.183 28.132 18.403 C 28.073 18.622 27.929 18.809 27.732 18.923 L 24.809 20.613 L 23.827 19.199 C 23.845 19.182 23.865 19.167 23.887 19.156 L 26.87 17.432 C 27.069 17.319 27.305 17.29 27.526 17.349 C 27.747 17.409 27.935 17.553 28.051 17.751 Z" fill="#E59730" transform="matrix(1, 0, 0, 1, 0, 3.552713678800501e-15)"/>
  <path d="M 27.068 14.329 L 28.749 13.363 C 28.775 13.354 28.792 13.337 28.818 13.337 L 29.551 14.889 L 27.93 15.829 C 27.732 15.941 27.498 15.971 27.278 15.91 C 27.058 15.851 26.871 15.707 26.758 15.51 C 26.701 15.411 26.663 15.304 26.647 15.191 C 26.632 15.079 26.639 14.964 26.668 14.854 C 26.696 14.745 26.746 14.642 26.815 14.552 C 26.884 14.461 26.97 14.385 27.068 14.329 Z" fill="#E59730" transform="matrix(1, 0, 0, 1, 0, 3.552713678800501e-15)"/>
  <path d="M 32.128 20.371 L 30.206 21.483 C 30.007 21.596 29.771 21.625 29.551 21.565 C 29.329 21.506 29.141 21.362 29.025 21.165 C 28.968 21.067 28.931 20.958 28.916 20.846 C 28.901 20.734 28.909 20.621 28.938 20.511 C 28.968 20.402 29.02 20.3 29.088 20.211 C 29.158 20.121 29.245 20.047 29.344 19.992 L 31.335 18.837 C 31.352 18.823 31.374 18.815 31.395 18.811 L 32.128 20.371 Z" fill="#E59730" transform="matrix(1, 0, 0, 1, 0, 3.552713678800501e-15)"/>
  <path d="M 38.802 20.503 C 41.183 20.503 43.112 18.573 43.112 16.193 C 43.112 13.812 41.183 11.883 38.802 11.883 C 36.422 11.883 34.492 13.812 34.492 16.193 C 34.492 18.573 36.422 20.503 38.802 20.503 Z" fill="#5BA006" transform="matrix(1, 0, 0, 1, 0, 3.552713678800501e-15)"/>
  <path d="M 32.363 16.161 C 33.792 16.161 34.949 15.004 34.949 13.575 C 34.949 12.147 33.792 10.989 32.363 10.989 C 30.935 10.989 29.777 12.147 29.777 13.575 C 29.777 15.004 30.935 16.161 32.363 16.161 Z" fill="#5BA006" transform="matrix(1, 0, 0, 1, 0, 3.552713678800501e-15)"/>
  <path d="M 49.912 14.707 C 50 14.379 50.022 14.036 49.978 13.699 C 49.933 13.362 49.823 13.037 49.653 12.743 C 49.483 12.449 49.257 12.191 48.987 11.984 C 48.717 11.777 48.409 11.625 48.082 11.537 C 47.753 11.449 47.411 11.428 47.074 11.472 C 46.737 11.517 46.412 11.627 46.118 11.797 C 45.523 12.14 45.09 12.705 44.912 13.368 C 44.8 13.799 44.802 14.252 44.917 14.682 C 44.429 14.829 43.996 15.117 43.671 15.51 C 43.345 15.903 43.142 16.382 43.087 16.889 C 43.033 17.396 43.128 17.907 43.363 18.359 C 43.596 18.813 43.959 19.186 44.404 19.434 C 44.849 19.684 45.358 19.795 45.866 19.756 C 46.374 19.717 46.86 19.53 47.263 19.217 C 47.664 18.904 47.966 18.48 48.129 17.997 C 48.292 17.514 48.309 16.993 48.178 16.501 C 48.595 16.372 48.973 16.141 49.276 15.828 C 49.58 15.514 49.798 15.129 49.912 14.707 Z" fill="#5BA006" transform="matrix(1, 0, 0, 1, 0, 3.552713678800501e-15)"/>
  <path d="M 42.861 11.034 L 38.742 19.746 L 36.81 10.305 L 33.033 11.077 L 34.943 20.602 L 33.181 27.181 L 39.841 28.966 L 41.637 22.265 L 46.192 11.926 L 42.861 11.034 Z" fill="#C4F236" transform="matrix(1, 0, 0, 1, 0, 3.552713678800501e-15)"/>
  <path d="M 39.904 27.656 L 40.171 27.725 L 39.843 28.966 L 33.18 27.182 L 34.947 20.604 L 33.033 11.079 L 36.809 10.303 L 37.955 15.897 C 37.542 15.943 37.124 15.91 36.723 15.803 C 36.392 15.713 36.077 15.571 35.792 15.38 L 36.343 18.13 C 36.56 19.187 36.524 20.279 36.24 21.32 C 35.888 22.645 36.076 24.057 36.763 25.245 C 37.449 26.432 38.579 27.299 39.904 27.656 Z" fill="#A1D51C" transform="matrix(1, 0, 0, 1, 0, 3.552713678800501e-15)"/>
  <path d="M 46.196 11.924 L 43.567 17.88 C 42.902 18.128 42.175 18.161 41.49 17.975 C 40.922 17.826 40.404 17.528 39.99 17.113 L 42.86 11.036 L 46.196 11.924 Z" fill="#A1D51C" transform="matrix(1, 0, 0, 1, 0, 3.552713678800501e-15)"/>
  <path d="M 49.359 10.098 C 49.53 9.474 49.557 8.82 49.439 8.184 C 49.321 7.549 49.061 6.948 48.678 6.426 C 48.295 5.906 47.8 5.478 47.228 5.176 C 46.656 4.873 46.024 4.704 45.377 4.681 C 45.467 3.676 45.2 2.67 44.622 1.843 C 44.046 1.014 43.196 0.415 42.222 0.151 C 41.248 -0.114 40.212 -0.027 39.296 0.395 C 38.379 0.817 37.64 1.549 37.208 2.461 C 36.205 2.381 35.205 2.654 34.383 3.234 C 33.561 3.814 32.968 4.663 32.706 5.635 C 32.674 5.783 32.65 5.933 32.633 6.085 C 32.146 6.207 31.691 6.433 31.301 6.749 C 30.911 7.065 30.594 7.462 30.375 7.914 C 30.155 8.365 30.036 8.86 30.028 9.362 C 30.019 9.864 30.121 10.362 30.325 10.82 C 30.531 11.279 30.833 11.686 31.213 12.016 C 31.592 12.344 32.039 12.586 32.522 12.723 C 33.005 12.861 33.512 12.892 34.008 12.811 C 34.504 12.732 34.976 12.545 35.392 12.263 C 35.585 12.667 35.856 13.03 36.19 13.328 C 36.524 13.627 36.912 13.857 37.336 14.005 C 37.758 14.153 38.206 14.216 38.653 14.19 C 39.1 14.164 39.538 14.05 39.941 13.854 C 40.157 14.653 40.654 15.346 41.34 15.807 C 42.027 16.268 42.856 16.466 43.677 16.364 C 44.497 16.262 45.253 15.867 45.807 15.253 C 46.359 14.638 46.671 13.844 46.686 13.017 C 47.333 12.78 47.914 12.392 48.379 11.884 C 48.845 11.375 49.181 10.763 49.359 10.098 Z" fill="#A1D51C" transform="matrix(1, 0, 0, 1, 0, 3.552713678800501e-15)"/>
  <path d="M 49.489 8.665 C 49.532 9.146 49.488 9.631 49.36 10.096 C 49.182 10.762 48.846 11.375 48.381 11.884 C 47.916 12.392 47.335 12.781 46.688 13.018 C 46.684 13.286 46.647 13.553 46.576 13.811 C 46.383 14.541 45.954 15.187 45.358 15.649 C 44.76 16.111 44.028 16.365 43.273 16.37 C 42.519 16.374 41.783 16.131 41.18 15.676 C 40.578 15.222 40.141 14.581 39.938 13.854 C 39.206 14.21 38.371 14.289 37.585 14.079 C 37.111 13.95 36.67 13.722 36.292 13.408 C 35.914 13.094 35.608 12.702 35.395 12.26 C 34.98 12.543 34.507 12.732 34.011 12.813 C 33.515 12.895 33.006 12.866 32.523 12.729 C 32.038 12.592 31.591 12.35 31.21 12.022 C 30.83 11.692 30.526 11.284 30.321 10.825 C 30.116 10.366 30.014 9.867 30.023 9.364 C 30.032 8.862 30.15 8.367 30.371 7.915 C 30.592 7.462 30.909 7.065 31.3 6.75 C 31.693 6.433 32.149 6.207 32.637 6.088 C 32.646 5.937 32.669 5.787 32.706 5.639 C 32.923 4.815 33.381 4.075 34.021 3.513 C 34.662 2.951 35.455 2.592 36.3 2.484 C 36.238 2.802 36.206 3.126 36.205 3.45 C 36.205 4.821 36.75 6.137 37.721 7.107 C 38.691 8.077 40.006 8.622 41.378 8.622 C 41.525 8.622 41.672 8.613 41.817 8.596 C 42.296 9.14 42.883 9.577 43.541 9.879 C 44.199 10.18 44.914 10.339 45.638 10.346 C 46.362 10.352 47.079 10.206 47.743 9.917 C 48.407 9.627 49.001 9.2 49.489 8.665 Z" fill="#7AB92D" transform="matrix(1, 0, 0, 1, 0, 3.552713678800501e-15)"/>
  <path d="M 38.619 50 L 11.379 50 C 10.134 50 8.931 49.55 7.99 48.735 C 7.05 47.919 6.435 46.792 6.258 45.559 L 3.448 25.863 L 46.55 25.863 L 43.736 45.559 C 43.56 46.791 42.946 47.919 42.006 48.734 C 41.066 49.55 39.864 49.999 38.619 50 Z" fill="#57B7EB" transform="matrix(1, 0, 0, 1, 0, 3.552713678800501e-15)"/>
  <path d="M 18.87 27.587 L 8.991 27.587 L 9.094 28.302 C 9.681 32.411 11.729 36.171 14.865 38.89 C 18.001 41.609 22.012 43.105 26.163 43.103 L 42.929 43.103 C 43.328 43.106 43.724 43.059 44.11 42.965 L 43.74 45.56 C 43.561 46.791 42.945 47.917 42.005 48.732 C 41.065 49.547 39.863 49.997 38.619 50 L 11.379 50 C 10.135 49.997 8.933 49.547 7.993 48.732 C 7.053 47.917 6.438 46.791 6.258 45.56 L 3.448 25.863 L 46.55 25.863 L 46.3 27.587 L 26.249 27.587 C 26.271 27.823 26.242 28.061 26.163 28.285 C 26.014 28.717 25.7 29.072 25.289 29.272 C 24.878 29.473 24.405 29.502 23.973 29.354 L 18.87 27.587 Z" fill="#4891D3" transform="matrix(1, 0, 0, 1, 0, 3.552713678800501e-15)"/>
  <path d="M 48.274 22.414 L 1.724 22.414 C 0.772 22.414 0 23.186 0 24.139 C 0 25.091 0.772 25.863 1.724 25.863 L 48.274 25.863 C 49.226 25.863 49.998 25.091 49.998 24.139 C 49.998 23.186 49.226 22.414 48.274 22.414 Z" fill="#84D2F4" transform="matrix(1, 0, 0, 1, 0, 3.552713678800501e-15)"/>
  <path d="M 26.723 34.483 C 26.723 33.53 25.952 32.759 24.999 32.759 C 24.047 32.759 23.275 33.53 23.275 34.483 L 23.275 44.827 C 23.275 45.78 24.047 46.551 24.999 46.551 C 25.952 46.551 26.723 45.78 26.723 44.827 L 26.723 34.483 Z" fill="#2D72BC" transform="matrix(1, 0, 0, 1, 0, 3.552713678800501e-15)"/>
  <path d="M 33.619 34.483 C 33.619 33.53 32.848 32.759 31.895 32.759 C 30.944 32.759 30.171 33.53 30.171 34.483 L 30.171 44.827 C 30.171 45.78 30.944 46.551 31.895 46.551 C 32.848 46.551 33.619 45.78 33.619 44.827 L 33.619 34.483 Z" fill="#2D72BC" transform="matrix(1, 0, 0, 1, 0, 3.552713678800501e-15)"/>
  <path d="M 12.931 34.483 C 12.931 33.53 12.159 32.759 11.206 32.759 C 10.255 32.759 9.482 33.53 9.482 34.483 L 9.482 44.827 C 9.482 45.78 10.255 46.551 11.206 46.551 C 12.159 46.551 12.931 45.78 12.931 44.827 L 12.931 34.483 Z" fill="#2D72BC" transform="matrix(1, 0, 0, 1, 0, 3.552713678800501e-15)"/>
  <path d="M 19.827 34.483 C 19.827 33.53 19.055 32.759 18.103 32.759 C 17.151 32.759 16.379 33.53 16.379 34.483 L 16.379 44.827 C 16.379 45.78 17.151 46.551 18.103 46.551 C 19.055 46.551 19.827 45.78 19.827 44.827 L 19.827 34.483 Z" fill="#2D72BC" transform="matrix(1, 0, 0, 1, 0, 3.552713678800501e-15)"/>
  <path d="M 49.998 24.139 C 49.995 24.595 49.812 25.032 49.489 25.354 C 49.167 25.676 48.73 25.859 48.274 25.863 L 1.724 25.863 C 1.267 25.861 0.829 25.679 0.507 25.356 C 0.184 25.033 0.002 24.595 0 24.139 C 0.003 23.683 0.186 23.245 0.509 22.923 C 0.832 22.601 1.268 22.418 1.724 22.414 L 1.991 22.414 C 2.03 22.844 2.227 23.243 2.544 23.535 C 2.861 23.826 3.276 23.989 3.707 23.992 L 12.594 23.992 L 8.034 22.414 L 25.473 22.414 L 25.646 22.475 C 28.55 23.476 31.6 23.989 34.671 23.992 L 49.989 23.992 C 49.997 24.04 50 24.089 49.998 24.139 Z" fill="#57B7EB" transform="matrix(1, 0, 0, 1, 0, 3.552713678800501e-15)"/>
  <path d="M 3.15 16.476 C 2.251 16.165 1.269 16.641 0.957 17.541 C 0.646 18.441 1.122 19.423 2.022 19.734 L 24.832 27.63 C 25.732 27.941 26.714 27.464 27.025 26.564 C 27.336 25.664 26.859 24.682 25.959 24.371 L 3.15 16.476 Z" fill="#84D2F4" transform="matrix(1, 0, 0, 1, 0, 3.552713678800501e-15)"/>
  <path d="M 27.025 26.561 C 26.876 26.993 26.562 27.348 26.152 27.548 C 25.74 27.749 25.267 27.778 24.835 27.63 L 2.026 19.734 C 1.65 19.605 1.329 19.351 1.121 19.012 C 0.911 18.674 0.826 18.274 0.879 17.88 C 0.969 17.934 1.065 17.977 1.164 18.009 L 23.973 25.906 C 24.405 26.054 24.878 26.025 25.289 25.824 C 25.7 25.624 26.014 25.269 26.163 24.837 C 26.197 24.726 26.223 24.614 26.24 24.501 C 26.593 24.697 26.864 25.011 27.008 25.388 C 27.151 25.764 27.158 26.18 27.025 26.561 Z" fill="#57B7EB" transform="matrix(1, 0, 0, 1, 0, 3.552713678800501e-15)"/>
  <path d="M 43.964 34.483 C 43.069 34.484 42.185 34.685 41.378 35.072 C 40.459 34.632 39.443 34.434 38.427 34.493 C 37.41 34.553 36.425 34.87 35.564 35.414 C 34.703 35.958 33.993 36.711 33.503 37.604 C 33.012 38.497 32.756 39.498 32.757 40.517 C 32.757 43.85 35.459 50 38.792 50 C 39.687 49.999 40.571 49.797 41.378 49.411 C 42.185 49.797 43.069 49.999 43.964 50 C 47.296 50 49.998 43.85 49.998 40.517 C 49.998 38.916 49.363 37.382 48.231 36.25 C 47.099 35.118 45.565 34.483 43.964 34.483 Z" fill="#F8664F" transform="matrix(1, 0, 0, 1, 0, 3.552713678800501e-15)"/>
  <path d="M 41.378 36.207 C 41.14 36.207 40.91 36.12 40.732 35.962 C 40.554 35.805 40.439 35.588 40.409 35.352 L 39.867 31.022 C 39.841 30.808 39.86 30.59 39.923 30.384 C 39.987 30.178 40.094 29.987 40.236 29.825 C 40.379 29.664 40.555 29.534 40.752 29.445 C 40.948 29.356 41.162 29.311 41.378 29.311 C 41.594 29.311 41.807 29.356 42.003 29.445 C 42.2 29.534 42.376 29.664 42.519 29.825 C 42.662 29.987 42.768 30.178 42.832 30.384 C 42.896 30.59 42.915 30.808 42.888 31.022 L 42.347 35.352 C 42.317 35.588 42.203 35.805 42.024 35.962 C 41.846 36.12 41.616 36.207 41.378 36.207 Z" fill="#A1D51C" transform="matrix(1, 0, 0, 1, 0, 3.552713678800501e-15)"/>
  <path d="M 46.55 31.035 L 48.274 31.035 C 48.274 31.949 47.911 32.826 47.264 33.473 C 46.617 34.12 45.74 34.483 44.826 34.483 L 43.102 34.483 C 43.102 33.568 43.465 32.692 44.112 32.045 C 44.759 31.398 45.635 31.035 46.55 31.035 Z" fill="#A1D51C" transform="matrix(1, 0, 0, 1, 0, 3.552713678800501e-15)"/>
  <path d="M 48.395 46.189 C 47.3 48.293 45.722 50 43.964 50 C 43.069 49.999 42.185 49.799 41.378 49.413 C 40.57 49.799 39.686 49.999 38.792 50 C 35.455 50 32.757 43.853 32.757 40.517 C 32.756 39.54 32.993 38.576 33.448 37.71 C 33.903 36.846 34.562 36.104 35.369 35.552 C 35.352 35.767 35.343 35.983 35.343 36.207 C 35.343 38.951 36.433 41.582 38.373 43.521 C 40.313 45.462 42.945 46.551 45.688 46.551 C 46.602 46.555 47.514 46.433 48.395 46.189 Z" fill="#CC5144" transform="matrix(1, 0, 0, 1, 0, 3.552713678800501e-15)"/>
  <path d="M 42.455 34.457 L 42.343 35.354 C 42.314 35.589 42.199 35.804 42.021 35.961 C 41.843 36.117 41.615 36.204 41.378 36.204 C 41.141 36.204 40.912 36.117 40.735 35.961 C 40.557 35.804 40.442 35.589 40.412 35.354 L 39.869 31.018 C 39.829 30.696 39.892 30.371 40.051 30.088 C 40.209 29.806 40.454 29.581 40.748 29.449 L 41.274 33.63 C 41.304 33.865 41.419 34.081 41.597 34.238 C 41.774 34.395 42.003 34.482 42.24 34.483 C 42.312 34.483 42.384 34.474 42.455 34.457 Z" fill="#7AB92D" transform="matrix(1, 0, 0, 1, 0, 3.552713678800501e-15)"/>
  <path d="M 48.274 31.035 C 48.275 31.487 48.186 31.936 48.013 32.355 C 47.839 32.774 47.586 33.154 47.265 33.474 C 46.945 33.794 46.564 34.048 46.146 34.222 C 45.727 34.395 45.279 34.484 44.826 34.483 L 43.102 34.483 C 43.103 33.877 43.263 33.282 43.567 32.759 L 44.826 32.759 C 45.74 32.757 46.617 32.395 47.265 31.75 C 47.476 31.535 47.658 31.295 47.808 31.035 L 48.274 31.035 Z" fill="#7AB92D" transform="matrix(1, 0, 0, 1, 0, 3.552713678800501e-15)"/>
  <path d="M 46.283 40.603 C 46.107 40.603 45.934 40.548 45.79 40.446 C 45.645 40.346 45.534 40.202 45.474 40.035 C 45.275 39.485 44.877 39.029 44.36 38.756 C 44.159 38.649 44.007 38.466 43.94 38.247 C 43.872 38.029 43.895 37.792 44.002 37.591 C 44.109 37.388 44.291 37.237 44.51 37.17 C 44.729 37.103 44.965 37.125 45.167 37.232 C 46.062 37.705 46.749 38.495 47.094 39.447 C 47.141 39.577 47.157 39.716 47.139 39.854 C 47.12 39.991 47.07 40.122 46.99 40.236 C 46.91 40.349 46.805 40.442 46.682 40.506 C 46.558 40.57 46.422 40.603 46.283 40.603 Z" fill="#F89C8D" transform="matrix(1, 0, 0, 1, 0, 3.552713678800501e-15)"/>
</svg>