<?xml version="1.0" encoding="utf-8"?>
<svg viewBox="4.6793 2.3727 44.6415 45.2548" width="44.6415" height="45.2548" xmlns="http://www.w3.org/2000/svg">
  <path class="cls-1" d="M 16.677 9.608 C 16.619 9.608 16.559 9.608 16.5 9.585 C 16.153 9.49 15.962 9.12 16.058 8.775 C 16.454 7.42 17.103 6.151 17.965 5.033 C 17.547 4.577 17.085 4.165 16.583 3.805 C 15.479 5.338 14.699 7.083 14.294 8.929 C 14.217 9.28 13.871 9.504 13.52 9.43 C 13.169 9.352 12.945 9.007 13.02 8.655 C 13.479 6.567 14.372 4.597 15.643 2.875 C 15.904 2.518 16.214 2.351 16.559 2.375 C 16.821 2.387 17.001 2.518 17.095 2.578 C 17.858 3.101 18.561 3.722 19.158 4.425 C 19.216 4.496 19.349 4.64 19.384 4.877 C 19.431 5.235 19.229 5.497 19.158 5.581 C 18.308 6.625 17.675 7.829 17.298 9.12 C 17.217 9.396 16.965 9.585 16.677 9.585 L 16.677 9.608 Z" style="fill: rgb(0, 0, 0); opacity: 1;" transform="matrix(1.0000000000000002, 0, 0, 1, 0, 3.552713678800501e-15)"/>
  <path class="cls-1" d="M 15.152 47.145 C 14.807 48.136 13.842 47.373 13.426 46.873 C 3.499 38.519 0.626 15.768 12.21 7.749 C 12.77 7.427 14.02 6.499 14.486 7.427 C 14.619 7.763 14.445 8.144 14.103 8.262 C 2.794 13.053 4.975 38.483 13.448 45.18 C 13.771 45.396 14.02 45.872 13.889 45.132 C 13.603 41.914 12.639 37.946 11.685 34.992 C 10.791 31.703 9.36 18.581 11.614 16.45 C 12.022 16.438 12.34 16.795 12.28 17.199 C 11.424 22.914 11.624 28.74 12.876 34.384 C 14.116 38.828 15.416 42.642 15.142 47.171 L 15.152 47.145 Z" style="fill: rgb(0, 0, 0); opacity: 1;" transform="matrix(1.0000000000000002, 0, 0, 1, 0, 3.552713678800501e-15)"/>
  <path class="cls-1" d="M 21.028 28.998 C 21.016 32.334 20.121 35.552 19.252 38.662 C 19.181 38.913 18.978 39.092 18.715 39.128 L 18.619 39.128 C 18.4 39.124 18.196 39.012 18.072 38.829 C 16.818 36.82 15.953 34.592 15.522 32.263 C 15.332 31.44 15.175 30.714 15.164 30.583 C 14.664 26.866 13.889 22.693 12.054 18.941 C 12.114 18.344 12.198 17.76 12.279 17.176 C 12.34 16.819 12.089 16.497 11.732 16.438 C 11.375 16.378 11.054 16.628 10.993 16.984 L 10.993 17.032 C 10.838 16.772 10.671 16.517 10.493 16.27 L 9.921 15.449 C 9.636 15.035 9.905 14.47 10.405 14.43 C 10.636 14.411 10.861 14.517 10.993 14.709 L 11.565 15.531 C 14.7 20.084 15.784 25.53 16.439 30.285 C 16.606 30.987 16.726 31.572 16.749 31.692 C 17.036 33.453 17.608 35.195 18.418 36.791 C 19.108 34.241 19.716 31.62 19.729 28.987 C 19.74 26.244 19.097 23.552 18.133 20.991 C 18.191 21.109 18.298 21.217 18.428 21.276 C 18.87 21.478 19.312 21.621 19.764 21.741 C 20.539 24.076 21.028 26.507 21.016 28.998 L 21.028 28.998 Z" style="fill: rgb(0, 0, 0); opacity: 1;" transform="matrix(1.0000000000000002, 0, 0, 1, 0, 3.552713678800501e-15)"/>
  <path class="cls-1" d="M 12.279 17.176 C 12.184 17.76 12.114 18.356 12.054 18.941 C 11.732 18.285 11.387 17.653 10.993 17.032 L 10.993 16.984 C 11.054 16.628 11.375 16.389 11.732 16.438 C 12.089 16.497 12.329 16.819 12.279 17.176 Z" style="fill: rgb(0, 0, 0); opacity: 1;" transform="matrix(1.0000000000000002, 0, 0, 1, 0, 3.552713678800501e-15)"/>
  <path class="cls-1" d="M 19.777 21.74 C 19.317 21.632 18.87 21.475 18.442 21.275 C 18.31 21.22 18.205 21.117 18.144 20.99 C 18.119 20.929 18.108 20.872 18.084 20.822 C 17.144 18.343 15.904 15.997 14.676 13.839 C 14.498 13.529 14.605 13.134 14.915 12.957 C 15.224 12.779 15.618 12.887 15.796 13.195 C 17.024 15.353 18.263 17.713 19.229 20.202 C 19.431 20.715 19.61 21.228 19.777 21.74 Z" style="fill: rgb(0, 0, 0); opacity: 1;" transform="matrix(1.0000000000000002, 0, 0, 1, 0, 3.552713678800501e-15)"/>
  <path class="cls-1" d="M 29.096 20.299 C 28.047 21.324 26.7 21.538 25.39 21.74 L 25.27 21.74 C 24.317 21.907 23.293 22.026 22.255 22.026 C 21.422 22.026 20.587 21.943 19.764 21.74 C 19.312 21.632 18.859 21.477 18.429 21.275 C 18.299 21.22 18.193 21.117 18.134 20.99 C 18.1 20.939 18.079 20.881 18.073 20.822 C 18.046 20.686 18.063 20.545 18.119 20.417 C 18.272 20.097 18.651 19.954 18.978 20.096 L 19.229 20.202 C 21.075 20.943 23.221 20.763 25.092 20.475 L 25.21 20.475 C 26.236 20.299 27.153 20.166 27.856 19.666 C 27.392 18.881 26.451 18.236 24.996 17.699 C 23.756 17.247 22.434 16.902 21.159 16.556 C 20.455 16.377 19.503 16.127 18.859 15.399 C 18.442 14.935 18.239 14.352 18.084 13.874 L 16.595 9.585 L 16.333 8.834 C 16.155 8.372 16.544 7.891 17.032 7.967 C 17.275 8.004 17.477 8.181 17.547 8.417 L 19.288 13.446 C 19.431 13.839 19.575 14.255 19.812 14.53 C 20.158 14.923 20.765 15.103 21.47 15.294 C 22.779 15.639 24.138 15.983 25.438 16.473 C 27.511 17.236 28.762 18.26 29.263 19.607 C 29.359 19.848 29.297 20.121 29.108 20.299 L 29.096 20.299 Z M 43.836 31.607 C 43.527 32.81 41.941 33.549 40.596 34.062 C 40.287 34.945 39.344 35.48 38.427 35.337 C 38.332 35.97 38.772 36.505 38.57 37.232 C 38.32 38.423 36.949 38.054 36.137 38.185 C 35.244 38.246 35.162 36.825 36.067 36.791 L 37.224 36.73 C 36.771 35.455 37.032 33.705 38.748 33.967 C 39.308 33.931 39.296 33.192 40.429 32.715 C 41.131 32.251 42.42 31.726 42.478 31.273 C 41.298 27.591 35.876 24.826 32.099 24.898 C 31.371 25.899 31.848 28.663 31.693 29.427 C 31.515 30.285 31.324 31.176 30.942 32.036 C 30.489 33.049 29.751 33.729 29 34.277 C 28.334 34.765 27.856 35.265 27.033 35.611 C 25.425 36.48 21.815 36.863 24.889 38.995 C 25.581 39.484 24.866 40.593 24.138 40.163 C 21.944 38.876 21.47 36.219 24.138 35.325 L 26.497 34.324 C 27.177 34.026 27.773 33.453 28.572 32.907 C 29.989 31.94 29.978 30.654 30.323 29.164 C 30.251 27.473 30.192 26.698 30.477 25.196 C 30.596 24.612 31.061 23.503 32.003 23.503 C 36.174 23.397 40.762 25.91 43.146 29.295 C 43.778 30.202 44.003 30.928 43.836 31.595 L 43.836 31.607 Z" style="fill: rgb(0, 0, 0); opacity: 1;" transform="matrix(1.0000000000000002, 0, 0, 1, 0, 3.552713678800501e-15)"/>
  <path class="cls-1" d="M 38.7 31.655 C 39.451 32.108 42.264 32.405 42.146 31.106 C 41.919 30.047 40.596 30.809 39.905 30.605 C 38.13 30.271 39.391 28.222 36.353 28.104 C 35.316 28.104 34.303 27.461 34.005 26.435 C 33.768 25.564 32.397 25.97 32.672 26.829 C 33.052 28.104 34.196 29.142 35.508 29.391 C 36.055 29.521 37.02 29.437 37.343 29.807 C 37.665 30.461 37.926 31.299 38.69 31.644 L 38.7 31.655 Z M 28.19 43.059 C 30.525 44.096 33.017 46.23 35.745 45.384 C 36.674 45.096 37.152 44.203 37.116 43.37 L 37.354 37.793 C 37.368 37.409 37.071 37.085 36.687 37.066 C 36.303 37.051 35.979 37.35 35.96 37.732 L 35.722 43.309 C 35.722 43.727 35.698 43.917 35.256 44.072 C 33.041 44.859 26.224 40.426 24.603 38.841 C 24.321 38.579 23.882 38.59 23.613 38.865 C 22.53 40.056 27.333 42.475 28.19 43.047 L 28.19 43.059 Z M 34.398 35.695 C 35.281 36.219 35.864 34.409 36.27 33.954 C 36.47 33.628 36.377 33.201 36.055 32.989 C 35.162 32.392 34.554 34.24 34.148 34.706 C 33.936 35.043 34.05 35.489 34.398 35.683 L 34.398 35.695 Z M 31.563 34.146 C 32.754 34.789 33.994 31.31 32.492 31.237 C 31.49 31.273 31.967 32.573 31.359 33.085 C 31.079 33.424 31.177 33.934 31.563 34.146 Z M 38.736 26.555 C 40.797 27.27 39.952 21.562 39.285 20.608 C 38.939 19.774 37.639 20.333 38.01 21.157 C 38.677 22.721 38.772 24.474 38.273 26.103 C 38.176 26.424 38.45 26.399 38.736 26.555 Z" style="fill: rgb(0, 0, 0); opacity: 1;" transform="matrix(1.0000000000000002, 0, 0, 1, 0, 3.552713678800501e-15)"/>
  <path class="cls-1" d="M 28.63 44.621 C 29.036 44.859 29.597 44.586 29.654 44.108 C 29.727 43.56 30.049 42.511 29.202 42.392 C 28.822 42.329 28.466 42.593 28.416 42.975 C 28.381 43.44 28.047 44.345 28.63 44.609 L 28.63 44.621 Z" style="fill: rgb(0, 0, 0); opacity: 1;" transform="matrix(1.0000000000000002, 0, 0, 1, 0, 3.552713678800501e-15)"/>
  <path class="cls-1" d="M 27.333 44.132 C 27.668 44.319 28.09 44.194 28.273 43.858 C 28.511 43.335 29.395 42.31 28.559 41.879 C 28.224 41.693 27.801 41.816 27.619 42.154 C 27.379 42.679 26.497 43.703 27.333 44.132 Z" style="fill: rgb(0, 0, 0); opacity: 1;" transform="matrix(1.0000000000000002, 0, 0, 1, 0, 3.552713678800501e-15)"/>
  <path class="cls-1" d="M 26.308 43.572 C 26.938 43.977 27.464 43.025 27.82 42.654 C 28.069 42.364 28.036 41.929 27.748 41.677 C 27.094 41.093 26.485 42.094 26.117 42.511 C 25.83 42.844 25.925 43.37 26.308 43.572 Z M 39.154 25.135 C 37.152 21.632 42.979 21.644 44.469 22.252 C 45.433 22.539 50.998 25.112 48.819 26.054 C 45.709 26.96 42.109 27.746 39.154 25.135 Z M 44.063 23.589 C 43.169 23.375 40.726 22.956 40.142 23.933 C 40.106 24.028 40.167 24.183 40.262 24.29 C 42.086 25.803 44.897 25.697 47.007 25.101 C 46.078 24.467 45.1 23.908 44.051 23.589 L 44.063 23.589 Z M 29.715 41.308 C 32.265 42.141 32.516 41.213 34.637 43.894 C 34.882 44.188 35.319 44.231 35.615 43.988 C 36.771 43.025 33.087 40.354 32.193 40.39 C 31.085 40.223 30.18 40.39 29.751 39.221 C 29.441 38.268 25.235 36.111 24.912 37.612 C 24.827 37.989 25.063 38.362 25.438 38.446 C 28.917 39.186 27.809 39.699 29.704 41.308 L 29.715 41.308 Z" style="fill: rgb(0, 0, 0); opacity: 1;" transform="matrix(1.0000000000000002, 0, 0, 1, 0, 3.552713678800501e-15)"/>
</svg>