<svg viewBox="0 0 50 50" style="shape-rendering:geometricprecision"
    xmlns="http://www.w3.org/2000/svg">
    <path class="cls-1"
        d="M13.596 7.994c-.065 0-.131 0-.197-.026-.382-.105-.593-.513-.487-.895a12.526 12.526 0 0 1 2.106-4.134 9.938 9.938 0 0 0-1.527-1.357 15.272 15.272 0 0 0-2.528 5.662.724.724 0 0 1-.856.553.724.724 0 0 1-.553-.856A16.849 16.849 0 0 1 12.451.555c.29-.395.632-.579 1.014-.553.289.014.487.158.592.224.843.58 1.62 1.264 2.278 2.041.066.079.211.237.25.5.053.395-.171.685-.25.777a11.157 11.157 0 0 0-2.054 3.911.714.714 0 0 1-.685.513v.026z"
        style="fill:#000; opacity: 0.5;" />
    <path class="cls-1"
        d="M11.911 49.468c-.382 1.093-1.448.251-1.909-.302C-.966 39.936-4.139 14.801 8.659 5.94c.619-.355 2.001-1.382 2.515-.355a.701.701 0 0 1-.422.922C-1.742 11.799.667 39.896 10.028 47.296c.356.237.632.764.487-.053-.316-3.555-1.382-7.939-2.435-11.204-.988-3.634-2.568-18.13-.079-20.487a.724.724 0 0 1 .737.829 52.018 52.018 0 0 0 .658 18.986c1.37 4.911 2.805 9.124 2.502 14.128l.013-.027z"
        style="fill:#000; opacity: 0.5;" />
    <path class="cls-1"
        d="M19.99 28.24c-.01 2.8-.76 5.5-1.49 8.11-.06.21-.23.36-.45.39h-.08a.57.57 0 0 1-.46-.25 15.857 15.857 0 0 1-2.14-5.51c-.16-.69-.29-1.3-.3-1.41-.42-3.12-1.07-6.62-2.61-9.77.05-.5.12-.99.19-1.48.05-.3-.16-.57-.46-.62-.3-.05-.57.16-.62.46v.04a8.8 8.8 0 0 0-.42-.64l-.48-.69a.546.546 0 1 1 .9-.62l.48.69c2.63 3.82 3.54 8.39 4.09 12.38.14.59.24 1.08.26 1.18.24 1.48.72 2.94 1.4 4.28.58-2.14 1.09-4.34 1.1-6.55.01-2.3-.53-4.56-1.34-6.71.05.1.14.19.25.24.37.17.74.29 1.12.39.65 1.96 1.06 4 1.05 6.09z"
        style="fill:#000; opacity: 0.5;" transform="matrix(1.31663 0 0 1.31663 -7.918 -7.765)" />
    <path class="cls-1"
        d="M12.65 18.32c-.08.49-.14.99-.19 1.48-.27-.55-.56-1.08-.89-1.6v-.04c.05-.3.32-.5.62-.46.3.05.5.32.46.62z"
        style="fill:#000; opacity: 0.5;" transform="matrix(1.31663 0 0 1.31663 -7.918 -7.765)" />
    <path class="cls-1"
        d="M17.02 21.398a7.548 7.548 0 0 1-1.475-.514.642.642 0 0 1-.329-.316c-.027-.066-.04-.131-.066-.184-1.04-2.739-2.409-5.332-3.766-7.716a.712.712 0 0 1 .264-.974.713.713 0 0 1 .974.263c1.356 2.384 2.725 4.991 3.792 7.742.224.566.421 1.133.606 1.699z"
        style="fill:#000; opacity: 0.5;" />
    <path class="cls-1"
        d="M27.316 19.805c-1.159 1.132-2.647 1.369-4.095 1.593h-.132c-1.053.184-2.185.316-3.331.316-.921 0-1.843-.092-2.752-.316-.5-.119-1-.29-1.474-.514a.638.638 0 0 1-.329-.316.428.428 0 0 1-.066-.184.759.759 0 0 1 .052-.448.73.73 0 0 1 .948-.355l.277.118c2.041.817 4.411.619 6.478.303h.131c1.133-.197 2.147-.342 2.923-.895-.513-.869-1.553-1.58-3.16-2.173-1.369-.5-2.83-.882-4.239-1.264-.777-.197-1.83-.474-2.541-1.277-.461-.513-.685-1.158-.856-1.685l-1.646-4.74-.289-.829a.71.71 0 1 1 1.342-.461l1.923 5.556c.158.434.316.895.579 1.198.382.435 1.053.632 1.83.843 1.448.382 2.949.763 4.385 1.303 2.291.843 3.673 1.975 4.226 3.463a.696.696 0 0 1-.171.764h-.013zM43.602 32.299c-.342 1.33-2.093 2.147-3.581 2.713-.342.974-1.382 1.567-2.396 1.409-.105.697.382 1.29.158 2.093-.277 1.317-1.791.908-2.686 1.053-.988.066-1.08-1.501-.079-1.54l1.277-.066c-.5-1.409-.211-3.344 1.685-3.055.619-.039.606-.855 1.857-1.382.777-.514 2.199-1.093 2.264-1.593-1.303-4.069-7.294-7.123-11.467-7.044-.804 1.106-.277 4.16-.448 5.003-.198.948-.408 1.935-.83 2.883-.5 1.12-1.316 1.87-2.146 2.476-.737.54-1.264 1.093-2.172 1.474-1.778.961-5.767 1.383-2.37 3.74.764.539-.026 1.764-.83 1.29-2.422-1.422-2.949-4.358 0-5.346l2.607-1.106c.751-.329 1.409-.961 2.291-1.566 1.567-1.067 1.554-2.489 1.936-4.135-.079-1.869-.145-2.725.171-4.384.132-.645.645-1.87 1.685-1.87 4.608-.118 9.677 2.66 12.311 6.399.698 1.001.948 1.804.763 2.541v.013z"
        style="fill:#000; opacity: 0.5;" />
    <path class="cls-1"
        d="M37.928 32.352c.829.5 3.936.83 3.805-.606-.25-1.171-1.712-.329-2.475-.553-1.962-.368-.567-2.633-3.924-2.764-1.146 0-2.265-.711-2.594-1.844-.263-.961-1.777-.513-1.474.435.421 1.409 1.685 2.554 3.133 2.831.606.144 1.672.052 2.028.46.355.724.645 1.646 1.488 2.028l.013.013zM26.315 44.952c2.581 1.146 5.332 3.503 8.347 2.568 1.027-.316 1.554-1.304 1.515-2.225l.263-6.162a.776.776 0 0 0-.737-.803.777.777 0 0 0-.804.737l-.263 6.162c0 .461-.026.671-.513.842-2.449.869-9.98-4.028-11.771-5.78a.784.784 0 0 0-1.093.027c-1.198 1.316 4.108 3.989 5.056 4.621v.013zM33.175 36.816c.974.579 1.619-1.422 2.067-1.923a.784.784 0 0 0-.237-1.066c-.988-.659-1.659 1.382-2.107 1.896a.767.767 0 0 0 .277 1.079v.014zM30.041 35.104c1.317.711 2.686-3.134 1.027-3.213-1.106.04-.579 1.475-1.251 2.041a.773.773 0 0 0 .224 1.172zM37.967 26.717c2.278.79 1.343-5.517.606-6.57-.382-.922-1.817-.303-1.409.606a7.964 7.964 0 0 1 .29 5.464c-.106.355.197.329.513.5z"
        style="fill:#000; opacity: 0.5;" />
    <path class="cls-1"
        d="M26.802 46.677c.448.263 1.067-.039 1.132-.566.079-.606.435-1.764-.5-1.896a.754.754 0 0 0-.869.645c-.039.514-.408 1.514.237 1.804v.013z"
        style="fill:#000; opacity: 0.5;" />
    <path class="cls-1"
        d="M25.367 46.137a.76.76 0 0 0 1.04-.303c.263-.579 1.238-1.711.316-2.185a.76.76 0 0 0-1.04.303c-.263.579-1.238 1.711-.316 2.185z"
        style="fill:#000; opacity: 0.5;" />
    <path class="cls-1"
        d="M24.235 45.518c.698.448 1.277-.605 1.672-1.013a.77.77 0 0 0-.079-1.08c-.724-.645-1.396.461-1.804.922-.316.368-.211.948.211 1.171zM38.428 25.15c-2.212-3.871 4.226-3.858 5.872-3.186 1.067.316 7.215 3.16 4.806 4.2-3.436 1.001-7.413 1.87-10.678-1.014zm5.425-1.711c-.988-.237-3.687-.698-4.332.381-.04.106.026.277.131.395 2.015 1.672 5.122 1.554 7.453.896-1.027-.698-2.107-1.317-3.266-1.672h.014zM28 43.017c2.818.921 3.094-.105 5.438 2.857a.77.77 0 0 0 1.08.105c1.277-1.066-2.792-4.015-3.779-3.976-1.225-.184-2.225 0-2.699-1.29-.343-1.054-4.99-3.437-5.346-1.778a.772.772 0 0 0 .58.922c3.844.816 2.62 1.382 4.713 3.16H28z"
        style="fill:#000; opacity: 0.5;" />
</svg>