<?xml version="1.0" encoding="utf-8"?>
<svg viewBox="2.6912 1.9152 49.3482 50.0259" width="49.3482" height="50.0259" xmlns="http://www.w3.org/2000/svg">
  <path class="cls-1" d="M 15.955 9.913 C 15.89 9.913 15.824 9.913 15.759 9.887 C 15.375 9.782 15.164 9.374 15.271 8.992 C 15.707 7.494 16.425 6.092 17.378 4.856 C 16.917 4.351 16.406 3.897 15.851 3.498 C 14.63 5.192 13.768 7.122 13.319 9.162 C 13.235 9.549 12.852 9.799 12.464 9.716 C 12.076 9.63 11.829 9.249 11.912 8.86 C 12.419 6.552 13.406 4.374 14.811 2.47 C 15.1 2.075 15.442 1.89 15.824 1.918 C 16.113 1.93 16.313 2.075 16.416 2.141 C 17.26 2.719 18.036 3.406 18.697 4.183 C 18.761 4.261 18.908 4.421 18.947 4.683 C 18.999 5.079 18.776 5.369 18.697 5.462 C 17.757 6.615 17.058 7.946 16.641 9.374 C 16.552 9.678 16.273 9.887 15.955 9.887 L 15.955 9.913 Z" style="fill: rgb(0, 0, 0); opacity: 1;" transform="matrix(1.0000000000000002, 0, 0, 1, 0, 1.7763568394002505e-15)"/>
  <path class="cls-1" d="M 14.267 51.408 C 13.886 52.503 12.821 51.66 12.361 51.107 C 1.387 41.874 -1.79 16.721 11.016 7.858 C 11.636 7.503 13.017 6.476 13.533 7.503 C 13.679 7.874 13.487 8.295 13.109 8.426 C 0.607 13.722 3.018 41.833 12.385 49.236 C 12.742 49.475 13.017 50 12.872 49.184 C 12.557 45.625 11.491 41.239 10.436 37.974 C 9.447 34.338 7.866 19.832 10.357 17.475 C 10.809 17.463 11.161 17.858 11.093 18.305 C 10.146 24.622 10.369 31.061 11.752 37.302 C 13.123 42.214 14.56 46.43 14.257 51.436 L 14.267 51.408 Z" style="fill: rgb(0, 0, 0); opacity: 1;" transform="matrix(1.0000000000000002, 0, 0, 1, 0, 1.7763568394002505e-15)"/>
  <path class="cls-1" d="M 20.764 31.348 C 20.75 35.035 19.762 38.593 18.801 42.031 C 18.722 42.308 18.498 42.506 18.207 42.546 L 18.102 42.546 C 17.859 42.542 17.634 42.417 17.497 42.216 C 16.109 39.995 15.154 37.532 14.677 34.957 C 14.468 34.047 14.294 33.244 14.282 33.1 C 13.73 28.99 12.872 24.378 10.844 20.23 C 10.91 19.57 11.003 18.925 11.092 18.279 C 11.161 17.883 10.883 17.529 10.487 17.463 C 10.094 17.397 9.737 17.673 9.67 18.068 L 9.67 18.119 C 9.499 17.833 9.314 17.551 9.118 17.278 L 8.486 16.37 C 8.171 15.912 8.467 15.288 9.02 15.242 C 9.277 15.223 9.525 15.339 9.67 15.552 L 10.303 16.461 C 13.769 21.495 14.967 27.513 15.692 32.77 C 15.875 33.546 16.008 34.193 16.034 34.327 C 16.351 36.272 16.984 38.198 17.88 39.962 C 18.641 37.143 19.313 34.246 19.328 31.335 C 19.34 28.303 18.63 25.327 17.563 22.496 C 17.628 22.628 17.746 22.746 17.889 22.811 C 18.378 23.034 18.866 23.193 19.366 23.325 C 20.223 25.906 20.764 28.594 20.75 31.348 L 20.764 31.348 Z" style="fill: rgb(0, 0, 0); opacity: 1;" transform="matrix(1.0000000000000002, 0, 0, 1, 0, 1.7763568394002505e-15)"/>
  <path class="cls-1" d="M 11.092 18.279 C 10.988 18.925 10.91 19.583 10.844 20.23 C 10.487 19.505 10.106 18.806 9.67 18.119 L 9.67 18.068 C 9.737 17.673 10.094 17.408 10.487 17.463 C 10.883 17.529 11.147 17.883 11.092 18.279 Z" style="fill: rgb(0, 0, 0); opacity: 1;" transform="matrix(1.0000000000000002, 0, 0, 1, 0, 1.7763568394002505e-15)"/>
  <path class="cls-1" d="M 19.381 23.324 C 18.873 23.204 18.378 23.031 17.905 22.81 C 17.759 22.749 17.644 22.636 17.577 22.495 C 17.548 22.427 17.537 22.365 17.509 22.309 C 16.471 19.569 15.1 16.976 13.742 14.59 C 13.545 14.247 13.664 13.811 14.007 13.616 C 14.348 13.418 14.783 13.538 14.98 13.879 C 16.337 16.263 17.707 18.872 18.776 21.623 C 18.999 22.191 19.197 22.757 19.381 23.324 Z" style="fill: rgb(0, 0, 0); opacity: 1;" transform="matrix(1.0000000000000002, 0, 0, 1, 0, 1.7763568394002505e-15)"/>
  <path class="cls-1" d="M 29.683 21.731 C 28.524 22.864 27.035 23.101 25.585 23.324 L 25.454 23.324 C 24.4 23.508 23.268 23.64 22.12 23.64 C 21.199 23.64 20.277 23.548 19.366 23.324 C 18.866 23.204 18.366 23.033 17.89 22.81 C 17.747 22.749 17.63 22.636 17.565 22.495 C 17.526 22.439 17.504 22.374 17.498 22.309 C 17.467 22.159 17.487 22.002 17.548 21.861 C 17.718 21.508 18.136 21.35 18.498 21.507 L 18.776 21.623 C 20.816 22.444 23.187 22.243 25.256 21.926 L 25.388 21.926 C 26.522 21.731 27.535 21.583 28.312 21.032 C 27.799 20.163 26.759 19.45 25.151 18.858 C 23.78 18.357 22.318 17.976 20.908 17.594 C 20.131 17.395 19.078 17.12 18.366 16.315 C 17.905 15.802 17.681 15.157 17.509 14.628 L 15.863 9.887 L 15.574 9.057 C 15.378 8.546 15.806 8.015 16.346 8.099 C 16.615 8.139 16.838 8.335 16.917 8.597 L 18.84 14.156 C 18.999 14.59 19.158 15.051 19.421 15.353 C 19.803 15.788 20.473 15.988 21.252 16.198 C 22.699 16.579 24.202 16.959 25.639 17.502 C 27.931 18.345 29.314 19.477 29.867 20.966 C 29.973 21.233 29.905 21.535 29.695 21.731 L 29.683 21.731 Z M 45.978 34.232 C 45.635 35.562 43.883 36.378 42.396 36.945 C 42.053 37.921 41.012 38.513 39.997 38.355 C 39.893 39.054 40.379 39.646 40.155 40.45 C 39.88 41.766 38.364 41.359 37.467 41.504 C 36.479 41.571 36.388 40 37.389 39.962 L 38.669 39.895 C 38.167 38.486 38.455 36.551 40.352 36.841 C 40.972 36.801 40.958 35.984 42.211 35.458 C 42.987 34.944 44.412 34.363 44.476 33.863 C 43.171 29.791 37.177 26.736 33.004 26.815 C 32.197 27.922 32.725 30.977 32.553 31.823 C 32.357 32.77 32.146 33.755 31.723 34.707 C 31.223 35.825 30.408 36.577 29.578 37.183 C 28.84 37.724 28.312 38.275 27.402 38.658 C 25.624 39.619 21.634 40.042 25.032 42.399 C 25.797 42.94 25.007 44.165 24.202 43.69 C 21.776 42.267 21.252 39.33 24.202 38.342 L 26.81 37.235 C 27.561 36.905 28.22 36.272 29.104 35.669 C 30.671 34.6 30.658 33.178 31.039 31.531 C 30.959 29.662 30.895 28.806 31.209 27.144 C 31.341 26.499 31.854 25.274 32.896 25.274 C 37.507 25.156 42.58 27.933 45.213 31.675 C 45.913 32.679 46.161 33.481 45.978 34.218 L 45.978 34.232 Z" style="fill: rgb(0, 0, 0); opacity: 1;" transform="matrix(1.0000000000000002, 0, 0, 1, 0, 1.7763568394002505e-15)"/>
  <path class="cls-1" d="M 40.299 34.285 C 41.129 34.786 44.24 35.114 44.109 33.678 C 43.858 32.508 42.396 33.35 41.631 33.125 C 39.67 32.754 41.062 30.489 37.705 30.36 C 36.559 30.36 35.439 29.648 35.109 28.514 C 34.848 27.551 33.332 27.999 33.636 28.95 C 34.056 30.36 35.32 31.506 36.77 31.782 C 37.375 31.926 38.443 31.833 38.798 32.242 C 39.156 32.965 39.443 33.891 40.289 34.272 L 40.299 34.285 Z M 28.681 46.892 C 31.263 48.037 34.017 50.396 37.033 49.462 C 38.06 49.143 38.588 48.156 38.548 47.235 L 38.812 41.07 C 38.826 40.646 38.499 40.287 38.073 40.267 C 37.65 40.25 37.29 40.58 37.271 41.002 L 37.007 47.167 C 37.007 47.63 36.98 47.84 36.492 48.011 C 34.044 48.881 26.508 43.98 24.716 42.228 C 24.404 41.938 23.919 41.951 23.621 42.256 C 22.424 43.572 27.734 46.245 28.681 46.878 L 28.681 46.892 Z M 35.543 38.751 C 36.52 39.33 37.165 37.329 37.613 36.827 C 37.834 36.466 37.732 35.994 37.375 35.759 C 36.388 35.099 35.717 37.142 35.269 37.657 C 35.034 38.031 35.159 38.524 35.543 38.737 L 35.543 38.751 Z M 32.41 37.039 C 33.727 37.749 35.098 33.903 33.437 33.823 C 32.329 33.863 32.856 35.299 32.184 35.865 C 31.876 36.24 31.984 36.804 32.41 37.039 Z M 40.338 28.646 C 42.618 29.437 41.685 23.128 40.946 22.072 C 40.564 21.151 39.127 21.769 39.537 22.68 C 40.274 24.408 40.379 26.346 39.827 28.147 C 39.72 28.502 40.023 28.475 40.338 28.646 Z" style="fill: rgb(0, 0, 0); opacity: 1;" transform="matrix(1.0000000000000002, 0, 0, 1, 0, 1.7763568394002505e-15)"/>
  <path class="cls-1" d="M 29.167 48.618 C 29.617 48.881 30.237 48.579 30.299 48.052 C 30.38 47.445 30.735 46.285 29.8 46.153 C 29.38 46.084 28.985 46.376 28.931 46.798 C 28.893 47.313 28.524 48.312 29.167 48.604 L 29.167 48.618 Z" style="fill: rgb(0, 0, 0); opacity: 1;" transform="matrix(1.0000000000000002, 0, 0, 1, 0, 1.7763568394002505e-15)"/>
  <path class="cls-1" d="M 27.734 48.077 C 28.105 48.283 28.571 48.146 28.773 47.775 C 29.036 47.197 30.013 46.063 29.09 45.586 C 28.719 45.382 28.252 45.517 28.05 45.891 C 27.784 46.472 26.81 47.604 27.734 48.077 Z" style="fill: rgb(0, 0, 0); opacity: 1;" transform="matrix(1.0000000000000002, 0, 0, 1, 0, 1.7763568394002505e-15)"/>
  <path class="cls-1" d="M 26.601 47.458 C 27.297 47.905 27.879 46.854 28.272 46.444 C 28.548 46.123 28.511 45.641 28.192 45.363 C 27.469 44.717 26.797 45.824 26.389 46.285 C 26.073 46.654 26.178 47.235 26.601 47.458 Z M 40.802 27.077 C 38.588 23.204 45.029 23.218 46.676 23.889 C 47.742 24.208 53.893 27.052 51.485 28.093 C 48.047 29.094 44.068 29.963 40.802 27.077 Z M 46.228 25.368 C 45.24 25.132 42.539 24.669 41.894 25.749 C 41.853 25.854 41.921 26.026 42.027 26.143 C 44.042 27.816 47.15 27.698 49.483 27.039 C 48.455 26.338 47.374 25.721 46.216 25.368 L 46.228 25.368 Z M 30.368 44.955 C 33.186 45.876 33.464 44.851 35.807 47.815 C 36.079 48.139 36.562 48.186 36.89 47.919 C 38.167 46.854 34.095 43.902 33.107 43.941 C 31.882 43.755 30.882 43.941 30.408 42.648 C 30.064 41.595 25.415 39.21 25.057 40.869 C 24.963 41.286 25.225 41.698 25.639 41.792 C 29.485 42.609 28.259 43.177 30.354 44.955 L 30.368 44.955 Z" style="fill: rgb(0, 0, 0); opacity: 1;" transform="matrix(1.0000000000000002, 0, 0, 1, 0, 1.7763568394002505e-15)"/>
</svg>