<svg viewBox="0 0 50 50" width="50" height="50" xmlns="http://www.w3.org/2000/svg">
  <defs>
    <style>
      .cls-1 { fill: #000;
      opacity: 0.5;
      }
    </style>
  </defs>
  <g
    transform="matrix(1.3166329860687256, 0, 0, 1.3166329860687256, -7.91743898391724, -7.765665054321289)">
    <path class="cls-1"
      d="m16.34,11.97c-.05,0-.1,0-.15-.02-.29-.08-.45-.39-.37-.68.33-1.13.88-2.21,1.6-3.14-.35-.38-.74-.73-1.16-1.03-.92,1.28-1.59,2.76-1.92,4.3-.06.29-.35.48-.65.42-.29-.06-.48-.35-.42-.65.38-1.74,1.14-3.42,2.2-4.85.22-.3.48-.44.77-.42.22.01.37.12.45.17.64.44,1.23.96,1.73,1.55.05.06.16.18.19.38.04.3-.13.52-.19.59-.71.87-1.25,1.9-1.56,2.97-.07.24-.29.39-.52.39Z" />
    <path class="cls-1"
      d="m15.06,43.47c-.29.83-1.1.19-1.45-.23-8.33-7.01-10.74-26.1-1.02-32.83.47-.27,1.52-1.05,1.91-.27.11.28-.03.6-.32.7-9.49,4.02-7.66,25.36-.55,30.98.27.18.48.58.37-.04-.24-2.7-1.05-6.03-1.85-8.51-.75-2.76-1.95-13.77-.06-15.56.35-.01.61.3.56.63-.72,4.77-.55,9.73.5,14.42,1.04,3.73,2.13,6.93,1.9,10.73Z" />
    <g>
      <path class="cls-1"
        d="m19.99,28.24c-.01,2.8-.76,5.5-1.49,8.11-.06.21-.23.36-.45.39-.03,0-.05,0-.08,0-.18,0-.36-.1-.46-.25-1.05-1.67-1.78-3.57-2.14-5.51h0c-.16-.69-.29-1.3-.3-1.41-.42-3.12-1.07-6.62-2.61-9.77.05-.5.12-.99.19-1.48.05-.3-.16-.57-.46-.62-.3-.05-.57.16-.62.46,0,.01,0,.03,0,.04-.13-.22-.27-.43-.42-.64l-.48-.69c-.17-.25-.11-.59.14-.76s.59-.11.76.14l.48.69c2.63,3.82,3.54,8.39,4.09,12.38h0c.14.59.24,1.08.26,1.18.24,1.48.72,2.94,1.4,4.28.58-2.14,1.09-4.34,1.1-6.55.01-2.3-.53-4.56-1.34-6.71.05.1.14.19.25.24.37.17.74.29,1.12.39.65,1.96,1.06,4,1.05,6.09Z" />
      <path class="cls-1"
        d="m12.65,18.32c-.08.49-.14.99-.19,1.48-.27-.55-.56-1.08-.89-1.6,0-.01,0-.03,0-.04.05-.3.32-.5.62-.46.3.05.5.32.46.62Z" />
    </g>
    <path class="cls-1"
      d="m18.94,22.15c-.38-.09-.76-.22-1.12-.39-.11-.05-.2-.13-.25-.24,0,0,0,0,0,0-.02-.05-.03-.1-.05-.14h0c-.79-2.08-1.83-4.05-2.86-5.86-.15-.26-.06-.59.2-.74.26-.15.59-.06.74.2,1.03,1.81,2.07,3.79,2.88,5.88.17.43.32.86.46,1.29Z" />
    <path class="cls-1"
      d="m26.76,20.94c-.88.86-2.01,1.04-3.11,1.21h-.1c-.8.14-1.66.24-2.53.24-.7,0-1.4-.07-2.09-.24-.38-.09-.76-.22-1.12-.39-.11-.05-.2-.13-.25-.24,0,0,0,0,0,0-.03-.04-.04-.09-.05-.14h0c-.02-.11-.01-.23.04-.34.13-.27.45-.39.72-.27.07.03.14.06.21.09,1.55.62,3.35.47,4.92.23h.1c.86-.15,1.63-.26,2.22-.68-.39-.66-1.18-1.2-2.4-1.65-1.04-.38-2.15-.67-3.22-.96-.59-.15-1.39-.36-1.93-.97-.35-.39-.52-.88-.65-1.28l-1.25-3.6-.22-.63c-.1-.28.05-.59.33-.69.28-.1.59.05.69.34h0s1.46,4.22,1.46,4.22c.12.33.24.68.44.91.29.33.8.48,1.39.64,1.1.29,2.24.58,3.33.99,1.74.64,2.79,1.5,3.21,2.63.08.2.03.43-.13.58Z" />
  </g>
  <g
    transform="matrix(1.3166329860687256, 0, 0, 1.3166329860687256, -7.91743898391724, -7.765665054321289)">
    <path class="cls-1"
      d="m39.13,30.43c-.26,1.01-1.59,1.63-2.72,2.06-.26.74-1.05,1.19-1.82,1.07-.08.53.29.98.12,1.59-.21,1-1.36.69-2.04.8-.75.05-.82-1.14-.06-1.17,0,0,.97-.05.97-.05-.38-1.07-.16-2.54,1.28-2.32.47-.03.46-.65,1.41-1.05.59-.39,1.67-.83,1.72-1.21-.99-3.09-5.54-5.41-8.71-5.35-.61.84-.21,3.16-.34,3.8-.15.72-.31,1.47-.63,2.19-.38.85-1,1.42-1.63,1.88-.56.41-.96.83-1.65,1.12-1.35.73-4.38,1.05-1.8,2.84.58.41-.02,1.34-.63.98-1.84-1.08-2.24-3.31,0-4.06,0,0,1.98-.84,1.98-.84.57-.25,1.07-.73,1.74-1.19,1.19-.81,1.18-1.89,1.47-3.14-.06-1.42-.11-2.07.13-3.33.1-.49.49-1.42,1.28-1.42,3.5-.09,7.35,2.02,9.35,4.86.53.76.72,1.37.58,1.93Z" />
    <path class="cls-1"
      d="m34.82,30.47c.63.38,2.99.63,2.89-.46-.19-.89-1.3-.25-1.88-.42-1.49-.28-.43-2-2.98-2.1-.87,0-1.72-.54-1.97-1.4-.2-.73-1.35-.39-1.12.33.32,1.07,1.28,1.94,2.38,2.15.46.11,1.27.04,1.54.35.27.55.49,1.25,1.13,1.54Z" />
    <path class="cls-1"
      d="m26,40.04c1.96.87,4.05,2.66,6.34,1.95.78-.24,1.18-.99,1.15-1.69,0,0,.2-4.68.2-4.68.01-.32-.24-.6-.56-.61-.32-.01-.6.24-.61.56l-.2,4.68c0,.35-.02.51-.39.64-1.86.66-7.58-3.06-8.94-4.39-.23-.22-.6-.21-.83.02-.91,1,3.12,3.03,3.84,3.51Z" />
    <path class="cls-1"
      d="m31.21,33.86c.74.44,1.23-1.08,1.57-1.46.17-.27.09-.63-.18-.81-.75-.5-1.26,1.05-1.6,1.44-.18.28-.08.66.21.82Z" />
    <path class="cls-1"
      d="m28.83,32.56c1,.54,2.04-2.38.78-2.44-.84.03-.44,1.12-.95,1.55-.24.28-.15.72.17.89Z" />
    <path class="cls-1"
      d="m34.85,26.19c1.73.6,1.02-4.19.46-4.99-.29-.7-1.38-.23-1.07.46.56,1.29.64,2.8.22,4.15-.08.27.15.25.39.38Z" />
    <path class="cls-1"
      d="m26.37,41.35c.34.2.81-.03.86-.43.06-.46.33-1.34-.38-1.44-.32-.05-.62.17-.66.49-.03.39-.31,1.15.18,1.37Z" />
    <path class="cls-1"
      d="m25.28,40.94c.28.16.64.05.79-.23.2-.44.94-1.3.24-1.66-.28-.16-.64-.05-.79.23-.2.44-.94,1.3-.24,1.66Z" />
    <path class="cls-1"
      d="m24.42,40.47c.53.34.97-.46,1.27-.77.21-.24.18-.61-.06-.82-.55-.49-1.06.35-1.37.7-.24.28-.16.72.16.89Z" />
    <path class="cls-1"
      d="m35.2,25c-1.68-2.94,3.21-2.93,4.46-2.42.81.24,5.48,2.4,3.65,3.19-2.61.76-5.63,1.42-8.11-.77Zm4.12-1.3c-.75-.18-2.8-.53-3.29.29-.03.08.02.21.1.3,1.53,1.27,3.89,1.18,5.66.68-.78-.53-1.6-1-2.48-1.27Z" />
    <path class="cls-1"
      d="m27.28,38.57c2.14.7,2.35-.08,4.13,2.17.21.25.57.28.82.08.97-.81-2.12-3.05-2.87-3.02-.93-.14-1.69,0-2.05-.98-.26-.8-3.79-2.61-4.06-1.35-.07.32.13.63.44.7,2.92.62,1.99,1.05,3.58,2.4Z" />
  </g>
</svg>