<svg viewBox="0 0 50 50" width="50" height="50" xmlns="http://www.w3.org/2000/svg">
  <defs>
    <style>
      .cls-1 { fill: #000; opacity: 0.5; }
    </style>
  </defs>
  <path class="cls-1"
    d="M 17.726 45.657 C 14.022 45.657 10.166 44.911 6.648 42.605 L 6.426 42.453 L 6.368 42.185 C 6.333 42.011 5.459 37.77 7.195 32.365 C 8.791 27.403 12.985 20.483 23.947 15.742 C 29.585 13.307 34.839 10.418 39.23 7.902 C 40.885 6.958 42.527 6.003 44.17 5.048 C 44.997 4.57 45.824 4.093 46.651 3.615 L 46.697 3.58 C 47.758 2.963 48.759 2.38 49.505 2.893 C 50.157 3.347 49.994 4.267 49.948 4.582 C 48.818 11.292 46.977 15.113 44.647 19.947 L 39.918 29.767 C 36.749 36.361 33.464 43.176 25.543 44.748 C 23.166 45.226 20.499 45.634 17.738 45.634 L 17.726 45.657 Z M 7.603 41.65 C 13.299 45.249 20.021 44.527 25.263 43.478 C 32.532 42.022 35.526 35.802 38.694 29.22 L 43.424 19.4 C 45.8 14.472 47.513 10.907 48.62 4.384 C 48.643 4.256 48.654 4.151 48.654 4.081 C 48.317 4.186 47.699 4.547 47.338 4.745 L 47.292 4.78 C 46.464 5.258 45.637 5.735 44.81 6.213 C 43.168 7.168 41.514 8.123 39.859 9.067 C 35.433 11.595 30.144 14.507 24.448 16.965 C 5.797 25.026 7.265 39.541 7.591 41.661 L 7.603 41.65 Z"
    transform="matrix(1, 0, 0, 1, 0, -1.7763568394002505e-15)" />
  <path class="cls-1"
    d="M 1.86 47.206 C 1.114 47.276 0.555 47.521 0.206 46.81 C -0.272 45.878 0.113 44.737 1.044 44.271 C 1.103 44.247 2.594 44.375 4.749 43.339 C 11.948 39.856 28.047 30.525 35.468 20.273 C 36.085 19.423 37.099 17.361 37.949 17.967 C 38.788 18.584 37.308 20.401 36.702 21.252 C 26.533 35.312 3.607 46.496 2.57 47.02 C 2.349 47.136 2.116 47.195 1.883 47.218 L 1.86 47.206 Z"
    transform="matrix(1, 0, 0, 1, 0, -1.7763568394002505e-15)" />
</svg>