<?xml version="1.0" encoding="utf-8"?>
<svg viewBox="1.8644 5.8867 46.6799 41.6452" width="46.6799" height="41.6452" xmlns="http://www.w3.org/2000/svg">
  <path style="fill: rgb(0, 0, 0); opacity: 1;" d="M 18.413 45.994 C 14.955 45.994 11.355 45.298 8.071 43.145 L 7.864 43.003 L 7.81 42.753 C 7.777 42.589 6.961 38.631 8.582 33.585 C 10.072 28.952 13.987 22.491 24.221 18.065 C 29.485 15.793 34.39 13.095 38.49 10.747 C 40.033 9.866 41.568 8.973 43.101 8.081 L 45.418 6.744 L 45.461 6.711 C 46.452 6.135 47.386 5.592 48.082 6.07 C 48.691 6.494 48.539 7.353 48.495 7.646 C 47.44 13.912 45.722 17.479 43.547 21.992 L 39.131 31.16 C 36.173 37.315 33.106 43.678 25.711 45.146 C 23.492 45.592 21.002 45.972 18.425 45.972 L 18.413 45.994 Z M 8.962 42.253 C 14.281 45.613 20.555 44.939 25.449 43.961 C 32.236 42.601 35.032 36.793 37.99 30.648 L 42.405 21.48 C 44.624 16.88 46.222 13.552 47.255 7.461 C 47.277 7.342 47.288 7.245 47.288 7.179 C 46.973 7.277 46.396 7.614 46.059 7.799 L 46.016 7.832 L 43.699 9.169 C 42.166 10.062 40.621 10.953 39.077 11.834 C 34.944 14.193 30.007 16.913 24.688 19.207 C 7.277 26.734 8.647 40.285 8.951 42.264 L 8.962 42.253 Z" transform="matrix(1.0000000000000002, 0, 0, 1, 0, 3.552713678800501e-15)"/>
  <path style="fill: rgb(0, 0, 0); opacity: 1;" d="M 3.601 47.441 C 2.906 47.506 2.382 47.734 2.056 47.072 C 1.611 46.201 1.969 45.136 2.84 44.7 C 2.894 44.678 4.286 44.797 6.298 43.83 C 13.02 40.578 28.05 31.867 34.977 22.296 C 35.553 21.503 36.5 19.578 37.294 20.142 C 38.076 20.719 36.695 22.416 36.129 23.21 C 26.635 36.337 5.232 46.778 4.264 47.267 C 4.057 47.376 3.84 47.429 3.622 47.452 L 3.601 47.441 Z" transform="matrix(1.0000000000000002, 0, 0, 1, 0, 3.552713678800501e-15)"/>
</svg>