<?xml version="1.0" encoding="utf-8"?>
<svg viewBox="0 0 49.9992 50.0003" width="49.9992" height="50.0003"
  xmlns="http://www.w3.org/2000/svg">
  <g id="Layer_x0020_1"
    transform="matrix(0.029292002320289612, 0, 0, 0.03115800209343434, 0.009438000819429249, -1.5798590518073787)">
    <g id="_586314336">
      <path class="fil0"
        d="M1168 523c138,95 229,254 229,434 0,54 -8,106 -23,155 -39,26 -83,51 -135,78 -112,59 -151,153 -141,241 -69,33 -146,52 -227,52 -152,0 -290,-65 -386,-169 -3,-47 -3,-97 0,-155 5,-127 -57,-207 -138,-243 17,-232 186,-422 407,-472 42,20 86,46 135,77 107,68 208,55 279,2z"
        style="fill: rgb(205, 234, 247);" />
      <path class="fil1"
        d="M1168 523c12,8 24,17 35,26l-2 2c-102,81 -228,73 -335,5 -64,-41 -120,-72 -175,-94 20,-7 41,-13 63,-18 42,20 86,46 135,77 107,68 208,55 279,2zm221 525c-4,22 -9,43 -15,64 -39,26 -83,51 -135,78 -112,59 -151,153 -141,241 -13,7 -26,12 -40,18l0 -3c-20,-129 50,-235 162,-293 68,-36 123,-68 169,-105zm-856 311c-17,-14 -33,-29 -48,-45 -3,-47 -3,-97 0,-155 5,-127 -57,-207 -138,-243 1,-14 2,-29 5,-43l2 1c121,48 178,161 173,287 -4,77 -3,140 6,198z"
        style="fill: rgb(187, 224, 243);" />
      <g>
        <path class="fil2"
          d="M394 388c211,-20 323,23 495,133 326,208 597,-344 143,-456 -259,-63 -524,89 -638,323z"
          style="fill: rgb(139, 197, 38);" />
        <path class="fil2"
          d="M617 1654c-123,-173 -141,-291 -132,-495 17,-386 -598,-345 -467,104 75,257 339,409 599,391z"
          style="fill: rgb(139, 197, 38);" />
        <path class="fil2"
          d="M1602 828c-89,193 -181,268 -363,362 -343,179 0,690 323,352 185,-193 186,-498 40,-714z"
          style="fill: rgb(139, 197, 38);" />
      </g>
      <g>
        <path class="fil3"
          d="M1387 550c8,21 -3,45 -24,53 -22,8 -46,-3 -54,-24 0,-1 -105,-293 -478,-298 -23,0 -41,-19 -41,-42 0,-23 19,-42 42,-41 431,5 555,351 555,352z"
          style="fill: rgb(116, 181, 49);" />
        <path class="fil3"
          d="M260 713c15,-17 41,-20 59,-5 18,14 20,41 6,59 -1,0 -201,237 -19,562 11,20 4,46 -16,57 -20,11 -46,4 -57,-16 -210,-376 26,-656 27,-657z"
          style="fill: rgb(116, 181, 49);" />
        <path class="fil3"
          d="M966 1608c-23,-4 -39,-26 -35,-49 4,-22 26,-38 48,-34 1,0 306,55 497,-265 12,-20 37,-26 57,-14 20,11 26,37 15,57 -220,370 -581,305 -582,305z"
          style="fill: rgb(116, 181, 49);" />
      </g>
      <path class="fil2"
        d="M913 999c17,-15 44,-13 59,4 15,18 13,44 -4,59 -12,11 -26,19 -41,24 -14,6 -30,9 -46,9 -36,0 -69,-15 -92,-39l-1 0c-23,-24 -38,-56 -38,-93 0,-36 15,-69 38,-93l1 0c23,-23 56,-38 92,-38 16,0 32,3 46,8l1 0 0 0c14,6 28,14 40,24 17,16 19,42 4,59 -15,18 -42,20 -59,4 -4,-3 -9,-6 -15,-8l0 0c-5,-2 -11,-3 -17,-3 -13,0 -25,5 -33,14 -9,8 -14,20 -14,33 0,14 5,25 14,34 8,9 20,14 33,14 6,0 12,-1 17,-3 6,-2 10,-5 15,-9z"
        style="fill: rgb(139, 197, 38);" />
      <path class="fil2"
        d="M666 832c23,0 42,19 42,42 0,23 -19,42 -42,42l-44 0 0 95 44 0c23,0 42,19 42,42 0,23 -19,42 -42,42l-86 0c-24,0 -42,-19 -42,-42l0 -179c0,-23 18,-42 42,-42l86 0z"
        style="fill: rgb(139, 197, 38);" />
      <path class="fil2"
        d="M580 1005c-24,0 -42,-19 -42,-42 0,-23 18,-42 42,-42l86 0c23,0 42,19 42,42 0,23 -19,42 -42,42l-86 0z"
        style="fill: rgb(139, 197, 38);" />
      <path class="fil2"
        d="M1139 832c37,0 69,15 93,38l0 0c24,24 39,57 39,93 0,37 -15,69 -39,93l0 0c-24,24 -56,39 -93,39 -36,0 -69,-15 -93,-39 0,-1 -1,-1 -2,-2 -22,-24 -36,-56 -36,-91 0,-36 15,-69 38,-93l1 0 -1 0c24,-23 57,-38 93,-38zm34 98c-8,-9 -20,-14 -34,-14 -13,0 -25,5 -33,14l0 0c-9,8 -14,20 -14,33 0,13 5,24 12,32 1,1 1,1 2,2 8,9 20,14 33,14 14,0 26,-5 34,-14 9,-9 14,-20 14,-34 0,-13 -5,-25 -14,-33z"
        style="fill: rgb(139, 197, 38);" />
    </g>
  </g>
</svg>