<svg xmlns="http://www.w3.org/2000/svg" viewBox="0 0 50 50">
    <path style="fill:#000; opacity: 1;"
        d="M18.76 42.65c-3.18 0-6.49-.64-9.51-2.62l-.19-.13-.05-.23c-.03-.15-.78-3.79.71-8.43 1.37-4.26 4.97-10.2 14.38-14.27 4.84-2.09 9.35-4.57 13.12-6.73 1.42-.81 2.83-1.63 4.24-2.45l2.13-1.23.04-.03c.91-.53 1.77-1.03 2.41-.59.56.39.42 1.18.38 1.45-.97 5.76-2.55 9.04-4.55 13.19l-4.06 8.43c-2.72 5.66-5.54 11.51-12.34 12.86-2.04.41-4.33.76-6.7.76zm-8.69-3.44c4.89 3.09 10.66 2.47 15.16 1.57 6.24-1.25 8.81-6.59 11.53-12.24l4.06-8.43c2.04-4.23 3.51-7.29 4.46-12.89.02-.11.03-.2.03-.26-.29.09-.82.4-1.13.57l-.04.03-2.13 1.23c-1.41.82-2.83 1.64-4.25 2.45-3.8 2.17-8.34 4.67-13.23 6.78C8.52 24.94 9.78 37.4 10.06 39.22z" />
    <path style="fill:#000; opacity: 1;"
        d="M5.14 43.98c-.64.06-1.12.27-1.42-.34-.41-.8-.08-1.78.72-2.18.05-.02 1.33.09 3.18-.8 6.18-2.99 20-11 26.37-19.8.53-.73 1.4-2.5 2.13-1.98.72.53-.55 2.09-1.07 2.82-8.73 12.07-28.41 21.67-29.3 22.12-.19.1-.39.15-.59.17z" />
</svg>