<svg id="_Слой_1" data-name="Слой 1" xmlns="http://www.w3.org/2000/svg" viewBox="0 0 50 50">
    <path style="fill:#000; opacity: 1;"
        d="M26.03 43.84c-.34 0-.67-.01-1.01-.04H25s-.06-.01-.09-.02c-.92 0-4.12-.2-5.52-.51-.83-.18-1.7-.43-2.57-.73-.77-.27-1.59-.57-2.33-1.04-2.29-1.44-2.8-4.25-3-6.53-.12-1.45-.11-2.92-.09-4.34 0-.82.02-1.68 0-2.51a85.404 85.404 0 0 1 .4-10.33c.12-1.31.26-2.8 1.41-3.88.24-.23.53-.43.8-.63.19-.14.37-.27.55-.42a.994.994 0 0 1-.57-.63c-.26-.97-.29-1.96-.09-2.87-.06-.35 0-.71.17-1.03.45-.81 1.34-1.02 2-1.17h.04c.78-.19 1.58-.34 2.4-.47 1.9-.29 4.65-.61 6.97-.51 1.78.08 3.39.33 5.1.59l.26.04c.85.13 1.74.28 2.72.46.08.01.16.03.26.04.63.1 1.8.27 1.98 1.32.03.21.02.41-.04.6.02.28 0 .57-.02.82-.01.17-.02.32-.02.46 0 .11.02.23.03.36.02.16.04.32.04.5 0 .48-.25.88-.68 1.13.15.15.32.29.5.43.12.1.25.19.38.29.4.3.81.61 1.15 1.02.5.61.8 1.34.93 2.31.12.91.2 1.84.27 2.73.14 1.66.23 3.32.26 4.95.02 1.08.01 2.18 0 3.24 0 .46-.01.92-.01 1.38 0 .59 0 1.19.01 1.77.02 1.69.04 3.44-.18 5.18-.11.9-.33 2.23-.93 3.46-.58 1.19-1.57 2.11-2.94 2.72-1.35.6-2.89 1.07-4.56 1.39-1.12.21-2.52.44-3.96.44zm-.87-1.18c1.64.13 3.32-.14 4.62-.39 1.58-.3 3.03-.74 4.31-1.31 1.13-.51 1.91-1.22 2.38-2.17.4-.83.66-1.79.83-3.11.21-1.65.19-3.36.17-5.02 0-.59-.01-1.19-.01-1.79 0-.46 0-.92.01-1.38.01-1.05.02-2.14 0-3.2-.04-1.61-.12-3.25-.26-4.88-.07-.89-.15-1.8-.27-2.68-.1-.76-.31-1.29-.67-1.73-.26-.31-.6-.57-.96-.84-.13-.1-.27-.2-.4-.31-.47-.37-.95-.79-1.2-1.39l-.24-.59.71-.21c.08-.02.16-.05.23-.07.25-.08.25-.18.25-.21 0-.1-.02-.23-.03-.36-.02-.15-.04-.33-.04-.51s.01-.36.02-.54c.01-.17.02-.34.02-.51-.01 0-.02.02-.03.02l-.11.07c-.16.08-.31.13-.45.19h-.02c-.52.2-1.08.35-1.72.46l-.31.05c-1.28.19-2.58.23-3.84.27h-.26c-2.87.1-5.77.04-8.63-.16-.65-.05-1.36-.1-2.16-.18h-.08c-.32-.04-.65-.07-.97-.11h-.11a8.6 8.6 0 0 1-.96-.11c-.08.6-.04 1.22.11 1.85.24.05.47.1.7.14l.8.16-.43.7c-.36.59-.94 1.01-1.45 1.39-.26.19-.5.37-.69.54-.83.78-.94 1.93-1.05 3.14l-.03.33c-.31 3.25-.44 6.57-.36 9.88.02.85 0 1.71 0 2.55-.02 1.39-.03 2.83.09 4.22.18 2.15.62 4.5 2.47 5.66.64.41 1.38.68 2.09.93.83.29 1.65.52 2.44.69 1.54.34 4.76.47 5.3.49l.07-.02.14.03h.02zM15.1 8.83c.13.03.39.07.89.1.07 0 .12 0 .15.01.32.03.64.07.96.1h.07c.8.08 1.5.14 2.14.18 2.82.2 5.69.26 8.52.17h.26c1.23-.05 2.5-.09 3.71-.27l.3-.05c.56-.1 1.06-.23 1.51-.39h.02c.11-.05.22-.09.31-.13l.03-.02s.03-.02.04-.03c-.13-.03-.27-.05-.37-.06-.11-.02-.21-.03-.29-.05-.97-.18-1.84-.33-2.68-.45l-.26-.04c-1.68-.26-3.26-.5-4.98-.58-2.34-.11-5.23.27-6.75.5-.79.12-1.57.27-2.31.44h-.04c-.5.12-1.01.24-1.22.56zm.07.18z" />
    <path style="fill:#000; opacity: 1;"
        d="M16.33 13.2c5.9.42 11.96.66 17.82-.31.73-.12.42-1.22-.3-1.11-2.88.47-5.83.59-8.74.6s-5.86-.12-8.77-.33c-.74-.05-.73 1.09 0 1.15zM31.47 38.14c-1.4-.2-2.82-.33-4.23-.39-2.83-.12-5.7.02-8.5.47-1.25.2-2.71.42-3.63 1.38-.2.21.07.6.32.42.93-.65 2-.88 3.11-1.04 1.33-.19 2.68-.34 4.02-.41 2.68-.15 5.36-.07 8.02.26 1.31.16 2.75.3 3.91.99.31.18.67-.26.39-.51-.93-.84-2.23-.99-3.43-1.15z" />
</svg>