<?xml version="1.0" encoding="utf-8"?>
<svg viewBox="0 1.7333 50.0003 46.5336" width="50.0003" height="46.5336" xmlns="http://www.w3.org/2000/svg">
  <path class="fil0" d="M 45.664 23.559 L 45.38 17.856 L 41.511 17.054 L 38.436 16.489 C 37.193 16.499 35.284 15.783 34.57 15.772 C 34.571 18.145 34.602 18.778 34.602 18.778 C 34.602 18.778 34.686 19.435 34.684 22.069 L 35.538 23.765 C 37.762 24.019 36.965 23.177 38.681 23.731 C 38.899 23.773 43.718 23.28 45.664 23.559 Z" style="fill: rgb(255, 203, 91);" transform="matrix(1, 0, 0, 1.0000000000000002, 0, 7.105427357601002e-15)"/>
  <path class="fil0" d="M 30.664 23.559 L 30.38 17.856 L 26.511 17.054 L 23.436 16.489 C 22.193 16.499 20.967 16.011 20.253 16 C 20.254 18.373 20 18.664 20 18.664 C 20 18.664 20.084 19.435 20.082 22.069 L 20.538 23.765 C 22.762 24.019 21.965 23.177 23.681 23.731 C 23.899 23.773 28.718 23.28 30.664 23.559 Z" style="fill: rgb(255, 203, 91);" transform="matrix(1, 0, 0, 1.0000000000000002, 0, 7.105427357601002e-15)"/>
  <path class="fil0" d="M 15.476 23.089 L 15.192 17.386 L 11.323 16.584 L 8.248 16.019 C 7.005 16.029 5.779 15.541 5.065 15.53 C 5.066 17.903 4.812 18.194 4.812 18.194 C 4.812 18.194 4.896 18.965 4.894 21.599 L 5.35 23.295 C 7.574 23.549 6.777 22.707 8.493 23.261 C 8.711 23.303 13.53 22.81 15.476 23.089 Z" style="fill: rgb(255, 203, 91);" transform="matrix(1, 0, 0, 1.0000000000000002, 0, 7.105427357601002e-15)"/>
  <path class="fil0" d="M 38.025 40.949 L 37.791 29.865 L 31.496 29.975 L 21.772 29.855 C 21.772 29.855 13.208 30.041 12.494 30.062 C 12.602 32.433 12.178 35.68 12.178 35.68 L 12.474 40.919 L 22.088 41.058 L 30.812 41.067 L 38.025 40.949 Z" style="fill: rgb(250, 50, 46); transform-origin: 25.053px 35.53px;"/>
  <g id="Layer_x0020_1" transform="matrix(0.029298001900315288, 0, 0, 0.029298001900315288, -0.0008690000579463231, 0.014575001161240664)">
    <path class="fil0" d="M488.81 553.37l0 -76.16c-0.06,-172.42 -111.72,-90.23 -110.73,-227.52l0 -48.43c-42.41,0.33 -74.55,1.19 -98.91,0.83 0.04,80.98 5.66,109.56 -55.28,149.19 -28.49,18.53 -55.39,36.02 -55.46,125.95l0 15.13c75.89,8.69 143.93,22.66 202.5,41.58 7.42,1.45 51.47,9.89 117.87,19.44z" style="fill: rgb(14, 154, 167);"/>
    <path class="fil0" d="M676.48 477.22l0 15.12c75.91,8.69 143.96,22.66 202.54,41.59 7.42,1.45 51.45,9.89 117.84,19.43l0 -76.16c-0.06,-172.44 -111.69,-90.21 -110.71,-227.52l-0.02 -48.43c-42.4,0.33 -74.54,1.19 -98.9,0.83 0.04,80.98 5.66,109.55 -55.29,149.19 -28.48,18.53 -55.39,36.02 -55.46,125.95z" style="fill: rgb(14, 154, 167);"/>
    <path class="fil0" d="M1240 351.27c-28.5,18.51 -55.4,36.02 -55.46,125.94l0 15.14c75.89,8.69 143.94,22.66 202.52,41.58 7.42,1.45 51.46,9.89 117.85,19.43l0 -76.16c-0.06,-172.44 -111.69,-90.21 -110.72,-227.52l-0.02 -48.43c-42.4,0.33 -74.54,1.19 -98.9,0.83 0.04,80.92 5.66,109.57 -55.27,149.19z" style="fill: rgb(14, 154, 167);"/>
    <path class="fil1" d="M1275.28 161.14l138.91 -0.01 10.82 0c9.28,0 4.82,-51.83 4.82,-73.27 0,-2.61 -2.2,-4.82 -4.82,-4.82l-160.57 0c-9.31,0 -4.83,51.77 -4.83,73.27 0,2.61 2.21,4.82 4.83,4.82l10.83 0.01z" style="fill: rgb(206, 208, 125);"/>
    <path class="fil1" d="M408.89 161.13c9.31,0 4.83,-51.77 4.83,-73.27 0,-2.61 -2.21,-4.82 -4.83,-4.82l-160.57 0c-9.29,0 -4.82,51.83 -4.82,73.27 0,2.61 2.21,4.82 4.82,4.82l10.83 0.01 138.91 -0.01 10.82 0z" style="fill: rgb(206, 208, 125);"/>
    <path class="fil1" d="M756.37 83.04c-9.28,0 -4.82,51.83 -4.82,73.27 0,2.61 2.21,4.82 4.82,4.82l10.85 0.01 138.9 -0.01 10.82 0c9.29,0 4.82,-51.83 4.82,-73.27 0,-2.61 -2.19,-4.82 -4.82,-4.82l-160.57 0z" style="fill: rgb(206, 208, 125);"/>
    <path class="fil1" d="M1016.87 799.66l-360.39 0 -147.66 0 -360.39 0 -125.07 0 0 375.31 351.04 0 0 -179.57c0,-11.04 8.96,-20 20,-20l884.55 0c11.04,0 20,8.97 20,20l0 179.57 351.03 0 0 -375.31 -125.05 0 -360.39 0 -147.66 0z" style="fill: rgb(206, 208, 125);"/>
    <path class="fil1" d="M374.4 1394.53l0 -179.57 -351.04 0 0 375.31 1626.62 0 0 -375.31 -351.03 0 0 179.57c0,11.04 -8.96,20 -20,20l-884.55 0c-11.04,0 -20,-8.97 -20,-20z" style="fill: rgb(206, 208, 125);"/>
    <path class="fil4" d="M425.56 217.8c-218.31,0 -205.39,19.81 -205.39,-113.27 0,-24.71 20.11,-44.82 44.82,-44.82 218.21,0 205.44,-19.83 205.4,113.27 -0.02,24.71 -20.12,44.82 -44.83,44.82zm-160.57 -118.09c-9.29,0 -4.82,51.83 -4.82,73.27 0,2.61 2.21,4.82 4.82,4.82l160.57 0c9.31,0 4.83,-51.77 4.83,-73.27 0,-2.61 -2.21,-4.82 -4.83,-4.82l-160.57 0z" style="fill: rgb(51, 51, 51);"/>
    <path class="fil4" d="M525.48 816.32l-360.39 0c-11.04,0 -20,-8.96 -20,-20l0 -302.45c0.06,-191.92 111.47,-123.23 110.73,-226.95l0 -69.12c0,-11.04 8.96,-20 20,-20l138.91 -0.01c11.04,0 20,8.96 20,20 0,83.46 -10.33,105.77 37.09,136.61 32.78,21.32 73.57,47.85 73.65,159.46l0 302.48c-0.02,11.04 -8.96,19.98 -20,19.98zm-340.39 -39.98l320.39 0 0 -282.46c-0.06,-172.42 -111.72,-90.23 -110.73,-227.52l0 -48.56 -98.91 0c0,81.7 5.9,110.35 -55.28,150.14 -28.49,18.53 -55.39,36.02 -55.46,125.95l-0.02 282.45z" style="fill: rgb(51, 51, 51);"/>
    <path class="fil4" d="M525.51 613.04c-19.52,0 -148.49,-23.81 -149.11,-24.01 -60.72,-19.74 -132.5,-33.92 -213.34,-42.15 -26.16,-2.67 -22.2,-42.39 4.06,-39.8 83.15,8.47 157.33,23.12 220.49,43.53 8.24,1.61 61.61,11.83 140.58,22.62 24.5,3.34 21.91,39.81 -2.68,39.81z" style="fill: rgb(51, 51, 51);"/>
    <path class="fil4" d="M933.61 217.8c-218.31,0 -205.38,19.81 -205.38,-113.27 0,-24.71 20.11,-44.82 44.81,-44.82 218.32,0 205.4,-19.8 205.4,113.27 0,24.71 -20.11,44.82 -44.83,44.82zm-160.57 -118.09c-9.28,0 -4.82,51.83 -4.82,73.27 0,2.61 2.21,4.82 4.82,4.82l160.57 0c9.29,0 4.82,-51.83 4.82,-73.27 0,-2.61 -2.19,-4.82 -4.82,-4.82l-160.57 0z" style="fill: rgb(51, 51, 51);"/>
    <path class="fil4" d="M1033.54 816.32l-360.39 0c-11.04,0 -20,-8.96 -20,-20l0 -302.45c0.06,-191.91 111.48,-123.25 110.74,-226.95l0 -69.12c0,-11.04 8.96,-20 20,-20l138.9 -0.01c11.04,0 20,8.96 20,20 0,83.47 -10.33,105.76 37.08,136.61 32.78,21.32 73.58,47.85 73.67,159.46l0 302.48c0,11.04 -8.96,19.98 -20,19.98zm-340.39 -39.98l320.38 0 0 -282.46c-0.06,-172.44 -111.69,-90.21 -110.71,-227.52l-0.02 -48.56 -98.9 0c0,81.71 5.9,110.35 -55.29,150.14 -28.48,18.53 -55.39,36.02 -55.46,125.95l0 282.45z" style="fill: rgb(51, 51, 51);"/>
    <path class="fil4" d="M1033.56 613.04c-19.53,0 -148.5,-23.81 -149.1,-24.01 -60.72,-19.74 -132.5,-33.92 -213.33,-42.15 -26.16,-2.67 -22.2,-42.39 4.06,-39.8 83.15,8.47 157.33,23.12 220.49,43.53 8.24,1.61 61.59,11.83 140.58,22.62 24.49,3.34 21.9,39.81 -2.7,39.81z" style="fill: rgb(51, 51, 51);"/>
    <path class="fil4" d="M1441.66 217.8c-218.33,0 -205.41,19.8 -205.41,-113.27 0,-24.71 20.11,-44.82 44.84,-44.82 218.31,0 205.39,-19.8 205.39,113.27 0,24.71 -20.11,44.82 -44.83,44.82zm-160.55 -118.09c-9.31,0 -4.83,51.77 -4.83,73.27 0,2.61 2.21,4.82 4.83,4.82l160.57 0c9.28,0 4.82,-51.83 4.82,-73.27 0,-2.61 -2.2,-4.82 -4.82,-4.82l-160.57 0z" style="fill: rgb(51, 51, 51);"/>
    <path class="fil4" d="M1541.59 816.32l-360.39 0c-11.04,0 -20,-8.96 -20,-20l0 -302.45c0.08,-191.89 111.51,-123.29 110.76,-226.95l-0.02 -69.12c0,-11.04 8.97,-20 20,-20l138.91 -0.01c11.04,0 20,8.96 20,20 0,83.47 -10.34,105.76 37.08,136.61 32.78,21.32 73.58,47.85 73.67,159.46l0 302.48c-0.02,11.04 -8.97,19.98 -20.01,19.98zm-340.39 -39.98l320.38 0 0 -282.46c-0.06,-172.44 -111.69,-90.21 -110.72,-227.52l-0.02 -48.56 -98.9 0c0,81.65 5.9,110.37 -55.27,150.14 -28.5,18.51 -55.4,36.02 -55.46,125.94l0 282.46 -0.02 0z" style="fill: rgb(51, 51, 51);"/>
    <path class="fil4" d="M1541.61 613.04c-19.51,0 -148.49,-23.81 -149.1,-24.01 -60.72,-19.74 -132.5,-33.92 -213.34,-42.15 -10.98,-1.12 -18.98,-10.94 -17.86,-21.93 1.11,-11 10.93,-18.92 21.93,-17.87 83.15,8.47 157.33,23.12 220.49,43.53 8.24,1.61 61.61,11.83 140.58,22.62 24.49,3.34 21.91,39.81 -2.69,39.81z" style="fill: rgb(51, 51, 51);"/>
    <path class="fil4" d="M1686.64 1646.95l-1666.61 0c-11.04,0 -20,-8.97 -20,-20l0 -830.63c0,-11.04 8.96,-20 20,-20l1666.61 0c11.04,0 20,8.96 20,20l0 830.61c0,11.04 -8.96,20.02 -20,20.02zm-1646.61 -40.02l1626.62 0 0 -790.61 -1626.62 0 0 790.61z" style="fill: rgb(51, 51, 51);"/>
    <path class="fil4" d="M1295.61 1431.19l-884.55 0c-11.04,0 -20,-8.97 -20,-20l0 -399.13c0,-11.04 8.96,-20 20,-20l884.55 0c11.04,0 20,8.97 20,20l0 399.13c0,11.04 -8.96,20 -20,20zm-864.55 -40l844.55 0 0 -359.13 -844.55 0 0 359.13z" style="fill: rgb(51, 51, 51);"/>
    <path class="fil4" d="M1686.64 1231.63l-391.02 0c-26.33,0 -26.32,-40 0,-40l391.02 0c26.33,0 26.33,40 0,40zm-1275.59 0l-391.03 0c-26.32,0 -26.32,-40 0,-40l391.03 0c26.31,0 26.34,40 0,40z" style="fill: rgb(51, 51, 51);"/>
    <path class="fil4" d="M586.76 1327.11c-11.04,0 -20,-8.97 -20,-20l0 -190.96c0,-26.33 40,-26.32 40,0l0 190.96c0,11.04 -8.94,20 -20,20z" style="fill: rgb(51, 51, 51);"/>
    <path class="fil4" d="M764.47 1327.11c-11.04,0 -20,-8.97 -20,-20l0 -190.96c0,-26.33 40,-26.32 40,0l0 190.96c0,11.04 -8.96,20 -20,20z" style="fill: rgb(51, 51, 51);"/>
    <path class="fil4" d="M942.19 1327.11c-11.04,0 -20,-8.97 -20,-20l0 -190.96c0,-26.33 40,-26.32 40,0l0 190.96c0.02,11.04 -8.96,20 -20,20z" style="fill: rgb(51, 51, 51);"/>
    <path class="fil4" d="M1119.92 1327.11c-11.04,0 -20,-8.97 -20,-20l0 -190.96c0,-26.33 40,-26.32 40,0l0 190.96c0.01,11.04 -8.96,20 -20,20z" style="fill: rgb(51, 51, 51);"/>
  </g>
</svg>