<svg viewBox="0 0 50 50" width="50" height="50" xmlns="http://www.w3.org/2000/svg">
  <defs>
    <style>
      .cls-1 { fill: #000; opacity: 0.5; }
    </style>
  </defs>
  <path class="cls-1"
    d="M 26.372 50 C 25.921 50 25.483 49.987 25.032 49.947 L 25.005 49.947 C 25.005 49.947 24.926 49.934 24.886 49.92 C 23.665 49.92 19.418 49.655 17.561 49.244 C 16.459 49.005 15.305 48.673 14.15 48.275 C 13.128 47.917 12.04 47.518 11.058 46.895 C 8.019 44.984 7.343 41.255 7.077 38.229 C 6.918 36.305 6.931 34.355 6.958 32.47 C 6.958 31.382 6.984 30.241 6.958 29.139 C 6.865 24.694 7.024 20.222 7.449 15.856 C 7.462 15.71 7.475 15.564 7.489 15.431 C 7.648 13.693 7.834 11.716 9.36 10.283 C 9.678 9.977 10.063 9.712 10.421 9.447 C 10.673 9.261 10.912 9.088 11.151 8.889 C 10.793 8.743 10.514 8.438 10.395 8.053 C 10.05 6.766 10.01 5.452 10.275 4.245 C 10.196 3.78 10.275 3.303 10.501 2.878 C 11.098 1.803 12.279 1.524 13.155 1.325 L 13.208 1.325 C 14.243 1.073 15.305 0.874 16.393 0.702 C 18.914 0.317 22.563 -0.108 25.642 0.025 C 28.004 0.131 30.141 0.463 32.41 0.808 L 32.755 0.861 C 33.883 1.033 35.064 1.232 36.364 1.471 C 36.47 1.485 36.577 1.511 36.709 1.524 C 37.545 1.657 39.098 1.883 39.337 3.276 C 39.377 3.555 39.363 3.82 39.284 4.072 C 39.31 4.444 39.284 4.829 39.257 5.16 C 39.244 5.386 39.231 5.585 39.231 5.771 C 39.231 5.917 39.257 6.076 39.27 6.248 C 39.297 6.461 39.324 6.673 39.324 6.912 C 39.324 7.549 38.992 8.08 38.421 8.412 C 38.62 8.611 38.846 8.796 39.085 8.982 C 39.244 9.115 39.416 9.234 39.589 9.367 C 40.12 9.765 40.664 10.176 41.115 10.721 C 41.779 11.53 42.177 12.499 42.349 13.786 C 42.508 14.993 42.615 16.228 42.707 17.409 C 42.893 19.611 43.013 21.814 43.052 23.977 C 43.079 25.411 43.066 26.87 43.052 28.277 C 43.052 28.887 43.039 29.498 43.039 30.108 C 43.039 30.891 43.039 31.687 43.052 32.457 C 43.079 34.7 43.106 37.022 42.814 39.331 C 42.668 40.525 42.376 42.29 41.579 43.922 C 40.81 45.501 39.496 46.722 37.678 47.532 C 35.887 48.328 33.843 48.952 31.627 49.376 C 30.141 49.655 28.283 49.96 26.372 49.96 L 26.372 50 Z M 25.217 48.434 C 27.394 48.607 29.623 48.248 31.348 47.917 C 33.445 47.518 35.369 46.935 37.068 46.178 C 38.567 45.501 39.602 44.559 40.226 43.299 C 40.757 42.197 41.102 40.923 41.327 39.172 C 41.606 36.982 41.579 34.713 41.553 32.51 C 41.553 31.727 41.54 30.931 41.54 30.135 C 41.54 29.524 41.54 28.914 41.553 28.303 C 41.566 26.91 41.579 25.464 41.553 24.057 C 41.5 21.92 41.394 19.744 41.208 17.581 C 41.115 16.4 41.009 15.193 40.85 14.025 C 40.717 13.016 40.438 12.313 39.961 11.729 C 39.616 11.318 39.164 10.973 38.687 10.614 C 38.514 10.482 38.328 10.349 38.156 10.203 C 37.532 9.712 36.895 9.155 36.563 8.358 L 36.245 7.576 L 37.187 7.297 C 37.293 7.27 37.399 7.23 37.492 7.204 C 37.824 7.098 37.824 6.965 37.824 6.925 C 37.824 6.793 37.798 6.62 37.784 6.448 C 37.758 6.248 37.731 6.01 37.731 5.771 C 37.731 5.532 37.744 5.293 37.758 5.054 C 37.771 4.829 37.784 4.603 37.784 4.377 C 37.771 4.377 37.758 4.404 37.744 4.404 L 37.598 4.497 C 37.386 4.603 37.187 4.669 37.001 4.749 L 36.975 4.749 C 36.285 5.014 35.542 5.213 34.692 5.359 L 34.281 5.426 C 32.582 5.678 30.857 5.731 29.185 5.784 L 28.84 5.784 C 25.032 5.917 21.183 5.837 17.388 5.572 C 16.526 5.505 15.583 5.439 14.522 5.333 L 14.416 5.333 C 13.991 5.28 13.553 5.24 13.128 5.187 C 13.102 5.187 13.049 5.187 12.982 5.187 C 12.465 5.147 12.04 5.107 11.708 5.041 C 11.602 5.837 11.655 6.66 11.854 7.496 C 12.173 7.562 12.478 7.629 12.783 7.682 L 13.845 7.894 L 13.274 8.823 C 12.797 9.606 12.027 10.163 11.35 10.667 C 11.005 10.92 10.687 11.158 10.435 11.384 C 9.333 12.419 9.187 13.945 9.041 15.551 C 9.028 15.697 9.015 15.843 9.001 15.989 C 8.59 20.302 8.418 24.707 8.524 29.1 C 8.55 30.228 8.524 31.369 8.524 32.483 C 8.497 34.328 8.484 36.239 8.643 38.083 C 8.882 40.937 9.466 44.055 11.921 45.594 C 12.77 46.138 13.752 46.497 14.694 46.828 C 15.796 47.213 16.884 47.518 17.932 47.744 C 19.976 48.195 24.249 48.368 24.965 48.394 L 25.058 48.368 L 25.244 48.408 C 25.244 48.408 25.257 48.408 25.271 48.408 L 25.217 48.434 Z M 11.868 3.541 C 12.04 3.581 12.385 3.634 13.049 3.674 C 13.142 3.674 13.208 3.674 13.248 3.687 C 13.672 3.727 14.097 3.78 14.522 3.82 L 14.615 3.82 C 15.676 3.926 16.605 4.006 17.454 4.059 C 21.197 4.324 25.005 4.404 28.761 4.285 L 29.106 4.285 C 30.738 4.218 32.423 4.165 34.029 3.926 L 34.427 3.86 C 35.17 3.727 35.834 3.555 36.431 3.342 L 36.457 3.342 C 36.603 3.276 36.749 3.223 36.869 3.17 L 36.908 3.143 C 36.908 3.143 36.948 3.117 36.961 3.103 C 36.789 3.064 36.603 3.037 36.47 3.024 C 36.325 2.997 36.192 2.984 36.086 2.958 C 34.798 2.719 33.644 2.52 32.529 2.36 L 32.184 2.307 C 29.955 1.962 27.858 1.644 25.576 1.538 C 22.471 1.392 18.635 1.896 16.618 2.201 C 15.57 2.36 14.535 2.559 13.553 2.785 L 13.5 2.785 C 12.836 2.944 12.16 3.103 11.881 3.528 L 11.868 3.541 Z M 11.961 3.78 C 11.961 3.78 11.961 3.78 11.961 3.78 C 11.961 3.78 11.961 3.78 11.961 3.78 Z"
    transform="matrix(1, 0, 0, 1, 0, -8.881784197001252e-16)" />
  <path class="cls-1"
    d="M 13.5 9.34 C 21.329 9.898 29.371 10.216 37.147 8.929 C 38.116 8.77 37.705 7.31 36.749 7.456 C 32.927 8.08 29.013 8.239 25.151 8.252 C 21.29 8.266 17.375 8.093 13.513 7.814 C 12.531 7.748 12.545 9.261 13.513 9.34 L 13.5 9.34 Z"
    transform="matrix(1, 0, 0, 1, 0, -8.881784197001252e-16)" />
  <path class="cls-1"
    d="M 33.591 42.436 C 31.733 42.171 29.849 41.998 27.978 41.919 C 24.222 41.759 20.414 41.945 16.698 42.542 C 15.039 42.808 13.102 43.1 11.881 44.373 C 11.616 44.652 11.974 45.17 12.306 44.931 C 13.54 44.068 14.96 43.763 16.433 43.551 C 18.198 43.299 19.989 43.1 21.767 43.007 C 25.324 42.808 28.88 42.914 32.41 43.352 C 34.148 43.564 36.059 43.75 37.598 44.665 C 38.01 44.904 38.488 44.32 38.116 43.989 C 36.882 42.874 35.157 42.675 33.564 42.463 L 33.591 42.436 Z"
    transform="matrix(1, 0, 0, 1, 0, -8.881784197001252e-16)" />
</svg>