<?xml version="1.0" encoding="utf-8"?>
<svg viewBox="5.1284 5.443 31.7426 43.1141" width="31.7426" height="43.1141" xmlns="http://www.w3.org/2000/svg">
  <path style="fill: rgb(0, 0, 0); opacity: 1;" d="M 16.694 18.343 C 16.309 18.298 15.924 18.241 15.562 18.116 C 13.15 17.267 11.373 15.637 10.082 13.463 C 9.516 12.523 9.131 11.516 9.164 10.394 C 9.187 9.794 9.459 9.5 10.07 9.522 C 10.512 9.545 10.976 9.579 11.384 9.715 C 13.807 10.53 15.619 12.115 16.932 14.29 C 17.476 15.184 17.883 16.158 17.929 16.927 C 17.951 18.15 17.646 18.445 16.706 18.343 L 16.694 18.343 Z M 19.129 16.916 C 18.948 15.15 18.132 13.644 17.034 12.285 C 15.653 10.587 13.965 9.262 11.848 8.572 C 11.362 8.413 10.84 8.344 10.342 8.232 C 8.689 8.187 7.784 9.16 7.919 10.858 C 8.032 12.376 8.678 13.689 9.538 14.901 C 11.01 16.962 12.879 18.547 15.336 19.306 C 15.97 19.498 16.694 19.611 17.351 19.532 C 18.699 19.373 19.298 18.445 19.129 16.905 L 19.129 16.916 Z" transform="matrix(1.0000000000000002, 0, 0, 1, 0, 3.552713678800501e-15)"/>
  <path style="fill: rgb(0, 0, 0); opacity: 1;" d="M 35.513 36.584 C 34.245 36.732 33.588 37.128 25.3 37.105 C 25.017 37.093 24.722 37.071 24.439 37.048 C 23.319 36.958 22.197 36.81 21.088 36.573 C 20.216 36.391 19.378 36.029 18.529 35.724 C 18.189 35.599 18.065 35.338 18.065 34.942 C 18.099 32.508 18.11 30.062 18.121 27.627 L 18.121 27.231 C 20.951 28.431 23.895 28.669 26.863 28.692 C 29.829 28.715 32.773 28.511 35.603 27.345 L 35.603 27.764 C 35.592 29.145 35.57 30.526 35.558 31.908 L 35.558 33.029 L 35.502 36.584 L 35.513 36.584 Z M 24.903 38.101 L 24.926 38.101 L 24.903 38.101 Z M 34.55 46.209 C 33.939 46.446 33.746 46.48 33.123 46.639 C 31.369 47.092 29.579 47.239 27.78 47.284 C 25.311 47.341 22.854 47.217 20.454 46.616 C 19.706 46.435 18.936 46.231 18.28 45.812 C 18.132 45.722 18.007 45.45 17.974 45.235 C 17.962 45.156 17.951 44.816 17.951 44.318 L 17.951 43.151 C 17.974 40.774 18.053 37.207 18.053 36.89 C 19.717 37.603 21.428 37.977 23.16 38.17 C 23.476 38.204 23.794 38.237 24.11 38.26 L 24.292 38.26 L 24.836 38.294 C 24.836 38.294 31.21 38.69 35.479 37.909 L 35.4 43.842 L 35.4 45.246 C 35.433 45.62 34.857 46.084 34.55 46.209 Z M 17.046 21.253 C 16.853 21.197 16.672 21.174 16.513 21.105 C 15.856 20.789 15.166 20.608 14.441 20.585 C 13.988 20.574 13.637 20.359 13.331 20.052 C 12.879 19.588 12.357 19.248 11.734 19.056 C 11.282 18.909 10.92 18.649 10.67 18.23 C 10.32 17.607 9.832 17.12 9.221 16.758 C 8.837 16.531 8.587 16.203 8.451 15.784 C 8.248 15.105 7.896 14.516 7.387 14.017 C 7.09 13.737 6.919 13.349 6.911 12.942 C 6.9 12.262 6.764 11.606 6.469 10.994 C 6.254 10.553 6.299 10.123 6.492 9.67 C 6.696 9.194 6.877 8.707 7.013 8.209 C 7.161 7.688 7.466 7.394 7.987 7.269 C 8.451 7.145 8.915 6.997 9.346 6.805 C 9.855 6.578 10.32 6.59 10.84 6.805 C 11.362 7.009 11.916 7.156 12.471 7.224 C 13.014 7.291 13.479 7.428 13.852 7.824 C 14.294 8.288 14.826 8.606 15.426 8.798 C 15.901 8.945 16.253 9.228 16.502 9.659 C 16.842 10.247 17.294 10.712 17.872 11.051 C 18.291 11.301 18.563 11.64 18.699 12.104 C 18.891 12.749 19.23 13.304 19.706 13.779 C 20.046 14.108 20.205 14.505 20.216 14.98 C 20.227 15.625 20.363 16.237 20.646 16.826 C 20.872 17.279 20.827 17.72 20.624 18.184 C 20.42 18.649 20.238 19.124 20.113 19.6 C 19.978 20.121 19.672 20.415 19.152 20.563 C 18.642 20.698 18.155 20.902 17.657 21.072 C 17.442 21.139 17.227 21.197 17.023 21.253 L 17.046 21.253 Z M 22.842 21.083 C 23.567 21.015 24.292 20.97 25.028 20.924 C 25.266 20.913 25.492 20.902 25.73 20.879 L 26.364 20.845 C 26.579 20.845 26.817 20.845 27.066 20.834 C 31.98 20.778 34.528 22.012 34.607 22.046 C 34.687 22.08 34.765 22.113 34.845 22.136 C 35.332 22.351 35.343 23.054 34.868 23.291 C 34.857 23.291 34.845 23.291 34.834 23.303 C 34.109 23.642 33.339 23.846 32.547 23.993 C 28.765 24.786 25.797 24.491 24.881 24.367 C 24.564 24.356 24.258 24.333 23.941 24.298 C 22.469 24.174 21.02 23.948 19.627 23.473 C 19.197 23.325 18.789 23.121 18.393 22.884 C 18.065 22.691 18.065 22.499 18.381 22.295 C 18.642 22.125 18.925 21.966 19.219 21.864 C 20.375 21.423 21.585 21.185 22.82 21.072 L 22.842 21.083 Z M 35.637 25.533 C 35.637 25.794 35.558 25.986 35.332 26.076 C 34.834 26.303 34.335 26.552 33.804 26.699 C 31.924 27.243 29.998 27.412 28.051 27.458 C 25.582 27.515 23.126 27.412 20.725 26.812 C 19.967 26.62 19.242 26.303 18.518 25.998 C 18.359 25.929 18.177 25.703 18.166 25.533 C 18.121 25.102 18.155 24.661 18.166 24.208 C 20.997 25.442 23.953 25.635 26.919 25.669 C 29.886 25.691 32.829 25.499 35.637 24.322 C 35.637 24.741 35.615 25.125 35.637 25.521 L 35.637 25.533 Z M 36.067 21.423 C 35.468 20.993 34.788 20.732 34.086 20.529 L 34.075 20.529 C 34.019 20.505 33.792 20.438 33.396 20.347 L 33.385 20.347 C 33.045 20.268 32.581 20.177 31.992 20.086 C 31.21 19.962 30.202 19.849 28.945 19.77 C 28.346 19.736 27.688 19.702 26.975 19.691 L 26.602 19.691 C 26.047 19.667 25.481 19.667 24.926 19.691 C 23.816 19.736 22.718 19.882 21.62 20.064 C 21.529 20.075 21.439 20.064 21.235 20.086 C 21.404 19.622 21.529 19.203 21.722 18.807 C 22.118 17.98 22.141 17.188 21.789 16.327 C 21.585 15.807 21.518 15.218 21.439 14.651 C 21.359 14.029 21.11 13.497 20.68 13.055 C 20.295 12.659 20.012 12.217 19.853 11.685 C 19.638 11.006 19.23 10.474 18.619 10.111 C 18.155 9.828 17.792 9.466 17.51 8.991 C 17.147 8.368 16.593 7.971 15.924 7.699 C 15.516 7.541 15.097 7.326 14.781 7.031 C 14.147 6.442 13.456 6.103 12.584 6.035 C 12.142 6.001 11.678 5.877 11.27 5.695 C 10.466 5.344 9.708 5.367 8.915 5.718 C 8.519 5.888 8.1 6.023 7.681 6.126 C 6.707 6.375 6.084 6.975 5.835 7.96 C 5.734 8.368 5.586 8.775 5.416 9.148 C 5.055 9.941 5.031 10.712 5.36 11.538 C 5.564 12.036 5.643 12.602 5.711 13.145 C 5.79 13.802 6.017 14.38 6.481 14.844 C 6.888 15.251 7.172 15.728 7.341 16.282 C 7.545 16.927 7.941 17.426 8.519 17.776 C 9.006 18.071 9.391 18.445 9.674 18.943 C 10.036 19.555 10.569 19.974 11.237 20.2 C 11.723 20.359 12.153 20.608 12.516 20.981 C 13.105 21.593 13.84 21.819 14.667 21.876 C 15.064 21.91 15.46 22.068 15.856 22.181 C 16.139 22.261 16.411 22.374 16.694 22.442 C 16.864 22.476 16.954 22.532 16.932 22.714 L 16.932 22.929 C 16.898 27.945 16.864 32.972 16.819 37.988 C 16.819 38.452 16.627 41.181 16.683 43.446 C 16.683 43.854 16.706 44.25 16.739 44.612 C 16.808 45.563 16.943 46.299 17.203 46.537 C 17.996 47.262 19.513 47.714 20.555 47.93 C 23.783 48.597 27.043 48.711 30.327 48.371 C 31.81 48.213 33.293 48.009 34.698 47.465 C 35.117 47.307 35.524 47.08 35.91 46.82 C 36.396 46.491 36.634 46.027 36.634 45.416 L 36.634 44.318 L 36.77 31.885 L 36.77 31.5 C 36.781 30.187 36.804 28.907 36.815 27.707 C 36.838 25.85 36.86 24.197 36.871 22.963 C 36.871 22.283 36.6 21.819 36.079 21.446 L 36.067 21.423 Z" transform="matrix(1.0000000000000002, 0, 0, 1, 0, 3.552713678800501e-15)"/>
</svg>