<svg viewBox="0 0 50 50" width="50" height="50" xmlns="http://www.w3.org/2000/svg">
  <defs>
    <style>
      .cls-1 { fill: #000; opacity: 0.5; }
    </style>
  </defs>
  <path class="cls-1"
    d="M 20.006 14.96 C 19.56 14.908 19.114 14.842 18.693 14.697 C 15.896 13.713 13.835 11.822 12.338 9.301 C 11.681 8.211 11.235 7.042 11.274 5.742 C 11.3 5.046 11.616 4.705 12.325 4.731 C 12.837 4.757 13.375 4.797 13.848 4.954 C 16.658 5.9 18.759 7.738 20.282 10.259 C 20.913 11.296 21.385 12.426 21.438 13.319 C 21.464 14.737 21.11 15.078 20.02 14.96 L 20.006 14.96 Z M 22.83 13.306 C 22.62 11.257 21.674 9.511 20.4 7.935 C 18.798 5.965 16.842 4.429 14.386 3.628 C 13.822 3.444 13.218 3.365 12.64 3.234 C 10.723 3.181 9.672 4.311 9.83 6.28 C 9.961 8.04 10.71 9.563 11.708 10.968 C 13.415 13.358 15.581 15.196 18.431 16.076 C 19.166 16.3 20.006 16.431 20.768 16.339 C 22.331 16.155 23.027 15.078 22.83 13.292 L 22.83 13.306 Z"
    transform="matrix(0.9999999999999999, 0, 0, 0.9999999999999999, -7.105427357601002e-15, -3.552713678800501e-15)" />
  <path class="cls-1"
    d="M 41.831 36.115 C 40.36 36.285 39.598 36.745 29.986 36.719 C 29.658 36.706 29.317 36.679 28.988 36.653 C 27.688 36.548 26.388 36.377 25.101 36.101 C 24.09 35.891 23.119 35.471 22.134 35.117 C 21.74 34.972 21.595 34.67 21.595 34.211 C 21.635 31.387 21.648 28.551 21.661 25.728 L 21.661 25.268 C 24.944 26.66 28.358 26.936 31.798 26.962 C 35.239 26.988 38.653 26.752 41.936 25.399 L 41.936 25.885 C 41.923 27.487 41.896 29.089 41.883 30.691 L 41.883 31.991 C 41.883 31.991 41.818 36.115 41.818 36.115 L 41.831 36.115 Z M 29.527 37.874 C 29.527 37.874 29.553 37.874 29.553 37.874 C 29.553 37.874 29.54 37.874 29.527 37.874 Z M 40.715 47.276 C 40.005 47.552 39.782 47.591 39.06 47.775 C 37.025 48.3 34.95 48.471 32.862 48.524 C 29.999 48.589 27.15 48.445 24.366 47.749 C 23.499 47.539 22.606 47.302 21.845 46.817 C 21.674 46.712 21.53 46.396 21.49 46.147 C 21.477 46.055 21.464 45.661 21.464 45.083 C 21.464 44.702 21.464 44.243 21.464 43.731 C 21.49 40.973 21.582 36.837 21.582 36.469 C 23.513 37.296 25.495 37.73 27.504 37.953 C 27.872 37.992 28.24 38.032 28.607 38.058 C 28.66 38.058 28.699 38.058 28.752 38.058 C 28.778 38.058 28.791 38.058 28.818 38.058 C 29.028 38.071 29.238 38.084 29.448 38.097 C 29.448 38.097 36.841 38.557 41.791 37.651 L 41.699 44.532 C 41.699 44.611 41.699 44.689 41.699 44.755 C 41.699 45.228 41.699 45.595 41.699 45.845 C 41.699 46.016 41.699 46.121 41.699 46.16 C 41.739 46.593 41.069 47.132 40.715 47.276 Z M 20.414 18.335 C 20.19 18.269 19.98 18.243 19.796 18.164 C 19.035 17.796 18.234 17.586 17.393 17.56 C 16.868 17.547 16.461 17.297 16.107 16.943 C 15.581 16.405 14.977 16.011 14.255 15.787 C 13.73 15.617 13.31 15.315 13.021 14.829 C 12.614 14.107 12.049 13.542 11.34 13.122 C 10.893 12.859 10.604 12.478 10.447 11.992 C 10.211 11.205 9.803 10.522 9.213 9.944 C 8.871 9.603 8.674 9.195 8.661 8.697 C 8.648 7.909 8.49 7.147 8.149 6.438 C 7.899 5.926 7.952 5.427 8.175 4.902 C 8.412 4.35 8.622 3.785 8.779 3.208 C 8.95 2.604 9.305 2.262 9.909 2.118 C 10.447 1.973 10.985 1.803 11.484 1.579 C 12.075 1.317 12.614 1.33 13.218 1.579 C 13.822 1.816 14.465 1.986 15.109 2.065 C 15.739 2.144 16.277 2.302 16.711 2.761 C 17.223 3.3 17.84 3.667 18.536 3.89 C 19.087 4.061 19.494 4.389 19.783 4.888 C 20.177 5.571 20.702 6.11 21.372 6.504 C 21.858 6.792 22.173 7.186 22.331 7.725 C 22.554 8.473 22.948 9.117 23.499 9.668 C 23.893 10.049 24.077 10.509 24.09 11.06 C 24.103 11.809 24.261 12.518 24.589 13.201 C 24.852 13.726 24.799 14.238 24.563 14.776 C 24.327 15.315 24.117 15.866 23.972 16.418 C 23.815 17.022 23.46 17.363 22.856 17.534 C 22.265 17.691 21.7 17.928 21.123 18.125 C 20.873 18.204 20.624 18.269 20.387 18.335 L 20.414 18.335 Z M 27.137 18.138 C 27.977 18.059 28.818 18.007 29.671 17.954 C 29.947 17.941 30.209 17.928 30.485 17.902 C 30.735 17.888 30.984 17.875 31.221 17.862 C 31.47 17.862 31.746 17.862 32.035 17.849 C 32.035 17.849 32.035 17.849 32.035 17.849 C 37.734 17.783 40.688 19.215 40.78 19.254 C 40.872 19.293 40.964 19.333 41.056 19.359 C 41.056 19.359 41.056 19.359 41.056 19.359 C 41.621 19.609 41.634 20.423 41.082 20.698 C 41.069 20.698 41.056 20.698 41.043 20.712 C 40.202 21.106 39.309 21.342 38.39 21.513 C 34.004 22.432 30.564 22.09 29.5 21.946 C 29.133 21.933 28.778 21.907 28.411 21.867 C 26.703 21.723 25.023 21.46 23.407 20.909 C 22.909 20.738 22.436 20.502 21.976 20.226 C 21.595 20.003 21.595 19.779 21.963 19.543 C 22.265 19.346 22.593 19.162 22.935 19.044 C 24.274 18.532 25.679 18.256 27.111 18.125 L 27.137 18.138 Z M 41.975 23.298 C 41.975 23.601 41.883 23.824 41.621 23.929 C 41.043 24.191 40.465 24.48 39.848 24.651 C 37.668 25.281 35.436 25.478 33.177 25.531 C 30.315 25.596 27.465 25.478 24.681 24.782 C 23.801 24.559 22.961 24.191 22.121 23.837 C 21.937 23.758 21.727 23.495 21.714 23.298 C 21.661 22.799 21.7 22.287 21.714 21.762 C 24.996 23.193 28.424 23.417 31.864 23.456 C 35.304 23.482 38.719 23.259 41.975 21.893 C 41.975 22.379 41.949 22.826 41.975 23.285 L 41.975 23.298 Z M 42.474 18.532 C 41.778 18.033 40.99 17.731 40.176 17.494 C 40.176 17.494 40.176 17.494 40.163 17.494 C 40.097 17.468 39.835 17.389 39.375 17.284 C 39.375 17.284 39.375 17.284 39.362 17.284 C 38.968 17.192 38.43 17.087 37.747 16.982 C 36.841 16.838 35.672 16.707 34.215 16.615 C 33.519 16.575 32.757 16.536 31.93 16.523 C 31.785 16.523 31.641 16.523 31.496 16.523 C 30.853 16.496 30.196 16.496 29.553 16.523 C 28.266 16.575 26.992 16.746 25.719 16.956 C 25.614 16.969 25.508 16.956 25.272 16.982 C 25.469 16.444 25.614 15.958 25.837 15.499 C 26.296 14.54 26.323 13.621 25.916 12.623 C 25.679 12.019 25.6 11.336 25.508 10.679 C 25.417 9.957 25.128 9.34 24.629 8.828 C 24.182 8.368 23.854 7.856 23.67 7.239 C 23.421 6.451 22.948 5.834 22.239 5.414 C 21.7 5.085 21.28 4.665 20.952 4.114 C 20.532 3.391 19.888 2.932 19.114 2.617 C 18.641 2.433 18.155 2.183 17.787 1.842 C 17.052 1.159 16.251 0.765 15.24 0.686 C 14.728 0.647 14.189 0.503 13.717 0.292 C 12.784 -0.115 11.904 -0.088 10.985 0.319 C 10.526 0.516 10.04 0.673 9.554 0.791 C 8.425 1.08 7.702 1.776 7.414 2.919 C 7.295 3.391 7.125 3.864 6.928 4.298 C 6.508 5.217 6.481 6.11 6.862 7.068 C 7.098 7.646 7.19 8.303 7.269 8.933 C 7.361 9.694 7.624 10.364 8.162 10.903 C 8.635 11.375 8.963 11.927 9.16 12.57 C 9.396 13.319 9.856 13.896 10.526 14.304 C 11.09 14.645 11.537 15.078 11.865 15.656 C 12.285 16.365 12.902 16.851 13.677 17.114 C 14.242 17.297 14.741 17.586 15.161 18.02 C 15.844 18.729 16.697 18.991 17.656 19.057 C 18.116 19.096 18.575 19.28 19.035 19.412 C 19.363 19.504 19.678 19.635 20.006 19.714 C 20.203 19.753 20.309 19.819 20.282 20.029 C 20.282 20.108 20.282 20.186 20.282 20.278 C 20.243 26.095 20.203 31.926 20.151 37.743 C 20.151 38.281 19.928 41.446 19.993 44.072 C 19.993 44.545 20.02 45.004 20.059 45.425 C 20.138 46.528 20.295 47.381 20.597 47.657 C 21.517 48.497 23.276 49.023 24.484 49.272 C 28.227 50.047 32.008 50.178 35.817 49.784 C 37.537 49.6 39.257 49.364 40.885 48.734 C 41.371 48.55 41.844 48.287 42.29 47.985 C 42.855 47.604 43.131 47.066 43.131 46.357 L 43.131 46.108 C 43.131 45.792 43.131 45.451 43.131 45.083 L 43.288 30.665 C 43.288 30.521 43.288 30.363 43.288 30.219 C 43.301 28.695 43.328 27.212 43.341 25.82 C 43.367 23.666 43.393 21.749 43.406 20.318 C 43.406 19.53 43.091 18.991 42.487 18.558 L 42.474 18.532 Z"
    transform="matrix(0.9999999999999999, 0, 0, 0.9999999999999999, -7.105427357601002e-15, -3.552713678800501e-15)" />
</svg>