<svg id="_Слой_1" data-name="Слой 1" xmlns="http://www.w3.org/2000/svg" viewBox="0 0 50 50">
    <path style="fill:#000; opacity: 0.5;"
        d="M21.21 17.57c-.34-.04-.68-.09-1-.2-2.13-.75-3.7-2.19-4.84-4.11-.5-.83-.84-1.72-.81-2.71.02-.53.26-.79.8-.77.39.02.8.05 1.16.17 2.14.72 3.74 2.12 4.9 4.04.48.79.84 1.65.88 2.33.02 1.08-.25 1.34-1.08 1.25zm2.15-1.26c-.16-1.56-.88-2.89-1.85-4.09-1.22-1.5-2.71-2.67-4.58-3.28-.43-.14-.89-.2-1.33-.3-1.46-.04-2.26.82-2.14 2.32.1 1.34.67 2.5 1.43 3.57 1.3 1.82 2.95 3.22 5.12 3.89.56.17 1.2.27 1.78.2 1.19-.14 1.72-.96 1.57-2.32z" />
    <path style="fill:#000; opacity: 0.5;"
        d="M37.83 33.68c-1.12.13-1.7.48-9.02.46-.25-.01-.51-.03-.76-.05-.99-.08-1.98-.21-2.96-.42-.77-.16-1.51-.48-2.26-.75-.3-.11-.41-.34-.41-.69.03-2.15.04-4.31.05-6.46v-.35c2.5 1.06 5.1 1.27 7.72 1.29 2.62.02 5.22-.16 7.72-1.19v.37c-.01 1.22-.03 2.44-.04 3.66v.99l-.05 3.14zm-9.37 1.34h.02-.02zm8.52 7.16c-.54.21-.71.24-1.26.38-1.55.4-3.13.53-4.72.57-2.18.05-4.35-.06-6.47-.59-.66-.16-1.34-.34-1.92-.71-.13-.08-.24-.32-.27-.51-.01-.07-.02-.37-.02-.81v-1.03c.02-2.1.09-5.25.09-5.53 1.47.63 2.98.96 4.51 1.13.28.03.56.06.84.08h.16l.48.03s5.63.35 9.4-.34l-.07 5.24v1.24c.03.33-.48.74-.75.85zM21.52 20.14c-.17-.05-.33-.07-.47-.13-.58-.28-1.19-.44-1.83-.46-.4-.01-.71-.2-.98-.47-.4-.41-.86-.71-1.41-.88-.4-.13-.72-.36-.94-.73-.31-.55-.74-.98-1.28-1.3-.34-.2-.56-.49-.68-.86-.18-.6-.49-1.12-.94-1.56a1.35 1.35 0 0 1-.42-.95c-.01-.6-.13-1.18-.39-1.72-.19-.39-.15-.77.02-1.17.18-.42.34-.85.46-1.29.13-.46.4-.72.86-.83.41-.11.82-.24 1.2-.41.45-.2.86-.19 1.32 0 .46.18.95.31 1.44.37.48.06.89.18 1.22.53.39.41.86.69 1.39.86.42.13.73.38.95.76.3.52.7.93 1.21 1.23.37.22.61.52.73.93.17.57.47 1.06.89 1.48.3.29.44.64.45 1.06.01.57.13 1.11.38 1.63.2.4.16.79-.02 1.2-.18.41-.34.83-.45 1.25-.12.46-.39.72-.85.85-.45.12-.88.3-1.32.45-.19.06-.38.11-.56.16zm5.12-.15c.64-.06 1.28-.1 1.93-.14.21-.01.41-.02.62-.04l.56-.03c.19 0 .4 0 .62-.01 4.34-.05 6.59 1.04 6.66 1.07.07.03.14.06.21.08.43.19.44.81.02 1.02-.01 0-.02 0-.03.01-.64.3-1.32.48-2.02.61-3.34.7-5.96.44-6.77.33-.28-.01-.55-.03-.83-.06-1.3-.11-2.58-.31-3.81-.73-.38-.13-.74-.31-1.09-.52-.29-.17-.29-.34-.01-.52.23-.15.48-.29.74-.38 1.02-.39 2.09-.6 3.18-.7zm11.3 3.93c0 .23-.07.4-.27.48-.44.2-.88.42-1.35.55-1.66.48-3.36.63-5.08.67-2.18.05-4.35-.04-6.47-.57-.67-.17-1.31-.45-1.95-.72-.14-.06-.3-.26-.31-.41-.04-.38-.01-.77 0-1.17 2.5 1.09 5.11 1.26 7.73 1.29 2.62.02 5.22-.15 7.7-1.19 0 .37-.02.71 0 1.06zm.38-3.63c-.53-.38-1.13-.61-1.75-.79h-.01c-.05-.02-.25-.08-.6-.16h-.01c-.3-.07-.71-.15-1.23-.23-.69-.11-1.58-.21-2.69-.28-.53-.03-1.11-.06-1.74-.07h-.33c-.49-.02-.99-.02-1.48 0-.98.04-1.95.17-2.92.33-.08.01-.16 0-.34.02.15-.41.26-.78.43-1.13.35-.73.37-1.43.06-2.19-.18-.46-.24-.98-.31-1.48-.07-.55-.29-1.02-.67-1.41-.34-.35-.59-.74-.73-1.21-.19-.6-.55-1.07-1.09-1.39-.41-.25-.73-.57-.98-.99-.32-.55-.81-.9-1.4-1.14-.36-.14-.73-.33-1.01-.59-.56-.52-1.17-.82-1.94-.88-.39-.03-.8-.14-1.16-.3-.71-.31-1.38-.29-2.08.02-.35.15-.72.27-1.09.36-.86.22-1.41.75-1.63 1.62-.09.36-.22.72-.37 1.05-.32.7-.34 1.38-.05 2.11.18.44.25.94.31 1.42.07.58.27 1.09.68 1.5.36.36.61.78.76 1.27.18.57.53 1.01 1.04 1.32.43.26.77.59 1.02 1.03.32.54.79.91 1.38 1.11.43.14.81.36 1.13.69.52.54 1.17.74 1.9.79.35.03.7.17 1.05.27.25.07.49.17.74.23.15.03.23.08.21.24v.19c-.03 4.43-.06 8.87-.1 13.3 0 .41-.17 2.82-.12 4.82 0 .36.02.71.05 1.03.06.84.18 1.49.41 1.7.7.64 2.04 1.04 2.96 1.23 2.85.59 5.73.69 8.63.39 1.31-.14 2.62-.32 3.86-.8.37-.14.73-.34 1.07-.57.43-.29.64-.7.64-1.24v-.97l.12-10.98v-.34c.01-1.16.03-2.29.04-3.35.02-1.64.04-3.1.05-4.19 0-.6-.24-1.01-.7-1.34z" />
</svg>