<?xml version="1.0" encoding="utf-8"?>
<svg viewBox="5.1284 3.443 31.7426 43.1141" width="31.7426" height="43.1141" xmlns="http://www.w3.org/2000/svg">
  <path style="fill: rgb(0, 0, 0); opacity: 1;" d="M 16.694 16.343 C 16.309 16.298 15.924 16.241 15.562 16.116 C 13.15 15.267 11.373 13.637 10.082 11.463 C 9.516 10.523 9.131 9.516 9.164 8.394 C 9.187 7.794 9.459 7.5 10.07 7.522 C 10.512 7.545 10.976 7.579 11.384 7.715 C 13.807 8.53 15.619 10.115 16.932 12.29 C 17.476 13.184 17.883 14.158 17.929 14.927 C 17.951 16.15 17.646 16.445 16.706 16.343 L 16.694 16.343 Z M 19.129 14.916 C 18.948 13.15 18.132 11.644 17.034 10.285 C 15.653 8.587 13.965 7.262 11.848 6.572 C 11.362 6.413 10.84 6.344 10.342 6.232 C 8.689 6.187 7.784 7.16 7.919 8.858 C 8.032 10.376 8.678 11.689 9.538 12.901 C 11.01 14.962 12.879 16.547 15.336 17.306 C 15.97 17.498 16.694 17.611 17.351 17.532 C 18.699 17.373 19.298 16.445 19.129 14.905 L 19.129 14.916 Z" transform="matrix(1.0000000000000002, 0, 0, 1, 0, 3.552713678800501e-15)"/>
  <path style="fill: rgb(0, 0, 0); opacity: 1;" d="M 35.513 34.584 C 34.245 34.732 33.588 35.128 25.3 35.105 C 25.017 35.093 24.722 35.071 24.439 35.048 C 23.319 34.958 22.197 34.81 21.088 34.573 C 20.216 34.391 19.378 34.029 18.529 33.724 C 18.189 33.599 18.065 33.338 18.065 32.942 C 18.099 30.508 18.11 28.062 18.121 25.627 L 18.121 25.231 C 20.951 26.431 23.895 26.669 26.863 26.692 C 29.829 26.715 32.773 26.511 35.603 25.345 L 35.603 25.764 C 35.592 27.145 35.57 28.526 35.558 29.908 L 35.558 31.029 L 35.502 34.584 L 35.513 34.584 Z M 24.903 36.101 L 24.926 36.101 L 24.903 36.101 Z M 34.55 44.209 C 33.939 44.446 33.746 44.48 33.123 44.639 C 31.369 45.092 29.579 45.239 27.78 45.284 C 25.311 45.341 22.854 45.217 20.454 44.616 C 19.706 44.435 18.936 44.231 18.28 43.812 C 18.132 43.722 18.007 43.45 17.974 43.235 C 17.962 43.156 17.951 42.816 17.951 42.318 L 17.951 41.151 C 17.974 38.774 18.053 35.207 18.053 34.89 C 19.717 35.603 21.428 35.977 23.16 36.17 C 23.476 36.204 23.794 36.237 24.11 36.26 L 24.292 36.26 L 24.836 36.294 C 24.836 36.294 31.21 36.69 35.479 35.909 L 35.4 41.842 L 35.4 43.246 C 35.433 43.62 34.857 44.084 34.55 44.209 Z M 17.046 19.253 C 16.853 19.197 16.672 19.174 16.513 19.105 C 15.856 18.789 15.166 18.608 14.441 18.585 C 13.988 18.574 13.637 18.359 13.331 18.052 C 12.879 17.588 12.357 17.248 11.734 17.056 C 11.282 16.909 10.92 16.649 10.67 16.23 C 10.32 15.607 9.832 15.12 9.221 14.758 C 8.837 14.531 8.587 14.203 8.451 13.784 C 8.248 13.105 7.896 12.516 7.387 12.017 C 7.09 11.737 6.919 11.349 6.911 10.942 C 6.9 10.262 6.764 9.606 6.469 8.994 C 6.254 8.553 6.299 8.123 6.492 7.67 C 6.696 7.194 6.877 6.707 7.013 6.209 C 7.161 5.688 7.466 5.394 7.987 5.269 C 8.451 5.145 8.915 4.997 9.346 4.805 C 9.855 4.578 10.32 4.59 10.84 4.805 C 11.362 5.009 11.916 5.156 12.471 5.224 C 13.014 5.291 13.479 5.428 13.852 5.824 C 14.294 6.288 14.826 6.606 15.426 6.798 C 15.901 6.945 16.253 7.228 16.502 7.659 C 16.842 8.247 17.294 8.712 17.872 9.051 C 18.291 9.301 18.563 9.64 18.699 10.104 C 18.891 10.749 19.23 11.304 19.706 11.779 C 20.046 12.108 20.205 12.505 20.216 12.98 C 20.227 13.625 20.363 14.237 20.646 14.826 C 20.872 15.279 20.827 15.72 20.624 16.184 C 20.42 16.649 20.238 17.124 20.113 17.6 C 19.978 18.121 19.672 18.415 19.152 18.563 C 18.642 18.698 18.155 18.902 17.657 19.072 C 17.442 19.139 17.227 19.197 17.023 19.253 L 17.046 19.253 Z M 22.842 19.083 C 23.567 19.015 24.292 18.97 25.028 18.924 C 25.266 18.913 25.492 18.902 25.73 18.879 L 26.364 18.845 C 26.579 18.845 26.817 18.845 27.066 18.834 C 31.98 18.778 34.528 20.012 34.607 20.046 C 34.687 20.08 34.765 20.113 34.845 20.136 C 35.332 20.351 35.343 21.054 34.868 21.291 C 34.857 21.291 34.845 21.291 34.834 21.303 C 34.109 21.642 33.339 21.846 32.547 21.993 C 28.765 22.786 25.797 22.491 24.881 22.367 C 24.564 22.356 24.258 22.333 23.941 22.298 C 22.469 22.174 21.02 21.948 19.627 21.473 C 19.197 21.325 18.789 21.121 18.393 20.884 C 18.065 20.691 18.065 20.499 18.381 20.295 C 18.642 20.125 18.925 19.966 19.219 19.864 C 20.375 19.423 21.585 19.185 22.82 19.072 L 22.842 19.083 Z M 35.637 23.533 C 35.637 23.794 35.558 23.986 35.332 24.076 C 34.834 24.303 34.335 24.552 33.804 24.699 C 31.924 25.243 29.998 25.412 28.051 25.458 C 25.582 25.515 23.126 25.412 20.725 24.812 C 19.967 24.62 19.242 24.303 18.518 23.998 C 18.359 23.929 18.177 23.703 18.166 23.533 C 18.121 23.102 18.155 22.661 18.166 22.208 C 20.997 23.442 23.953 23.635 26.919 23.669 C 29.886 23.691 32.829 23.499 35.637 22.322 C 35.637 22.741 35.615 23.125 35.637 23.521 L 35.637 23.533 Z M 36.067 19.423 C 35.468 18.993 34.788 18.732 34.086 18.529 L 34.075 18.529 C 34.019 18.505 33.792 18.438 33.396 18.347 L 33.385 18.347 C 33.045 18.268 32.581 18.177 31.992 18.086 C 31.21 17.962 30.202 17.849 28.945 17.77 C 28.346 17.736 27.688 17.702 26.975 17.691 L 26.602 17.691 C 26.047 17.667 25.481 17.667 24.926 17.691 C 23.816 17.736 22.718 17.882 21.62 18.064 C 21.529 18.075 21.439 18.064 21.235 18.086 C 21.404 17.622 21.529 17.203 21.722 16.807 C 22.118 15.98 22.141 15.188 21.789 14.327 C 21.585 13.807 21.518 13.218 21.439 12.651 C 21.359 12.029 21.11 11.497 20.68 11.055 C 20.295 10.659 20.012 10.217 19.853 9.685 C 19.638 9.006 19.23 8.474 18.619 8.111 C 18.155 7.828 17.792 7.466 17.51 6.991 C 17.147 6.368 16.593 5.971 15.924 5.699 C 15.516 5.541 15.097 5.326 14.781 5.031 C 14.147 4.442 13.456 4.103 12.584 4.035 C 12.142 4.001 11.678 3.877 11.27 3.695 C 10.466 3.344 9.708 3.367 8.915 3.718 C 8.519 3.888 8.1 4.023 7.681 4.126 C 6.707 4.375 6.084 4.975 5.835 5.96 C 5.734 6.368 5.586 6.775 5.416 7.148 C 5.055 7.941 5.031 8.712 5.36 9.538 C 5.564 10.036 5.643 10.602 5.711 11.145 C 5.79 11.802 6.017 12.38 6.481 12.844 C 6.888 13.251 7.172 13.728 7.341 14.282 C 7.545 14.927 7.941 15.426 8.519 15.776 C 9.006 16.071 9.391 16.445 9.674 16.943 C 10.036 17.555 10.569 17.974 11.237 18.2 C 11.723 18.359 12.153 18.608 12.516 18.981 C 13.105 19.593 13.84 19.819 14.667 19.876 C 15.064 19.91 15.46 20.068 15.856 20.181 C 16.139 20.261 16.411 20.374 16.694 20.442 C 16.864 20.476 16.954 20.532 16.932 20.714 L 16.932 20.929 C 16.898 25.945 16.864 30.972 16.819 35.988 C 16.819 36.452 16.627 39.181 16.683 41.446 C 16.683 41.854 16.706 42.25 16.739 42.612 C 16.808 43.563 16.943 44.299 17.203 44.537 C 17.996 45.262 19.513 45.714 20.555 45.93 C 23.783 46.597 27.043 46.711 30.327 46.371 C 31.81 46.213 33.293 46.009 34.698 45.465 C 35.117 45.307 35.524 45.08 35.91 44.82 C 36.396 44.491 36.634 44.027 36.634 43.416 L 36.634 42.318 L 36.77 29.885 L 36.77 29.5 C 36.781 28.187 36.804 26.907 36.815 25.707 C 36.838 23.85 36.86 22.197 36.871 20.963 C 36.871 20.283 36.6 19.819 36.079 19.446 L 36.067 19.423 Z" transform="matrix(1.0000000000000002, 0, 0, 1, 0, 3.552713678800501e-15)"/>
</svg>