<?xml version="1.0" encoding="utf-8"?>
<svg viewBox="3.6208 0 42.7585 50.0002" width="42.7585" height="50.0002"
  xmlns="http://www.w3.org/2000/svg">
  <path class="fil0"
    d="M 20.223 18.454 L 41.789 48.137 C 42.539 49.17 44.017 49.255 44.801 48.614 C 45.762 47.916 45.976 46.564 45.278 45.603 L 23.711 15.921 L 20.223 18.454 Z"
    style="fill: rgb(23, 66, 113);" transform="matrix(1, 0, 0, 1, 0, 7.105427357601002e-15)" />
  <path class="fil1"
    d="M 16.748 19.339 L 23.468 14.457 L 24.43 13.757 L 24.209 11.646 C 24.184 11.411 24.287 11.18 24.478 11.041 L 27.761 8.655 C 27.954 8.516 28.205 8.489 28.421 8.587 L 29.933 9.259 L 32.665 7.275 L 28.789 1.94 L 25.247 4.512 C 25.753 5.209 26.565 5.986 25.866 6.493 L 22.578 8.882 C 21.872 9.396 21.383 8.366 20.924 7.735 L 11.596 14.511 C 7.546 17.453 4.57 22.935 5.885 27.633 C 7.496 24.48 11.638 17.731 16.748 19.339 Z"
    style="fill: rgb(154, 184, 212);" transform="matrix(1, 0, 0, 1, 0, 7.105427357601002e-15)" />
  <path class="fil2"
    d="M 43.868 49.866 C 42.462 50.268 40.942 49.747 40.084 48.567 L 18.519 18.884 L 16.615 20.267 C 15.967 20.738 15.437 19.664 13.446 20.236 C 9.139 21.469 5.831 29.148 5.798 29.225 C 5.576 29.748 4.842 29.767 4.592 29.257 C 1.853 23.67 5.284 16.649 10.184 13.089 L 20.049 5.921 C 20.757 5.408 21.244 6.438 21.703 7.069 L 23.919 5.46 C 23.413 4.763 22.601 3.987 23.3 3.479 L 27.914 0.126 C 28.21 -0.088 28.625 -0.023 28.84 0.272 L 33.498 6.683 C 33.712 6.978 33.647 7.394 33.35 7.609 L 29.772 10.208 C 29.581 10.348 29.329 10.374 29.113 10.277 L 27.601 9.604 L 24.937 11.538 C 25.232 14.33 25.451 13.847 24.154 14.79 L 45.72 44.473 C 47.147 46.437 46.134 49.216 43.868 49.866 Z M 22.837 14.107 L 23.8 13.407 L 23.577 11.297 C 23.553 11.061 23.655 10.829 23.848 10.691 L 27.131 8.306 C 27.322 8.166 27.574 8.14 27.79 8.236 L 29.303 8.91 L 32.033 6.925 L 28.157 1.59 L 24.616 4.162 C 25.122 4.859 25.934 5.635 25.235 6.143 L 21.947 8.533 C 21.24 9.047 20.751 8.016 20.293 7.384 L 10.964 14.162 C 6.915 17.104 3.94 22.585 5.253 27.284 C 6.865 24.13 11.007 17.38 16.116 18.99 L 22.837 14.107 Z M 19.591 18.105 L 41.158 47.787 C 41.908 48.819 43.386 48.905 44.169 48.264 C 45.131 47.566 45.345 46.215 44.646 45.254 L 23.08 15.57 L 19.591 18.105 Z"
    transform="matrix(1, 0, 0, 1, 0, 7.105427357601002e-15)" />
</svg>