<?xml version="1.0" encoding="utf-8"?>
<svg viewBox="4.1035 4.0512 33.7925 45.898" width="33.7925" height="45.898" xmlns="http://www.w3.org/2000/svg">
  <path style="fill: rgb(0, 0, 0); opacity: 1;" d="M 16.416 17.784 C 16.006 17.736 15.596 17.676 15.211 17.543 C 12.643 16.639 10.751 14.903 9.377 12.589 C 8.774 11.588 8.364 10.516 8.4 9.322 C 8.424 8.683 8.714 8.37 9.364 8.394 C 9.835 8.418 10.329 8.454 10.763 8.599 C 13.342 9.467 15.271 11.154 16.669 13.469 C 17.248 14.421 17.682 15.458 17.73 16.277 C 17.754 17.579 17.429 17.893 16.428 17.784 L 16.416 17.784 Z M 19.008 16.265 C 18.815 14.385 17.947 12.782 16.778 11.335 C 15.307 9.527 13.511 8.117 11.257 7.382 C 10.739 7.213 10.184 7.14 9.654 7.02 C 7.894 6.972 6.93 8.008 7.074 9.816 C 7.195 11.432 7.882 12.83 8.798 14.12 C 10.365 16.314 12.354 18.001 14.97 18.809 C 15.645 19.014 16.416 19.134 17.115 19.05 C 18.55 18.881 19.188 17.893 19.008 16.253 L 19.008 16.265 Z" transform="matrix(1.0000000000000002, 0, 0, 1, 0, 3.552713678800501e-15)"/>
  <path style="fill: rgb(0, 0, 0); opacity: 1;" d="M 36.45 37.203 C 35.1 37.36 34.401 37.782 25.577 37.758 C 25.276 37.745 24.962 37.721 24.661 37.697 C 23.468 37.601 22.274 37.444 21.093 37.191 C 20.165 36.998 19.273 36.612 18.369 36.287 C 18.007 36.154 17.875 35.877 17.875 35.455 C 17.911 32.864 17.923 30.26 17.935 27.668 L 17.935 27.246 C 20.948 28.524 24.082 28.777 27.241 28.801 C 30.399 28.826 33.533 28.609 36.546 27.367 L 36.546 27.813 C 36.534 29.284 36.51 30.754 36.498 32.225 L 36.498 33.418 L 36.438 37.203 L 36.45 37.203 Z M 25.155 38.818 L 25.179 38.818 L 25.155 38.818 Z M 35.425 47.449 C 34.774 47.702 34.569 47.738 33.906 47.907 C 32.038 48.389 30.133 48.546 28.217 48.594 C 25.589 48.654 22.973 48.522 20.418 47.883 C 19.622 47.69 18.803 47.473 18.104 47.027 C 17.947 46.931 17.814 46.641 17.778 46.412 C 17.766 46.328 17.754 45.966 17.754 45.436 L 17.754 44.194 C 17.778 41.663 17.863 37.866 17.863 37.529 C 19.634 38.288 21.455 38.686 23.299 38.891 C 23.636 38.927 23.974 38.963 24.311 38.987 L 24.504 38.987 L 25.083 39.023 C 25.083 39.023 31.869 39.445 36.414 38.613 L 36.329 44.93 L 36.329 46.424 C 36.365 46.822 35.751 47.316 35.425 47.449 Z M 16.79 20.882 C 16.585 20.822 16.392 20.798 16.223 20.725 C 15.524 20.388 14.789 20.195 14.017 20.171 C 13.535 20.159 13.161 19.93 12.836 19.604 C 12.354 19.11 11.799 18.748 11.136 18.543 C 10.654 18.387 10.269 18.11 10.003 17.664 C 9.63 17.001 9.111 16.482 8.46 16.097 C 8.051 15.855 7.785 15.506 7.641 15.06 C 7.424 14.337 7.05 13.71 6.508 13.179 C 6.192 12.881 6.01 12.468 6.001 12.034 C 5.989 11.311 5.845 10.612 5.531 9.961 C 5.302 9.491 5.35 9.033 5.555 8.551 C 5.772 8.044 5.965 7.526 6.11 6.996 C 6.267 6.441 6.592 6.128 7.147 5.995 C 7.641 5.863 8.135 5.706 8.593 5.501 C 9.135 5.26 9.63 5.272 10.184 5.501 C 10.739 5.718 11.329 5.875 11.92 5.947 C 12.498 6.019 12.993 6.164 13.39 6.586 C 13.861 7.08 14.427 7.418 15.066 7.623 C 15.572 7.779 15.946 8.081 16.211 8.539 C 16.573 9.165 17.055 9.66 17.67 10.021 C 18.116 10.287 18.405 10.648 18.55 11.142 C 18.755 11.829 19.116 12.42 19.622 12.926 C 19.984 13.276 20.153 13.698 20.165 14.204 C 20.177 14.891 20.322 15.542 20.623 16.169 C 20.864 16.651 20.816 17.121 20.599 17.615 C 20.382 18.11 20.189 18.616 20.056 19.122 C 19.912 19.677 19.586 19.99 19.032 20.147 C 18.489 20.291 17.971 20.508 17.441 20.689 C 17.212 20.761 16.983 20.822 16.766 20.882 L 16.79 20.882 Z M 22.961 20.701 C 23.733 20.629 24.504 20.581 25.288 20.532 C 25.541 20.52 25.782 20.508 26.035 20.484 L 26.71 20.448 C 26.939 20.448 27.192 20.448 27.457 20.436 C 32.689 20.376 35.401 21.69 35.485 21.726 C 35.57 21.762 35.654 21.798 35.739 21.822 C 36.257 22.051 36.269 22.799 35.763 23.052 C 35.751 23.052 35.739 23.052 35.727 23.064 C 34.955 23.425 34.135 23.642 33.292 23.799 C 29.266 24.643 26.107 24.329 25.131 24.197 C 24.794 24.185 24.468 24.161 24.131 24.124 C 22.564 23.992 21.021 23.751 19.538 23.245 C 19.08 23.088 18.646 22.871 18.224 22.618 C 17.875 22.413 17.875 22.208 18.212 21.991 C 18.489 21.81 18.791 21.641 19.104 21.533 C 20.334 21.063 21.623 20.81 22.937 20.689 L 22.961 20.701 Z M 36.582 25.438 C 36.582 25.716 36.498 25.921 36.257 26.017 C 35.727 26.258 35.196 26.523 34.63 26.68 C 32.629 27.259 30.579 27.439 28.506 27.488 C 25.878 27.548 23.263 27.439 20.707 26.8 C 19.9 26.596 19.128 26.258 18.357 25.933 C 18.188 25.86 17.995 25.619 17.983 25.438 C 17.935 24.98 17.971 24.51 17.983 24.028 C 20.997 25.342 24.143 25.547 27.301 25.583 C 30.459 25.607 33.593 25.402 36.582 24.149 C 36.582 24.595 36.558 25.004 36.582 25.426 L 36.582 25.438 Z M 37.04 21.063 C 36.402 20.605 35.678 20.327 34.931 20.111 L 34.919 20.111 C 34.859 20.086 34.618 20.014 34.196 19.918 L 34.184 19.918 C 33.822 19.833 33.328 19.737 32.701 19.64 C 31.869 19.508 30.796 19.387 29.458 19.303 C 28.82 19.267 28.12 19.231 27.361 19.219 L 26.963 19.219 C 26.373 19.194 25.77 19.194 25.179 19.219 C 23.998 19.267 22.829 19.423 21.66 19.616 C 21.563 19.628 21.467 19.616 21.25 19.64 C 21.43 19.146 21.563 18.7 21.768 18.278 C 22.19 17.398 22.214 16.555 21.84 15.638 C 21.623 15.084 21.551 14.457 21.467 13.854 C 21.382 13.192 21.117 12.625 20.659 12.155 C 20.249 11.733 19.948 11.263 19.779 10.696 C 19.55 9.973 19.116 9.407 18.465 9.021 C 17.971 8.719 17.585 8.334 17.284 7.828 C 16.898 7.165 16.308 6.743 15.596 6.453 C 15.162 6.285 14.716 6.056 14.379 5.742 C 13.704 5.115 12.969 4.754 12.04 4.681 C 11.57 4.645 11.076 4.513 10.642 4.32 C 9.786 3.946 8.979 3.97 8.135 4.344 C 7.713 4.525 7.267 4.669 6.821 4.778 C 5.784 5.043 5.121 5.682 4.856 6.731 C 4.748 7.165 4.591 7.598 4.41 7.996 C 4.025 8.84 4 9.66 4.35 10.54 C 4.567 11.07 4.651 11.673 4.724 12.251 C 4.808 12.95 5.049 13.565 5.543 14.059 C 5.977 14.493 6.279 15 6.459 15.59 C 6.676 16.277 7.098 16.808 7.713 17.181 C 8.231 17.495 8.641 17.893 8.943 18.423 C 9.328 19.074 9.895 19.52 10.606 19.761 C 11.124 19.93 11.582 20.195 11.968 20.593 C 12.595 21.244 13.378 21.485 14.258 21.545 C 14.68 21.581 15.102 21.75 15.524 21.87 C 15.825 21.955 16.115 22.075 16.416 22.148 C 16.597 22.184 16.693 22.244 16.669 22.437 L 16.669 22.666 C 16.633 28.006 16.597 33.358 16.549 38.698 C 16.549 39.192 16.344 42.097 16.404 44.508 C 16.404 44.942 16.428 45.364 16.464 45.749 C 16.537 46.762 16.681 47.545 16.958 47.799 C 17.802 48.57 19.417 49.052 20.526 49.281 C 23.962 49.992 27.433 50.113 30.929 49.751 C 32.508 49.583 34.087 49.366 35.582 48.787 C 36.028 48.618 36.462 48.377 36.872 48.1 C 37.39 47.75 37.643 47.256 37.643 46.605 L 37.643 45.436 L 37.788 32.201 L 37.788 31.791 C 37.8 30.393 37.824 29.03 37.836 27.753 C 37.86 25.776 37.884 24.016 37.896 22.702 C 37.896 21.979 37.607 21.485 37.052 21.087 L 37.04 21.063 Z" transform="matrix(1.0000000000000002, 0, 0, 1, 0, 3.552713678800501e-15)"/>
</svg>