<svg viewBox="5.4379 1.0966 39.1243 47.8069" width="39.1243" height="47.8069" xmlns="http://www.w3.org/2000/svg">
  <defs>
    <clipPath id="ce238b224d">
      <path d="M 133.925781 0 L 1054.605469 0 L 1054.605469 1125 L 133.925781 1125 Z M 133.925781 0 " clip-rule="nonzero"/>
    </clipPath>
  </defs>
  <path fill="#242426" d="M 11.595 17.203 L 36.576 17.203 C 37.438 17.203 38.136 16.498 38.136 15.639 C 38.136 14.78 37.438 14.074 36.576 14.074 L 11.595 14.074 C 10.735 14.074 10.034 14.78 10.034 15.639 C 10.034 16.498 10.735 17.203 11.595 17.203" fill-opacity="1" fill-rule="nonzero" style="" transform="matrix(1.0000000000000002, 0, 0, 1, 0, 3.552713678800501e-15)"/>
  <path fill="#242426" d="M 38.529 20.335 L 11.595 20.335 C 10.735 20.335 10.034 21.039 10.034 21.9 C 10.034 22.757 10.735 23.467 11.595 23.467 L 38.529 23.467 C 39.386 23.467 40.091 22.757 40.091 21.9 C 40.091 21.039 39.386 20.335 38.529 20.335" fill-opacity="1" fill-rule="nonzero" style="" transform="matrix(1.0000000000000002, 0, 0, 1, 0, 3.552713678800501e-15)"/>
  <path fill="#242426" d="M 37.002 26.594 L 11.595 26.594 C 10.735 26.594 10.034 27.298 10.034 28.159 C 10.034 29.022 10.735 29.728 11.595 29.728 L 37.002 29.728 C 37.858 29.728 38.562 29.022 38.562 28.159 C 38.562 27.298 37.858 26.594 37.002 26.594" fill-opacity="1" fill-rule="nonzero" style="" transform="matrix(1.0000000000000002, 0, 0, 1, 0, 3.552713678800501e-15)"/>
  <path fill="#242426" d="M 21.955 32.854 L 11.604 32.854 C 10.746 32.854 10.042 33.564 10.042 34.419 C 10.042 35.283 10.746 35.986 11.604 35.986 L 21.955 35.986 C 22.813 35.986 23.518 35.283 23.518 34.419 C 23.518 33.564 22.813 32.854 21.955 32.854" fill-opacity="1" fill-rule="nonzero" style="" transform="matrix(1.0000000000000002, 0, 0, 1, 0, 3.552713678800501e-15)"/>
  <g clip-path="url(#ce238b224d)" transform="matrix(0.0424950011074543, 0, 0, 0.04249500110745431, -0.2533179873268949, 1.0965630048447288)" style="">
    <path fill="#242426" d="M 1017.925781 988.371094 C 1017.925781 1039.207031 977.976562 1088.144531 927.238281 1088.144531 L 264.164062 1088.144531 C 213.425781 1088.144531 170.78125 1039.207031 170.78125 988.371094 L 170.78125 178.078125 C 170.78125 129.9375 210.230469 94.480469 257.671875 90.886719 C 251.679688 118.253906 254.175781 141.625 266.761719 146.417969 C 282.839844 152.410156 307.507812 130.4375 324.589844 93.582031 L 376.023438 93.582031 C 369.933594 121.25 373.128906 143.121094 385.8125 147.914062 C 401.792969 153.910156 427.160156 130.4375 444.238281 93.582031 L 495.777344 93.582031 C 489.683594 121.25 492.878906 143.121094 505.464844 147.914062 C 521.542969 153.910156 546.910156 130.4375 563.992188 93.582031 L 615.527344 93.582031 C 609.335938 121.25 612.628906 143.121094 625.214844 147.914062 C 641.195312 153.910156 666.5625 130.4375 683.742188 93.582031 L 735.175781 93.582031 C 729.085938 121.25 732.28125 143.121094 744.964844 147.914062 C 760.945312 153.910156 786.3125 130.4375 803.394531 93.582031 L 854.929688 93.582031 C 848.835938 121.25 852.03125 143.121094 864.617188 147.914062 C 880.695312 153.910156 906.066406 130.4375 923.144531 93.582031 L 927.238281 93.582031 C 977.976562 93.582031 1017.925781 127.242188 1017.925781 178.078125 Z M 937.226562 54.132812 C 943.519531 26.367188 939.621094 5.691406 926.9375 0.898438 C 910.859375 -5.195312 884.792969 19.875 867.710938 56.730469 L 816.175781 56.730469 C 822.269531 29.164062 819.074219 7.191406 806.488281 2.398438 C 790.507812 -3.59375 765.039062 19.875 747.960938 56.730469 L 696.527344 56.730469 C 702.617188 29.164062 699.421875 7.191406 686.738281 2.398438 C 670.757812 -3.59375 645.390625 19.875 628.308594 56.730469 L 576.773438 56.730469 C 582.867188 29.164062 579.671875 7.191406 567.085938 2.398438 C 551.007812 -3.59375 525.636719 19.875 508.558594 56.730469 L 457.023438 56.730469 C 463.214844 29.164062 460.019531 7.191406 447.335938 2.398438 C 431.355469 -3.59375 405.988281 19.875 388.808594 56.730469 L 337.371094 56.730469 C 343.464844 29.164062 340.269531 7.191406 327.585938 2.398438 C 311.605469 -3.59375 286.234375 19.875 269.15625 56.730469 L 264.164062 56.730469 C 193.351562 56.730469 133.925781 107.167969 133.925781 178.078125 L 133.925781 988.371094 C 133.925781 1059.28125 193.351562 1125 264.164062 1125 L 927.238281 1125 C 998.148438 1125 1054.878906 1059.28125 1054.878906 988.371094 L 1054.878906 178.078125 C 1054.78125 110.0625 1003.84375 58.226562 937.226562 54.132812 " fill-opacity="1" fill-rule="nonzero"/>
  </g>
</svg>