<svg width="50" height="50" xmlns="http://www.w3.org/2000/svg">
    <path style="fill:#000; opacity: 0.5;"
        d="M38.907 9.108H33.85V6.423c0-.766-.591-1.392-1.333-1.392h-1.853L28.25.692A1.34 1.34 0 0 0 27.098 0H22.91c-.474 0-.915.264-1.152.692l-2.414 4.331h-1.845c-.734 0-1.334.618-1.334 1.392v2.684h-5.064c-2.082 0-3.77 1.762-3.77 3.936v33.029c0 2.174 1.688 3.936 3.77 3.936h27.798c2.082 0 3.77-1.762 3.77-3.936v-33.02c.008-2.174-1.68-3.936-3.762-3.936zM23.675 2.775h2.65l1.254 2.248h-5.158l1.254-2.248zm-4.844 5.031h12.361v4.579H18.831V7.806zm21.196 38.258h-.008c0 .642-.497 1.161-1.112 1.161H11.109c-.615 0-1.112-.519-1.112-1.161v-33.02c0-.643.497-1.161 1.112-1.161h5.064v1.885c0 .766.592 1.392 1.333 1.392h15.019c.734 0 1.333-.618 1.333-1.392v-1.885h5.056c.616 0 1.113.518 1.113 1.161v33.02z" />
    <path style="fill:#000; opacity: 0.5;"
        d="M36.646 18.026h-7.683c-.733 0-1.333.617-1.333 1.391v9.124c0 .766.592 1.392 1.333 1.392h7.683c.734 0 1.333-.618 1.333-1.392v-9.132c0-.758-.591-1.383-1.333-1.383zm-1.325 9.14h-5.025v-6.357h5.025v6.357zM24.088 19.804H13.739c-.733 0-1.333.618-1.333 1.392 0 .774.592 1.391 1.333 1.391h10.349c.734 0 1.333-.617 1.333-1.391 0-.766-.591-1.392-1.333-1.392zM24.088 27.158H13.739c-.733 0-1.333.617-1.333 1.391s.592 1.392 1.333 1.392h10.349c.734 0 1.333-.618 1.333-1.392 0-.766-.591-1.391-1.333-1.391zM36.646 34.511H13.739c-.733 0-1.333.618-1.333 1.392 0 .765.592 1.391 1.333 1.391h22.923c.734 0 1.333-.617 1.333-1.391-.016-.766-.607-1.392-1.349-1.392zM36.646 41.865H13.739c-.733 0-1.333.617-1.333 1.391s.592 1.392 1.333 1.392h22.923c.734 0 1.333-.618 1.333-1.392-.016-.774-.607-1.391-1.349-1.391z" />
</svg>