<svg viewBox="0 0 50 50" width="50" height="50" xmlns="http://www.w3.org/2000/svg">
  <defs>
    <style>
      .cls-1 { fill: #000; opacity: 0.5; }
    </style>
  </defs>
  <g id="SVGRepo_iconCarrier"
    transform="matrix(0.12201900035142899, 0, 0, 0.12737801671028137, 1.2366629838943481, 0)"
    class="cls-1">
    <g>
      <g>
        <path
          d="M 308.723 71.499 L 267.285 71.499 L 267.285 50.424 C 267.285 44.412 262.437 39.499 256.36 39.499 L 241.168 39.499 L 221.386 5.43 C 219.447 2.133 215.826 0 211.948 0 L 177.621 0 C 173.742 0 170.122 2.069 168.183 5.43 L 148.401 39.434 L 133.274 39.434 C 127.262 39.434 122.349 44.283 122.349 50.359 L 122.349 71.434 L 80.844 71.434 C 63.777 71.434 49.943 85.268 49.943 102.335 L 49.943 361.632 C 49.943 378.699 63.777 392.533 80.844 392.533 L 308.658 392.533 C 325.725 392.533 339.559 378.699 339.559 361.632 L 339.559 102.4 C 339.624 85.333 325.79 71.499 308.723 71.499 Z M 183.891 21.786 L 205.612 21.786 L 215.891 39.434 L 173.612 39.434 L 183.891 21.786 Z M 144.198 61.285 L 245.499 61.285 L 245.499 97.228 L 144.198 97.228 L 144.198 61.285 Z M 317.903 361.632 L 317.838 361.632 C 317.838 366.674 313.765 370.747 308.723 370.747 L 80.909 370.747 C 75.867 370.747 71.794 366.674 71.794 361.632 L 71.794 102.4 C 71.794 97.358 75.867 93.285 80.909 93.285 L 122.412 93.285 L 122.412 108.089 C 122.412 114.101 127.261 119.014 133.337 119.014 L 256.424 119.014 C 262.436 119.014 267.349 114.166 267.349 108.089 L 267.349 93.285 L 308.787 93.285 C 313.829 93.285 317.902 97.358 317.902 102.4 L 317.902 361.632 L 317.903 361.632 Z" />
      </g>
    </g>
    <g>
      <g>
        <path
          d="M290.198,141.511h-62.966c-6.012,0-10.925,4.848-10.925,10.925v71.628c0,6.012,4.849,10.925,10.925,10.925h62.966 c6.012,0,10.925-4.848,10.925-10.925v-71.693C301.123,146.424,296.275,141.511,290.198,141.511z M279.337,213.269h-41.18v-49.907 h41.18V213.269z" />
      </g>
    </g>
    <g>
      <g>
        <path
          d="M187.281,155.475h-84.816c-6.012,0-10.925,4.849-10.925,10.925c0,6.077,4.849,10.925,10.925,10.925h84.816 c6.012,0,10.925-4.849,10.925-10.925C198.206,160.388,193.357,155.475,187.281,155.475z" />
      </g>
    </g>
    <g>
      <g>
        <path
          d="M187.281,213.204h-84.816c-6.012,0-10.925,4.849-10.925,10.925c0,6.077,4.849,10.925,10.925,10.925h84.816 c6.012,0,10.925-4.849,10.925-10.925C198.206,218.117,193.357,213.204,187.281,213.204z" />
      </g>
    </g>
    <g>
      <g>
        <path
          d="M290.198,270.933H102.465c-6.012,0-10.925,4.848-10.925,10.925c0,6.012,4.849,10.925,10.925,10.925h187.863 c6.012,0,10.925-4.849,10.925-10.925C301.123,275.846,296.275,270.933,290.198,270.933z" />
      </g>
    </g>
    <g>
      <g>
        <path
          d="M290.198,328.663H102.465c-6.012,0-10.925,4.849-10.925,10.925s4.849,10.925,10.925,10.925h187.863 c6.012,0,10.925-4.848,10.925-10.925C301.123,333.511,296.275,328.663,290.198,328.663z" />
      </g>
    </g>
  </g>
</svg>