<?xml version="1.0" encoding="utf-8"?>
<svg viewBox="0 3.2296 50.0002 43.5414" width="50.0002" height="43.5414"
  xmlns="http://www.w3.org/2000/svg">
  <path
    d="M 37.903 24.997 C 37.903 34.93 27.151 41.138 18.549 36.172 C 14.556 33.867 12.098 29.608 12.098 24.997 L 4.033 24.997 C 4.033 41.138 21.506 51.225 35.484 43.156 C 41.971 39.411 45.967 32.488 45.967 24.997 L 37.903 24.997 Z"
    style="fill:#39b54a"
    transform="matrix(1, 0, 0, 1, 1.4210854715202004e-14, 1.7763568394002505e-15)" />
  <path
    d="M 37.903 24.997 C 37.903 34.93 27.151 41.138 18.549 36.172 C 14.556 33.867 12.098 29.608 12.098 24.997 L 4.033 24.997 C 4.033 41.138 21.506 51.225 35.484 43.156 C 41.971 39.411 45.967 32.488 45.967 24.997 L 37.903 24.997 Z"
    style="fill:#39b54a"
    transform="matrix(1, 0, 0, 1, 1.4210854715202004e-14, 1.7763568394002505e-15)" />
  <path
    d="M 45.967 24.997 C 45.967 8.858 28.495 -1.231 14.517 6.84 C 8.029 10.585 4.033 17.506 4.033 24.997 L 12.098 24.997 C 12.098 15.065 22.85 8.858 31.452 13.824 C 35.444 16.128 37.903 20.388 37.903 24.997 L 45.967 24.997 Z"
    style="fill:#88d392"
    transform="matrix(1, 0, 0, 1, 1.4210854715202004e-14, 1.7763568394002505e-15)" />
  <path
    d="M 45.83 27.417 C 45.585 29.567 45.002 31.666 44.105 33.634 L 41.935 36.287 L 36.863 30.086 C 37.23 29.229 37.502 28.334 37.677 27.417 L 45.83 27.417 Z"
    style="fill:#231f20;opacity:0.1"
    transform="matrix(1, 0, 0, 1, 1.4210854715202004e-14, 1.7763568394002505e-15)" />
  <polygon points="15.323 24.997 0.808 24.997 8.065 16.127 15.323 24.997" style="fill:#39b54a"
    transform="matrix(1, 0, 0, 1, 1.4210854715202004e-14, 1.7763568394002505e-15)" />
  <polygon points="34.677 24.997 49.193 24.997 41.935 33.868 34.677 24.997" style="fill:#88d392"
    transform="matrix(1, 0, 0, 1, 1.4210854715202004e-14, 1.7763568394002505e-15)" />
  <path
    d="M 40.322 24.997 L 39.516 26.61 L 36.734 32.166 C 36.461 32.715 35.902 33.062 35.29 33.062 L 14.71 33.062 C 14.098 33.062 13.539 32.715 13.267 32.166 L 10.485 26.61 L 9.678 24.997 L 40.322 24.997 Z"
    style="fill:#c1dfea"
    transform="matrix(1, 0, 0, 1, 1.4210854715202004e-14, 1.7763568394002505e-15)" />
  <path
    d="M 36.736 17.825 L 40.322 24.997 L 9.678 24.997 L 13.264 17.825 C 13.538 17.279 14.096 16.933 14.707 16.933 L 35.294 16.933 C 35.905 16.933 36.463 17.279 36.736 17.825 Z"
    style="fill:#d4eef9"
    transform="matrix(1, 0, 0, 1, 1.4210854715202004e-14, 1.7763568394002505e-15)" />
  <polygon points="40.322 24.997 39.516 26.61 10.485 26.61 9.678 24.997 40.322 24.997"
    style="fill:#231f20;opacity:0.1"
    transform="matrix(1, 0, 0, 1, 1.4210854715202004e-14, 1.7763568394002505e-15)" />
  <path
    d="M 20.162 33.062 C 19.717 33.062 19.355 32.701 19.355 32.255 L 19.355 28.223 C 19.355 27.603 20.027 27.214 20.565 27.525 C 20.814 27.669 20.968 27.935 20.968 28.223 L 20.968 32.255 C 20.968 32.701 20.607 33.062 20.162 33.062 Z"
    style="fill:#231f20;opacity:0.1"
    transform="matrix(1, 0, 0, 1, 1.4210854715202004e-14, 1.7763568394002505e-15)" />
  <path
    d="M 16.936 33.062 C 16.491 33.062 16.13 32.701 16.13 32.255 L 16.13 28.223 C 16.13 27.603 16.801 27.214 17.339 27.525 C 17.589 27.669 17.743 27.935 17.743 28.223 L 17.743 32.255 C 17.743 32.701 17.381 33.062 16.936 33.062 Z"
    style="fill:#231f20;opacity:0.1"
    transform="matrix(1, 0, 0, 1, 1.4210854715202004e-14, 1.7763568394002505e-15)" />
  <path
    d="M 29.839 33.062 C 29.394 33.062 29.032 32.701 29.032 32.255 L 29.032 28.223 C 29.032 27.603 29.704 27.214 30.242 27.525 C 30.491 27.669 30.645 27.935 30.645 28.223 L 30.645 32.255 C 30.645 32.701 30.284 33.062 29.839 33.062 Z"
    style="fill:#231f20;opacity:0.1"
    transform="matrix(1, 0, 0, 1, 1.4210854715202004e-14, 1.7763568394002505e-15)" />
  <path
    d="M 33.065 33.062 C 32.619 33.062 32.258 32.701 32.258 32.255 L 32.258 28.223 C 32.258 27.603 32.93 27.214 33.468 27.525 C 33.717 27.669 33.871 27.935 33.871 28.223 L 33.871 32.255 C 33.871 32.701 33.51 33.062 33.065 33.062 Z"
    style="fill:#231f20;opacity:0.1"
    transform="matrix(1, 0, 0, 1, 1.4210854715202004e-14, 1.7763568394002505e-15)" />
  <path
    d="M 20.162 16.933 L 29.839 16.933 C 29.839 16.933 29.839 16.933 29.839 16.933 L 29.839 19.352 C 29.839 19.798 29.478 20.159 29.032 20.159 L 20.968 20.159 C 20.523 20.159 20.162 19.798 20.162 19.352 L 20.162 16.933 C 20.162 16.933 20.162 16.933 20.162 16.933 Z"
    style="fill:#e5f5fb"
    transform="matrix(1, 0, 0, 1, 1.4210854715202004e-14, 1.7763568394002505e-15)" />
  <path
    d="M 22.581 24.997 L 27.42 24.997 C 27.42 24.997 27.42 24.997 27.42 24.997 L 27.42 28.223 C 27.42 28.669 27.058 29.029 26.613 29.029 L 23.388 29.029 C 22.942 29.029 22.581 28.669 22.581 28.223 L 22.581 24.997 C 22.581 24.997 22.581 24.997 22.581 24.997 Z"
    style="fill:#231f20;opacity:0.1"
    transform="matrix(1, 0, 0, 1, 1.4210854715202004e-14, 1.7763568394002505e-15)" />
  <path
    d="M 22.581 24.997 L 27.42 24.997 C 27.42 24.997 27.42 24.997 27.42 24.997 L 27.42 26.61 C 27.42 27.056 27.058 27.417 26.613 27.417 L 23.388 27.417 C 22.942 27.417 22.581 27.056 22.581 26.61 L 22.581 24.997 C 22.581 24.997 22.581 24.997 22.581 24.997 Z"
    style="fill:#e5f5fb"
    transform="matrix(1, 0, 0, 1, 1.4210854715202004e-14, 1.7763568394002505e-15)" />
  <path
    d="M 41.935 34.674 C 41.693 34.674 41.465 34.566 41.312 34.379 L 37.553 29.791 C 37.16 29.311 37.433 28.584 38.046 28.484 C 38.331 28.438 38.618 28.546 38.801 28.768 L 41.935 32.595 L 44.783 29.115 C 44.8 29.09 44.817 29.066 44.836 29.042 L 47.49 25.804 L 45.967 25.804 C 45.522 25.804 45.161 25.443 45.161 24.997 C 45.144 9.478 28.333 -0.203 14.901 7.571 C 10.031 10.39 6.56 15.116 5.328 20.607 C 5.315 20.669 5.294 20.73 5.266 20.786 C 5.071 21.189 4.587 21.359 4.184 21.166 C 3.82 20.993 3.642 20.577 3.769 20.193 C 7.483 3.85 27.499 -2.344 39.796 9.045 C 44.034 12.97 46.538 18.419 46.758 24.191 L 49.193 24.191 C 49.814 24.192 50.201 24.863 49.891 25.401 C 49.869 25.439 49.844 25.475 49.816 25.509 L 46.136 30.001 C 46.119 30.025 46.102 30.05 46.083 30.072 L 42.559 34.378 C 42.405 34.566 42.176 34.674 41.935 34.674 Z"
    style="fill:#231f20"
    transform="matrix(1, 0, 0, 1, 1.4210854715202004e-14, 1.7763568394002505e-15)" />
  <path
    d="M 35.073 17.74 C 34.828 17.74 34.597 17.629 34.444 17.437 C 29.597 11.389 20.394 11.389 15.548 17.437 C 15.177 17.935 14.406 17.844 14.161 17.273 C 14.039 16.99 14.089 16.661 14.292 16.427 C 19.783 9.574 30.211 9.574 35.702 16.427 C 36.092 16.911 35.811 17.635 35.198 17.731 C 35.156 17.736 35.115 17.74 35.073 17.74 Z"
    style="fill:#231f20"
    transform="matrix(1, 0, 0, 1, 1.4210854715202004e-14, 1.7763568394002505e-15)" />
  <path
    d="M 25 38.707 C 20.835 38.716 16.894 36.823 14.298 33.566 C 13.903 33.087 14.176 32.36 14.788 32.258 C 15.08 32.209 15.375 32.325 15.557 32.558 C 20.403 38.607 29.606 38.607 34.452 32.558 C 34.823 32.06 35.594 32.151 35.839 32.721 C 35.961 33.005 35.91 33.334 35.709 33.567 C 33.109 36.823 29.166 38.715 25 38.707 Z"
    style="fill:#231f20"
    transform="matrix(1, 0, 0, 1, 1.4210854715202004e-14, 1.7763568394002505e-15)" />
  <path
    d="M 25 46.771 C 13.294 46.758 3.688 37.502 3.242 25.804 L 0.808 25.804 C 0.187 25.804 -0.201 25.132 0.109 24.594 C 0.131 24.556 0.156 24.52 0.184 24.486 L 3.872 19.981 C 3.885 19.961 3.899 19.942 3.915 19.923 L 7.44 15.616 C 7.771 15.243 8.355 15.243 8.686 15.616 L 12.445 20.205 C 12.839 20.685 12.565 21.411 11.952 21.512 C 11.668 21.559 11.38 21.451 11.198 21.227 L 8.065 17.4 L 5.2 20.9 C 5.187 20.921 5.173 20.941 5.158 20.96 L 2.511 24.191 L 4.033 24.191 C 4.479 24.191 4.84 24.552 4.84 24.997 C 4.855 40.517 21.665 50.2 35.098 42.427 C 39.965 39.611 43.434 34.89 44.669 29.404 C 44.792 28.796 45.528 28.549 45.993 28.96 C 46.164 29.11 46.262 29.326 46.266 29.554 C 46.266 29.615 46.259 29.676 46.247 29.736 C 43.988 39.665 35.182 46.724 25 46.771 Z"
    style="fill:#231f20"
    transform="matrix(1, 0, 0, 1, 1.4210854715202004e-14, 1.7763568394002505e-15)" />
  <path
    d="M 20.162 33.062 C 19.717 33.062 19.355 32.701 19.355 32.255 L 19.355 28.223 C 19.355 27.603 20.027 27.214 20.565 27.525 C 20.814 27.669 20.968 27.935 20.968 28.223 L 20.968 32.255 C 20.968 32.701 20.607 33.062 20.162 33.062 Z"
    style="fill:#231f20"
    transform="matrix(1, 0, 0, 1, 1.4210854715202004e-14, 1.7763568394002505e-15)" />
  <path
    d="M 16.936 33.062 C 16.491 33.062 16.13 32.701 16.13 32.255 L 16.13 28.223 C 16.13 27.603 16.801 27.214 17.339 27.525 C 17.589 27.669 17.743 27.935 17.743 28.223 L 17.743 32.255 C 17.743 32.701 17.381 33.062 16.936 33.062 Z"
    style="fill:#231f20"
    transform="matrix(1, 0, 0, 1, 1.4210854715202004e-14, 1.7763568394002505e-15)" />
  <path
    d="M 29.839 33.062 C 29.394 33.062 29.032 32.701 29.032 32.255 L 29.032 28.223 C 29.032 27.603 29.704 27.214 30.242 27.525 C 30.491 27.669 30.645 27.935 30.645 28.223 L 30.645 32.255 C 30.645 32.701 30.284 33.062 29.839 33.062 Z"
    style="fill:#231f20"
    transform="matrix(1, 0, 0, 1, 1.4210854715202004e-14, 1.7763568394002505e-15)" />
  <path
    d="M 33.065 33.062 C 32.619 33.062 32.258 32.701 32.258 32.255 L 32.258 28.223 C 32.258 27.603 32.93 27.214 33.468 27.525 C 33.717 27.669 33.871 27.935 33.871 28.223 L 33.871 32.255 C 33.871 32.701 33.51 33.062 33.065 33.062 Z"
    style="fill:#231f20"
    transform="matrix(1, 0, 0, 1, 1.4210854715202004e-14, 1.7763568394002505e-15)" />
  <path
    d="M 29.032 20.965 L 20.968 20.965 C 20.077 20.965 19.355 20.243 19.355 19.352 L 19.355 16.933 C 19.355 16.488 19.717 16.127 20.162 16.127 L 29.839 16.127 C 30.284 16.127 30.645 16.488 30.645 16.933 L 30.645 19.352 C 30.645 20.243 29.923 20.965 29.032 20.965 Z M 20.968 17.74 L 20.968 19.352 L 29.032 19.352 L 29.032 17.74 L 20.968 17.74 Z"
    style="fill:#231f20"
    transform="matrix(1, 0, 0, 1, 1.4210854715202004e-14, 1.7763568394002505e-15)" />
  <path
    d="M 35.294 33.868 L 14.707 33.868 C 13.79 33.871 12.951 33.353 12.544 32.531 L 8.957 25.358 C 8.689 24.822 9.078 24.191 9.678 24.191 L 40.322 24.191 C 40.924 24.188 41.317 24.82 41.048 25.358 L 37.461 32.531 C 37.053 33.354 36.212 33.873 35.294 33.868 Z M 13.986 31.809 C 14.123 32.083 14.402 32.255 14.707 32.255 L 35.294 32.255 C 35.599 32.255 35.878 32.083 36.014 31.809 L 39.018 25.804 L 10.983 25.804 L 13.986 31.809 Z"
    style="fill:#231f20"
    transform="matrix(1, 0, 0, 1, 1.4210854715202004e-14, 1.7763568394002505e-15)" />
  <path
    d="M 26.613 28.223 L 23.388 28.223 C 22.496 28.223 21.775 27.501 21.775 26.61 L 21.775 24.997 C 21.775 24.552 22.136 24.191 22.581 24.191 L 27.42 24.191 C 27.865 24.191 28.226 24.552 28.226 24.997 L 28.226 26.61 C 28.226 27.501 27.503 28.223 26.613 28.223 Z M 23.388 25.804 L 23.388 26.61 L 26.613 26.61 L 26.613 25.804 L 23.388 25.804 Z"
    style="fill:#231f20"
    transform="matrix(1, 0, 0, 1, 1.4210854715202004e-14, 1.7763568394002505e-15)" />
  <path
    d="M 40.322 25.804 L 9.678 25.804 C 9.078 25.805 8.689 25.173 8.957 24.637 L 12.544 17.464 C 12.951 16.642 13.79 16.123 14.707 16.127 L 35.294 16.127 C 36.21 16.123 37.05 16.642 37.457 17.464 L 41.044 24.641 C 41.308 25.176 40.919 25.803 40.322 25.804 Z M 10.983 24.191 L 39.018 24.191 L 36.014 18.185 C 35.878 17.913 35.599 17.74 35.294 17.74 L 14.707 17.74 C 14.402 17.74 14.123 17.913 13.986 18.185 L 10.983 24.191 Z"
    style="fill:#231f20"
    transform="matrix(1, 0, 0, 1, 1.4210854715202004e-14, 1.7763568394002505e-15)" />
</svg>