<svg viewBox="0 0 50 50" width="50" height="50" xmlns="http://www.w3.org/2000/svg">
  <defs>
    <style>
      .cls-1 { fill: #000; opacity: 0.5; }
    </style>
  </defs>
  <path class="cls-1"
    d="M 40.328 39.233 C 40.355 39.598 40.125 39.922 39.801 40.044 C 39.733 40.044 39.652 40.017 39.585 39.976 C 39.179 39.8 39.004 39.328 39.179 38.922 C 39.247 38.774 39.301 38.638 39.368 38.49 C 39.409 38.49 39.436 38.49 39.463 38.49 C 39.909 38.463 40.287 38.787 40.314 39.233 L 40.328 39.233 Z"
    transform="matrix(1, 0, 0, 1, -1.7763568394002505e-15, 0)" />
  <g
    transform="matrix(1.351227045059204, 0, 0, 1.351227045059204, -8.802902221679688, -8.803179740905762)">
    <path class="cls-1"
      d="m42.02,17.56c-1.01,6.29-2.83,12.43-5.42,18.25-.11.25-.37.38-.62.35.24-.09.41-.33.39-.6-.02-.33-.31-.57-.63-.55-.03,0-.05,0-.07,0,2.47-5.63,4.22-11.57,5.2-17.64.61-3.79.76-6.87.48-9.61-2.8.41-5.52.62-8.37.84-1.45.19-2.99.35-3.16.35-1.26.02-2.52.12-3.77.3-.97,7.46-2.82,14.57-5.5,21.13,4.53,1.19,8.51,2.46,11.84,3.8l.08.03c1.06.43,2.15.87,3.21.81-.05.11-.09.21-.14.32-.13.3,0,.65.3.78.05.02.11.04.16.05-.05.02-.1.03-.16.03-1.36.1-2.61-.4-3.82-.89l-.08-.03c-3.44-1.38-7.59-2.7-12.35-3.92-.17-.04-.31-.16-.38-.31-.08-.15-.08-.33-.02-.49,2.84-6.76,4.77-14.13,5.74-21.89.02-.14.09-.27.19-.36.08-.08.19-.13.31-.15.87-.13,1.75-.23,2.63-.3t0,0c.09-.09,3.36-.31,3.5-.32l.94-.07c3.17-.24,6.17-.47,9.27-.95.16-.02.32.02.45.11.13.1.21.24.23.4.39,3.01.26,6.37-.41,10.55Z" />
    <path class="cls-1"
      d="m36.36,35.55c.02.27-.15.51-.39.6-.05,0-.11-.02-.16-.05-.3-.13-.43-.48-.3-.78.05-.11.09-.21.14-.32.03,0,.05,0,.07,0,.33-.02.61.22.63.55Z" />
  </g>
  <path class="cls-1"
    d="M 22.37 29.666 C 22.573 29.477 22.87 29.41 23.154 29.491 C 28.194 31.139 33.396 32.423 38.625 33.315 C 39.058 33.382 39.355 33.801 39.287 34.233 C 39.22 34.666 38.801 34.963 38.368 34.895 C 33.058 34.004 27.775 32.693 22.654 31.017 C 22.235 30.882 22.005 30.423 22.14 30.004 C 22.181 29.869 22.262 29.747 22.356 29.666 L 22.37 29.666 Z"
    transform="matrix(1, 0, 0, 1, -1.7763568394002505e-15, 0)" />
  <path class="cls-1"
    d="M 24.694 25.41 C 24.883 25.234 25.153 25.153 25.424 25.221 C 30.45 26.464 35.571 27.572 40.666 28.504 C 41.098 28.585 41.382 29.004 41.301 29.437 C 41.22 29.869 40.801 30.153 40.368 30.072 C 35.247 29.126 30.085 28.018 25.032 26.761 C 24.599 26.653 24.343 26.221 24.451 25.788 C 24.491 25.626 24.572 25.491 24.68 25.396 L 24.694 25.41 Z"
    transform="matrix(1, 0, 0, 1, -1.7763568394002505e-15, 0)" />
  <path class="cls-1"
    d="M 27.748 21.464 C 27.923 21.302 28.18 21.221 28.437 21.275 L 42.044 23.951 C 42.476 24.032 42.76 24.451 42.679 24.883 C 42.598 25.315 42.179 25.599 41.746 25.518 L 28.14 22.843 C 27.707 22.761 27.423 22.343 27.505 21.91 C 27.545 21.735 27.626 21.586 27.748 21.478 L 27.748 21.464 Z"
    transform="matrix(1, 0, 0, 1, -1.7763568394002505e-15, 0)" />
  <path class="cls-1"
    d="M 26.464 17.086 C 26.626 16.938 26.842 16.857 27.086 16.884 C 32.396 17.411 37.706 18.302 42.895 19.546 C 43.327 19.654 43.584 20.086 43.49 20.505 C 43.381 20.937 42.949 21.194 42.53 21.099 C 37.423 19.87 32.166 18.992 26.937 18.478 C 26.491 18.438 26.18 18.046 26.221 17.6 C 26.234 17.397 26.343 17.221 26.478 17.086 L 26.464 17.086 Z"
    transform="matrix(1, 0, 0, 1, -1.7763568394002505e-15, 0)" />
  <path class="cls-1"
    d="M 27.207 12.803 C 27.342 12.681 27.518 12.6 27.721 12.6 C 33.112 12.398 38.504 12.925 43.76 14.168 C 44.192 14.262 44.462 14.695 44.354 15.127 C 44.246 15.559 43.827 15.83 43.395 15.722 C 38.287 14.519 33.031 14.006 27.775 14.195 C 27.329 14.208 26.964 13.87 26.951 13.425 C 26.951 13.181 27.045 12.952 27.207 12.803 L 27.207 12.803 Z"
    transform="matrix(1, 0, 0, 1, -1.7763568394002505e-15, 0)" />
  <path class="cls-1"
    d="M 28.775 7.506 C 28.91 7.385 29.085 7.303 29.275 7.303 C 34.058 7.101 38.922 7.101 43.706 7.33 C 44.152 7.357 44.489 7.722 44.462 8.168 C 44.435 8.614 44.071 8.952 43.625 8.925 C 38.882 8.695 34.072 8.682 29.329 8.898 C 28.883 8.911 28.518 8.574 28.491 8.128 C 28.491 7.884 28.586 7.655 28.748 7.506 L 28.775 7.506 Z"
    transform="matrix(1, 0, 0, 1, -1.7763568394002505e-15, 0)" />
  <path class="cls-1"
    d="M 20.059 9.641 C 20.167 9.533 20.316 9.465 20.478 9.438 L 20.789 9.384 C 21.411 9.29 23.464 9.168 24.086 9.209 C 24.532 9.236 24.856 9.614 24.829 10.06 C 24.802 10.506 24.424 10.83 23.978 10.803 C 23.6 10.776 21.721 10.857 21.248 10.925 C 19.167 18.856 16.06 26.477 12.006 33.598 C 20.14 37.666 27.315 40.53 33.896 42.314 C 33.909 42.287 33.936 42.26 33.95 42.233 C 34.274 41.679 35.423 39.355 35.571 38.828 C 35.679 38.395 36.125 38.152 36.544 38.26 C 36.977 38.368 37.22 38.814 37.112 39.233 C 36.909 39.976 35.707 42.408 35.328 43.043 C 35.207 43.246 35.098 43.435 34.99 43.624 C 34.815 43.949 34.436 44.111 34.085 44.016 C 27.032 42.165 19.33 39.098 10.533 34.652 C 10.33 34.558 10.195 34.382 10.128 34.166 C 10.06 33.95 10.087 33.733 10.209 33.531 C 14.479 26.167 17.722 18.262 19.843 10.019 C 19.884 9.871 19.965 9.736 20.073 9.628 L 20.059 9.641 Z"
    transform="matrix(1, 0, 0, 1, -1.7763568394002505e-15, 0)" />
  <path class="cls-1"
    d="M 8.925 16.505 C 8.925 16.505 9.033 16.411 9.101 16.384 C 9.277 16.289 9.56 16.208 9.939 16.37 L 17.046 19.6 C 17.451 19.762 17.654 20.235 17.478 20.64 C 17.303 21.045 16.843 21.248 16.438 21.072 L 9.939 18.1 C 9.114 20.356 8.128 22.924 6.912 25.45 C 6.736 25.802 5.696 27.666 4.736 29.355 C 3.899 30.815 3.385 31.707 3.034 32.247 C 10.357 38.26 17.87 43.462 25.951 48.138 C 26.802 46.854 28.342 43.733 28.91 42.3 C 29.072 41.895 29.531 41.692 29.95 41.854 C 30.356 42.016 30.558 42.476 30.396 42.895 C 29.694 44.665 27.95 48.124 26.842 49.664 C 26.599 50.002 26.153 50.097 25.802 49.894 C 17.181 44.962 9.209 39.436 1.439 33.004 C 1.439 33.004 1.439 33.004 1.439 33.004 C 1.102 32.72 1.048 32.22 1.331 31.882 C 1.358 31.842 1.399 31.801 1.439 31.774 C 1.993 31.004 5.142 25.477 5.48 24.761 C 6.777 22.072 7.817 19.289 8.668 16.938 C 8.723 16.776 8.817 16.627 8.939 16.519 L 8.925 16.505 Z M 2.439 31.747 C 2.439 31.747 2.304 31.653 2.237 31.626 C 2.304 31.653 2.385 31.693 2.439 31.747 Z"
    transform="matrix(1, 0, 0, 1, -1.7763568394002505e-15, 0)" />
  <path class="cls-1"
    d="M 11.655 20.181 C 11.871 19.978 12.209 19.91 12.506 20.032 C 12.911 20.208 13.1 20.667 12.938 21.072 C 11.371 24.829 9.439 28.45 7.236 31.869 C 6.993 32.234 6.506 32.342 6.128 32.098 C 5.763 31.855 5.655 31.369 5.898 30.99 C 8.06 27.653 9.939 24.113 11.465 20.451 C 11.506 20.343 11.574 20.248 11.668 20.167 L 11.655 20.181 Z"
    transform="matrix(1, 0, 0, 1, -1.7763568394002505e-15, 0)" />
  <path class="cls-1"
    d="M 24.329 41.598 C 24.599 41.354 25.005 41.314 25.316 41.53 C 25.68 41.787 25.775 42.273 25.518 42.638 L 24.68 43.854 C 24.424 44.219 23.937 44.314 23.572 44.057 C 23.208 43.8 23.113 43.314 23.37 42.949 L 24.208 41.733 C 24.208 41.733 24.289 41.638 24.329 41.598 Z"
    transform="matrix(1, 0, 0, 1, -1.7763568394002505e-15, 0)" />
  <path class="cls-1"
    d="M 20.586 39.787 C 20.83 39.557 21.208 39.503 21.519 39.679 C 21.897 39.895 22.046 40.381 21.816 40.773 L 21.127 41.989 C 20.911 42.368 20.424 42.516 20.032 42.287 C 19.654 42.071 19.505 41.584 19.735 41.192 L 20.424 39.976 C 20.465 39.895 20.519 39.827 20.586 39.773 L 20.586 39.787 Z"
    transform="matrix(1, 0, 0, 1, -1.7763568394002505e-15, 0)" />
</svg>