<?xml version="1.0" encoding="utf-8"?>
<svg viewBox="-0.0791 6.2163 46.1579 43.5664" width="46.1579" height="43.5664" xmlns="http://www.w3.org/2000/svg">
  <path style="fill: rgb(0, 0, 0); opacity: 1;" d="M 37.83 40.402 C 37.851 40.712 37.646 40.999 37.321 41.108 C 37.256 41.108 37.176 41.084 37.111 41.048 C 36.721 40.895 36.55 40.484 36.721 40.132 C 36.786 40.002 36.838 39.883 36.903 39.754 L 36.994 39.754 C 37.426 39.73 37.791 40.013 37.819 40.402 L 37.83 40.402 Z" transform="matrix(1.0000000000000002, 0, 0, 1, 0, 3.552713678800501e-15)"/>
  <path style="fill: rgb(0, 0, 0); opacity: 1;" d="M 45.231 19.22 C 43.912 26.627 41.53 33.852 38.146 40.708 C 38.001 41.001 37.66 41.154 37.335 41.12 C 37.897 40.946 38.041 40.288 37.59 39.935 C 37.433 39.812 37.229 39.75 37.02 39.765 L 36.929 39.765 C 40.161 33.129 42.444 26.149 43.727 18.997 C 44.526 14.534 44.722 10.909 44.355 7.683 C 40.694 8.165 37.139 8.413 33.413 8.672 C 31.516 8.895 29.502 9.082 29.28 9.082 C 27.633 9.108 25.986 9.225 24.351 9.438 C 23.083 18.219 20.665 26.589 17.16 34.314 C 23.083 35.715 28.287 37.21 32.64 38.788 L 32.745 38.824 C 34.13 39.33 35.555 39.849 36.943 39.776 C 36.877 39.906 36.824 40.025 36.758 40.155 C 36.59 40.508 36.758 40.918 37.151 41.071 C 37.216 41.097 37.295 41.12 37.361 41.131 C 37.295 41.154 37.23 41.167 37.151 41.167 C 35.373 41.284 33.738 40.695 32.156 40.119 L 32.051 40.082 C 27.554 38.459 22.129 36.904 15.906 35.469 C 15.687 35.419 15.503 35.285 15.408 35.103 C 15.307 34.924 15.298 34.713 15.383 34.526 C 19.095 26.567 21.618 17.889 22.886 8.752 C 22.934 8.445 23.199 8.203 23.54 8.153 C 24.678 8 25.828 7.883 26.979 7.8 C 27.096 7.694 31.371 7.435 31.556 7.424 L 32.784 7.341 C 36.929 7.058 40.851 6.788 44.904 6.222 C 45.114 6.199 45.322 6.246 45.493 6.352 C 45.663 6.47 45.766 6.635 45.794 6.822 C 46.303 10.366 46.133 14.323 45.257 19.244 L 45.231 19.22 Z" transform="matrix(1.0000000000000002, 0, 0, 1, 0, 3.552713678800501e-15)"/>
  <path style="fill: rgb(0, 0, 0); opacity: 1;" d="M 37.83 40.402 C 37.851 40.712 37.646 40.999 37.321 41.108 C 37.256 41.108 37.176 41.084 37.111 41.048 C 36.721 40.895 36.55 40.484 36.721 40.132 C 36.786 40.002 36.838 39.883 36.903 39.754 L 36.994 39.754 C 37.426 39.73 37.791 40.013 37.819 40.402 L 37.83 40.402 Z M 20.454 32.065 C 20.651 31.901 20.938 31.841 21.214 31.912 C 26.105 33.351 31.108 34.466 36.183 35.243 C 36.602 35.302 36.889 35.669 36.824 36.045 C 36.758 36.421 36.354 36.681 35.936 36.621 C 30.796 35.845 25.685 34.704 20.73 33.242 C 20.171 33.071 20.014 32.43 20.443 32.065 L 20.454 32.065 Z M 22.704 28.357 C 22.886 28.203 23.148 28.133 23.41 28.192 C 28.273 29.275 33.228 30.241 38.158 31.052 C 38.741 31.153 38.986 31.785 38.598 32.189 C 38.418 32.378 38.14 32.465 37.87 32.42 C 32.915 31.595 27.921 30.63 23.031 29.535 C 22.614 29.442 22.361 29.06 22.468 28.686 C 22.508 28.546 22.585 28.427 22.69 28.346 L 22.704 28.357 Z M 25.659 24.918 C 25.838 24.77 26.086 24.71 26.325 24.755 L 39.491 27.085 C 40.075 27.186 40.319 27.815 39.932 28.221 C 39.752 28.411 39.474 28.498 39.204 28.45 L 26.038 26.12 C 25.618 26.049 25.343 25.684 25.423 25.307 C 25.463 25.154 25.54 25.024 25.659 24.931 L 25.659 24.918 Z M 24.416 21.104 C 24.573 20.974 24.783 20.904 25.017 20.928 C 30.156 21.387 35.294 22.163 40.316 23.247 C 40.734 23.341 40.982 23.717 40.891 24.083 C 40.786 24.459 40.367 24.685 39.963 24.601 C 35.02 23.53 29.934 22.764 24.874 22.316 C 24.445 22.281 24.134 21.937 24.181 21.552 C 24.194 21.374 24.299 21.221 24.43 21.104 L 24.416 21.104 Z M 25.136 17.372 C 25.267 17.266 25.437 17.196 25.631 17.196 C 30.85 17.019 36.067 17.478 41.152 18.561 C 41.57 18.644 41.832 19.02 41.727 19.397 C 41.622 19.773 41.218 20.009 40.8 19.916 C 35.849 18.866 30.766 18.42 25.685 18.584 C 25.253 18.597 24.9 18.301 24.886 17.912 C 24.886 17.702 24.979 17.502 25.136 17.372 Z M 26.652 12.756 C 26.783 12.65 26.953 12.58 27.136 12.58 C 31.764 12.404 36.471 12.404 41.099 12.604 C 41.531 12.626 41.858 12.945 41.832 13.332 C 41.806 13.721 41.454 14.017 41.021 13.994 C 36.431 13.792 31.778 13.781 27.187 13.971 C 26.76 13.982 26.398 13.682 26.379 13.299 C 26.379 13.086 26.47 12.886 26.626 12.756 L 26.652 12.756 Z" transform="matrix(1.0000000000000002, 0, 0, 1, 0, 3.552713678800501e-15)"/>
  <path style="fill: rgb(0, 0, 0); opacity: 1;" d="M 18.219 14.617 C 18.324 14.523 18.466 14.464 18.625 14.44 L 18.924 14.394 C 19.527 14.31 21.515 14.204 22.115 14.24 C 22.547 14.264 22.861 14.594 22.835 14.983 C 22.809 15.37 22.442 15.652 22.01 15.629 C 21.646 15.605 19.828 15.676 19.37 15.735 C 17.357 22.643 14.351 29.284 10.428 35.492 C 18.298 39.037 25.241 41.531 31.607 43.085 C 31.621 43.061 31.647 43.038 31.661 43.015 C 31.974 42.533 33.086 40.508 33.228 40.049 C 33.379 39.531 34.095 39.356 34.517 39.731 C 34.712 39.905 34.788 40.162 34.719 40.402 C 34.523 41.048 33.359 43.168 32.992 43.721 C 32.876 43.897 32.77 44.063 32.667 44.226 C 32.497 44.51 32.13 44.652 31.791 44.569 C 24.965 42.955 17.513 40.282 9.001 36.41 C 8.81 36.326 8.665 36.171 8.61 35.986 C 8.541 35.801 8.572 35.599 8.687 35.432 C 12.82 29.018 15.956 22.127 18.011 14.946 C 18.048 14.816 18.128 14.699 18.233 14.604 L 18.219 14.617 Z" transform="matrix(1.0000000000000002, 0, 0, 1, 0, 3.552713678800501e-15)"/>
  <path style="fill: rgb(0, 0, 0); opacity: 1;" d="M 7.445 20.598 C 7.445 20.598 7.55 20.515 7.615 20.492 C 7.786 20.409 8.059 20.339 8.426 20.481 L 15.303 23.294 C 15.696 23.434 15.892 23.847 15.721 24.2 C 15.551 24.555 15.107 24.731 14.715 24.578 L 8.426 21.986 C 7.629 23.953 6.674 26.189 5.498 28.392 C 5.328 28.699 4.321 30.323 3.391 31.795 C 2.581 33.066 2.085 33.844 1.744 34.314 C 8.832 39.554 16.1 44.086 23.919 48.16 C 24.743 47.042 26.234 44.322 26.783 43.074 C 26.939 42.722 27.383 42.544 27.79 42.685 C 28.182 42.828 28.378 43.227 28.222 43.591 C 27.542 45.134 25.855 48.148 24.783 49.491 C 24.547 49.784 24.115 49.867 23.776 49.691 C 15.434 45.394 7.72 40.578 0.202 34.974 C -0.127 34.73 -0.174 34.292 0.097 33.998 C 0.123 33.961 0.163 33.925 0.202 33.902 C 0.738 33.232 3.784 28.416 4.111 27.791 C 5.368 25.448 6.372 23.023 7.197 20.974 C 7.248 20.834 7.342 20.704 7.459 20.611 L 7.445 20.598 Z M 1.17 33.878 C 1.17 33.878 1.039 33.796 0.973 33.772 C 1.039 33.796 1.118 33.831 1.17 33.878 Z" transform="matrix(1.0000000000000002, 0, 0, 1, 0, 3.552713678800501e-15)"/>
  <path style="fill: rgb(0, 0, 0); opacity: 1;" d="M 10.087 23.8 C 10.297 23.623 10.622 23.564 10.911 23.67 C 11.302 23.823 11.486 24.225 11.329 24.578 C 9.8 27.853 7.955 31.001 5.812 33.985 C 5.576 34.304 5.106 34.397 4.739 34.185 C 4.383 33.972 4.283 33.541 4.517 33.22 C 6.608 30.311 8.426 27.227 9.904 24.036 C 9.943 23.938 10.012 23.855 10.101 23.79 L 10.087 23.8 Z M 22.351 42.462 C 22.613 42.249 23.005 42.215 23.305 42.403 C 23.657 42.626 23.75 43.051 23.501 43.368 L 22.69 44.428 C 22.442 44.745 21.971 44.828 21.618 44.605 C 21.264 44.389 21.175 43.954 21.422 43.639 L 22.232 42.579 C 22.232 42.579 22.312 42.496 22.351 42.462 Z M 18.728 40.884 C 19.165 40.52 19.875 40.72 20.005 41.243 C 20.047 41.414 20.015 41.591 19.919 41.743 L 19.251 42.802 C 19.041 43.141 18.564 43.256 18.193 43.061 C 17.819 42.872 17.69 42.443 17.906 42.109 L 18.572 41.048 C 18.611 40.978 18.663 40.918 18.728 40.871 L 18.728 40.884 Z" transform="matrix(1.0000000000000002, 0, 0, 1, 0, 3.552713678800501e-15)"/>
</svg>