<?xml version="1.0" encoding="utf-8"?>
<svg viewBox="0.9747 4.2105 44.0513 41.5781" width="44.0513" height="41.5781" xmlns="http://www.w3.org/2000/svg">
  <path style="fill: rgb(0, 0, 0); opacity: 1;" d="M 37.154 36.836 C 37.174 37.132 36.978 37.406 36.668 37.51 C 36.606 37.51 36.53 37.487 36.468 37.453 C 36.095 37.307 35.932 36.914 36.095 36.578 C 36.157 36.454 36.207 36.341 36.269 36.218 L 36.356 36.218 C 36.768 36.195 37.117 36.465 37.143 36.836 L 37.154 36.836 Z" transform="matrix(1.0000000000000002, 0, 0, 1, 0, 3.552713678800501e-15)"/>
  <path style="fill: rgb(0, 0, 0); opacity: 1;" d="M 44.217 16.621 C 42.958 23.69 40.685 30.585 37.455 37.128 C 37.317 37.408 36.992 37.554 36.681 37.521 C 37.218 37.355 37.355 36.727 36.925 36.39 C 36.775 36.273 36.58 36.214 36.381 36.228 L 36.294 36.228 C 39.378 29.895 41.557 23.234 42.782 16.408 C 43.544 12.149 43.731 8.689 43.381 5.61 C 39.887 6.07 36.494 6.307 32.938 6.554 C 31.128 6.767 29.206 6.946 28.994 6.946 C 27.422 6.97 25.85 7.082 24.29 7.285 C 23.08 15.666 20.772 23.654 17.427 31.026 C 23.08 32.363 28.046 33.79 32.201 35.296 L 32.301 35.33 C 33.623 35.813 34.983 36.308 36.307 36.239 C 36.244 36.363 36.194 36.476 36.131 36.6 C 35.97 36.937 36.131 37.329 36.506 37.475 C 36.568 37.499 36.643 37.521 36.706 37.532 C 36.643 37.554 36.581 37.566 36.506 37.566 C 34.809 37.678 33.249 37.116 31.739 36.566 L 31.639 36.531 C 27.347 34.982 22.169 33.498 16.23 32.128 C 16.021 32.081 15.846 31.953 15.755 31.779 C 15.659 31.608 15.65 31.407 15.731 31.228 C 19.274 23.633 21.682 15.351 22.892 6.631 C 22.938 6.338 23.191 6.107 23.516 6.059 C 24.602 5.913 25.7 5.801 26.798 5.722 C 26.91 5.621 30.99 5.374 31.166 5.363 L 32.338 5.284 C 36.294 5.014 40.037 4.756 43.905 4.216 C 44.105 4.194 44.304 4.239 44.467 4.34 C 44.629 4.453 44.728 4.61 44.754 4.789 C 45.24 8.171 45.078 11.947 44.242 16.644 L 44.217 16.621 Z" transform="matrix(1.0000000000000002, 0, 0, 1, 0, 3.552713678800501e-15)"/>
  <path style="fill: rgb(0, 0, 0); opacity: 1;" d="M 37.154 36.836 C 37.174 37.132 36.978 37.406 36.668 37.51 C 36.606 37.51 36.53 37.487 36.468 37.453 C 36.095 37.307 35.932 36.914 36.095 36.578 C 36.157 36.454 36.207 36.341 36.269 36.218 L 36.356 36.218 C 36.768 36.195 37.117 36.465 37.143 36.836 L 37.154 36.836 Z M 20.571 28.88 C 20.759 28.723 21.033 28.666 21.296 28.734 C 25.964 30.107 30.739 31.171 35.582 31.913 C 35.982 31.969 36.256 32.319 36.194 32.678 C 36.131 33.037 35.745 33.285 35.346 33.228 C 30.441 32.487 25.563 31.398 20.834 30.003 C 20.301 29.84 20.151 29.228 20.56 28.88 L 20.571 28.88 Z M 22.718 25.341 C 22.892 25.194 23.142 25.127 23.392 25.183 C 28.033 26.217 32.762 27.139 37.467 27.913 C 38.023 28.009 38.257 28.612 37.887 28.998 C 37.715 29.178 37.45 29.261 37.192 29.218 C 32.463 28.431 27.697 27.51 23.03 26.465 C 22.632 26.376 22.391 26.012 22.493 25.655 C 22.531 25.521 22.605 25.408 22.705 25.33 L 22.718 25.341 Z M 25.538 22.059 C 25.709 21.918 25.946 21.86 26.174 21.903 L 38.739 24.127 C 39.296 24.223 39.529 24.824 39.16 25.211 C 38.988 25.392 38.723 25.475 38.465 25.43 L 25.9 23.206 C 25.499 23.138 25.237 22.79 25.313 22.43 C 25.351 22.284 25.425 22.16 25.538 22.071 L 25.538 22.059 Z M 24.352 18.419 C 24.502 18.295 24.702 18.228 24.926 18.251 C 29.83 18.689 34.734 19.43 39.526 20.464 C 39.925 20.554 40.162 20.913 40.075 21.262 C 39.975 21.621 39.575 21.836 39.189 21.756 C 34.472 20.734 29.618 20.003 24.789 19.576 C 24.38 19.542 24.083 19.214 24.128 18.846 C 24.14 18.677 24.24 18.531 24.365 18.419 L 24.352 18.419 Z M 25.039 14.857 C 25.164 14.756 25.326 14.689 25.512 14.689 C 30.492 14.52 35.471 14.958 40.324 15.992 C 40.723 16.071 40.973 16.43 40.873 16.79 C 40.773 17.149 40.387 17.374 39.988 17.285 C 35.263 16.283 30.412 15.857 25.563 16.014 C 25.151 16.026 24.814 15.744 24.801 15.373 C 24.801 15.172 24.889 14.981 25.039 14.857 Z M 26.486 10.452 C 26.611 10.351 26.773 10.284 26.948 10.284 C 31.365 10.116 35.857 10.116 40.274 10.307 C 40.686 10.328 40.998 10.632 40.973 11.002 C 40.948 11.373 40.612 11.655 40.199 11.633 C 35.819 11.441 31.378 11.43 26.997 11.611 C 26.589 11.622 26.244 11.336 26.225 10.97 C 26.225 10.767 26.312 10.576 26.461 10.452 L 26.486 10.452 Z" transform="matrix(1.0000000000000002, 0, 0, 1, 0, 3.552713678800501e-15)"/>
  <path style="fill: rgb(0, 0, 0); opacity: 1;" d="M 18.438 12.228 C 18.538 12.138 18.674 12.082 18.825 12.059 L 19.111 12.015 C 19.686 11.935 21.583 11.834 22.156 11.868 C 22.568 11.891 22.868 12.206 22.843 12.577 C 22.818 12.947 22.468 13.216 22.056 13.194 C 21.708 13.171 19.973 13.239 19.536 13.295 C 17.615 19.888 14.746 26.226 11.002 32.15 C 18.513 35.533 25.139 37.914 31.215 39.397 C 31.228 39.374 31.253 39.352 31.266 39.33 C 31.565 38.87 32.626 36.937 32.762 36.499 C 32.906 36.005 33.589 35.838 33.992 36.196 C 34.178 36.362 34.251 36.607 34.185 36.836 C 33.998 37.453 32.887 39.476 32.537 40.004 C 32.426 40.172 32.325 40.33 32.226 40.486 C 32.064 40.757 31.714 40.892 31.39 40.813 C 24.876 39.273 17.764 36.722 9.641 33.026 C 9.458 32.946 9.32 32.798 9.267 32.622 C 9.202 32.445 9.231 32.252 9.341 32.093 C 13.285 25.972 16.278 19.395 18.239 12.542 C 18.275 12.418 18.351 12.306 18.451 12.216 L 18.438 12.228 Z" transform="matrix(1.0000000000000002, 0, 0, 1, 0, 3.552713678800501e-15)"/>
  <path style="fill: rgb(0, 0, 0); opacity: 1;" d="M 8.156 17.936 C 8.156 17.936 8.256 17.857 8.318 17.835 C 8.481 17.756 8.742 17.689 9.092 17.824 L 15.655 20.509 C 16.03 20.643 16.217 21.037 16.054 21.374 C 15.892 21.712 15.468 21.88 15.094 21.734 L 9.092 19.261 C 8.331 21.138 7.42 23.272 6.297 25.374 C 6.135 25.667 5.174 27.217 4.287 28.622 C 3.514 29.835 3.04 30.577 2.715 31.026 C 9.479 36.027 16.416 40.352 23.878 44.24 C 24.664 43.173 26.087 40.577 26.611 39.386 C 26.76 39.05 27.184 38.88 27.572 39.015 C 27.946 39.151 28.133 39.532 27.984 39.88 C 27.335 41.352 25.725 44.229 24.702 45.51 C 24.477 45.79 24.065 45.869 23.741 45.701 C 15.78 41.6 8.418 37.004 1.243 31.656 C 0.929 31.423 0.884 31.005 1.143 30.724 C 1.168 30.689 1.206 30.655 1.243 30.633 C 1.755 29.993 4.662 25.397 4.974 24.801 C 6.173 22.565 7.132 20.25 7.919 18.295 C 7.968 18.161 8.057 18.037 8.169 17.948 L 8.156 17.936 Z M 2.167 30.61 C 2.167 30.61 2.042 30.532 1.979 30.509 C 2.042 30.532 2.117 30.565 2.167 30.61 Z" transform="matrix(1.0000000000000002, 0, 0, 1, 0, 3.552713678800501e-15)"/>
  <path style="fill: rgb(0, 0, 0); opacity: 1;" d="M 10.677 20.992 C 10.877 20.823 11.188 20.767 11.463 20.868 C 11.837 21.014 12.012 21.397 11.862 21.734 C 10.403 24.86 8.642 27.864 6.597 30.712 C 6.372 31.016 5.923 31.105 5.573 30.903 C 5.233 30.7 5.138 30.288 5.361 29.982 C 7.357 27.206 9.092 24.262 10.502 21.217 C 10.54 21.124 10.605 21.044 10.69 20.982 L 10.677 20.992 Z M 22.381 38.802 C 22.631 38.599 23.005 38.566 23.292 38.746 C 23.628 38.959 23.716 39.364 23.479 39.667 L 22.705 40.678 C 22.468 40.981 22.019 41.06 21.682 40.847 C 21.344 40.641 21.259 40.226 21.495 39.925 L 22.268 38.914 C 22.268 38.914 22.344 38.835 22.381 38.802 Z M 18.924 37.296 C 19.341 36.949 20.018 37.14 20.142 37.639 C 20.182 37.802 20.152 37.971 20.06 38.116 L 19.423 39.127 C 19.222 39.45 18.767 39.56 18.413 39.374 C 18.056 39.193 17.933 38.784 18.139 38.465 L 18.775 37.453 C 18.812 37.386 18.862 37.329 18.924 37.284 L 18.924 37.296 Z" transform="matrix(1.0000000000000002, 0, 0, 1, 0, 3.552713678800501e-15)"/>
</svg>