<?xml version="1.0" encoding="utf-8"?>
<svg viewBox="4.2969 0 41.4061 49.9999" width="41.4061" height="49.9999" xmlns="http://www.w3.org/2000/svg">
  <g id="Layer_x0020_1" transform="matrix(0.0976560041308403, 0, 0, 0.09765600413084032, 0.000002000000264956725, -0.0000010000001253729351)">
    <path class="fil0" d="M423 351l-227 0c-9,0 -9,-14 0,-14l227 0c9,0 9,14 0,14zm31 40l0 -377 -289 0 0 377 289 0zm-296 -391l0 0 303 0c4,0 7,3 7,7l0 498c0,4 -3,7 -7,7l-356 0c-34,0 -61,-27 -61,-61l0 -391c0,-33 28,-60 61,-60l53 0zm-100 114l0 299c11,-13 28,-22 47,-22l46 0 0 -377 -46 0c-26,0 -47,21 -47,46l0 54zm47 291c-26,0 -47,21 -47,46 0,26 21,47 47,47l349 0 0 -22 -115 0c-9,0 -9,-14 0,-14l115 0 0 -21 -115 0c-9,0 -9,-14 0,-14l115 0 0 -22 -349 0zm319 -272l-229 0c-4,0 -7,-3 -7,-7l0 -65c0,-4 3,-7 7,-7l229 0c4,0 7,3 7,7l0 65c0,4 -3,7 -7,7zm-222 -14l215 0 0 -51 -215 0 0 51zm167 97l-119 0c-9,0 -9,-14 0,-14l119 0c9,0 9,14 0,14zm54 45l-227 0c-9,0 -9,-14 0,-14l227 0c9,0 9,14 0,14zm0 45l-227 0c-9,0 -9,-14 0,-14l227 0c9,0 9,14 0,14z" style="fill: rgb(77, 77, 77);"/>
    <polygon class="fil1" points="202,119 417,119 417,68 202,68 " style="fill: rgb(217, 242, 242);"/>
    <path class="fil2" d="M424 133l-229 0c-4,0 -7,-3 -7,-7l0 -65c0,-4 3,-7 7,-7l229 0c4,0 7,3 7,7l0 65c0,4 -3,7 -7,7zm-174 69l119 0c9,0 9,14 0,14l-119 0c-9,0 -9,-14 0,-14zm-54 45l227 0c9,0 9,14 0,14l-227 0c-9,0 -9,-14 0,-14zm0 45l227 0c9,0 9,14 0,14l-227 0c-9,0 -9,-14 0,-14zm0 45l227 0c9,0 9,14 0,14l-227 0c-9,0 -9,-14 0,-14zm258 54l0 -377 -289 0 0 377 289 0z" style="fill: rgb(255, 230, 0);"/>
    <path class="fil3" d="M151 391l0 -377 -46 0c-26,0 -47,21 -47,46l0 54 0 299c11,-13 28,-22 47,-22l46 0z" style="fill: rgb(255, 112, 13);"/>
    <path class="fil1" d="M454 405l-349 0c-26,0 -47,21 -47,46 0,26 21,47 47,47l349 0 0 -22 -115 0c-9,0 -9,-14 0,-14l115 0 0 -21 -115 0c-9,0 -9,-14 0,-14l115 0 0 -22z" style="fill: rgb(217, 242, 242);"/>
  </g>
</svg>