<?xml version="1.0" encoding="UTF-8"?>
<svg id="_Слой_1" data-name="Слой 1" xmlns="http://www.w3.org/2000/svg" viewBox="0 0 50 50">
  <defs>
    <style>
      .cls-1 {
      fill:rgba(0, 0, 0, 0.5);
      }
    </style>
  </defs>
  <path class="cls-1"
    d="m36.36,35.55c.02.27-.15.51-.39.6-.05,0-.11-.02-.16-.05-.3-.13-.43-.48-.3-.78.05-.11.09-.21.14-.32.03,0,.05,0,.07,0,.33-.02.61.22.63.55Z" />
  <path class="cls-1"
    d="m42.02,17.56c-1.01,6.29-2.83,12.43-5.42,18.25-.11.25-.37.38-.62.35.24-.09.41-.33.39-.6-.02-.33-.31-.57-.63-.55-.03,0-.05,0-.07,0,2.47-5.63,4.22-11.57,5.2-17.64.61-3.79.76-6.87.48-9.61-2.8.41-5.52.62-8.37.84-1.45.19-2.99.35-3.16.35-1.26.02-2.52.12-3.77.3-.97,7.46-2.82,14.57-5.5,21.13,4.53,1.19,8.51,2.46,11.84,3.8l.08.03c1.06.43,2.15.87,3.21.81-.05.11-.09.21-.14.32-.13.3,0,.65.3.78.05.02.11.04.16.05-.05.02-.1.03-.16.03-1.36.1-2.61-.4-3.82-.89l-.08-.03c-3.44-1.38-7.59-2.7-12.35-3.92-.17-.04-.31-.16-.38-.31-.08-.15-.08-.33-.02-.49,2.84-6.76,4.77-14.13,5.74-21.89.02-.14.09-.27.19-.36.08-.08.19-.13.31-.15.87-.13,1.75-.23,2.63-.3t0,0c.09-.09,3.36-.31,3.5-.32l.94-.07c3.17-.24,6.17-.47,9.27-.95.16-.02.32.02.45.11.13.1.21.24.23.4.39,3.01.26,6.37-.41,10.55Z" />
  <path class="cls-1"
    d="m36.36,35.55c.02.27-.15.51-.39.6-.05,0-.11-.02-.16-.05-.3-.13-.43-.48-.3-.78.05-.11.09-.21.14-.32.03,0,.05,0,.07,0,.33-.02.61.22.63.55Z" />
  <path class="cls-1"
    d="m23.07,28.47c.15-.14.37-.19.58-.13,3.73,1.22,7.58,2.17,11.45,2.83.32.05.54.36.49.68-.05.32-.36.54-.68.49-3.93-.66-7.84-1.63-11.63-2.87-.31-.1-.48-.44-.38-.75.03-.1.09-.19.16-.25Z" />
  <path class="cls-1"
    d="m24.79,25.32c.14-.13.34-.19.54-.14,3.72.92,7.51,1.74,11.28,2.43.32.06.53.37.47.69-.06.32-.37.53-.69.47-3.79-.7-7.61-1.52-11.35-2.45-.32-.08-.51-.4-.43-.72.03-.12.09-.22.17-.29Z" />
  <path class="cls-1"
    d="m27.05,22.4c.13-.12.32-.18.51-.14l10.07,1.98c.32.06.53.37.47.69-.06.32-.37.53-.69.47l-10.07-1.98c-.32-.06-.53-.37-.47-.69.03-.13.09-.24.18-.32Z" />
  <path class="cls-1"
    d="m26.1,19.16c.12-.11.28-.17.46-.15,3.93.39,7.86,1.05,11.7,1.97.32.08.51.4.44.71-.08.32-.4.51-.71.44-3.78-.91-7.67-1.56-11.54-1.94-.33-.03-.56-.32-.53-.65.01-.15.09-.28.19-.38Z" />
  <path class="cls-1"
    d="m26.65,15.99c.1-.09.23-.15.38-.15,3.99-.15,7.98.24,11.87,1.16.32.07.52.39.44.71-.08.32-.39.52-.71.44-3.78-.89-7.67-1.27-11.56-1.13-.33.01-.6-.24-.61-.57,0-.18.07-.35.19-.46Z" />
  <path class="cls-1"
    d="m27.81,12.07c.1-.09.23-.15.37-.15,3.54-.15,7.14-.15,10.68.02.33.02.58.29.56.62-.02.33-.29.58-.62.56-3.51-.17-7.07-.18-10.58-.02-.33.01-.6-.24-.62-.57,0-.18.07-.35.19-.46Z" />
  <path class="cls-1"
    d="m21.36,13.65c.08-.08.19-.13.31-.15l.23-.04c.46-.07,1.98-.16,2.44-.13.33.02.57.3.55.63-.02.33-.3.57-.63.55-.28-.02-1.67.04-2.02.09-1.54,5.87-3.84,11.51-6.84,16.78,6.02,3.01,11.33,5.13,16.2,6.45.01-.02.03-.04.04-.06.24-.41,1.09-2.13,1.2-2.52.08-.32.41-.5.72-.42.32.08.5.41.42.72-.15.55-1.04,2.35-1.32,2.82-.09.15-.17.29-.25.43-.13.24-.41.36-.67.29-5.22-1.37-10.92-3.64-17.43-6.93-.15-.07-.25-.2-.3-.36-.05-.16-.03-.32.06-.47,3.16-5.45,5.56-11.3,7.13-17.4.03-.11.09-.21.17-.29Z" />
  <path class="cls-1"
    d="m13.12,18.73s.08-.07.13-.09c.13-.07.34-.13.62-.01l5.26,2.39c.3.12.45.47.32.77-.13.3-.47.45-.77.32l-4.81-2.2c-.61,1.67-1.34,3.57-2.24,5.44-.13.26-.9,1.64-1.61,2.89-.62,1.08-1,1.74-1.26,2.14,5.42,4.45,10.98,8.3,16.96,11.76.63-.95,1.77-3.26,2.19-4.32.12-.3.46-.45.77-.33.3.12.45.46.33.77-.52,1.31-1.81,3.87-2.63,5.01-.18.25-.51.32-.77.17-6.38-3.65-12.28-7.74-18.03-12.5,0,0,0,0,0,0-.25-.21-.29-.58-.08-.83.02-.03.05-.06.08-.08.41-.57,2.74-4.66,2.99-5.19.96-1.99,1.73-4.05,2.36-5.79.04-.12.11-.23.2-.31Zm-4.8,11.28s-.1-.07-.15-.09c.05.02.11.05.15.09h0Z" />
  <path class="cls-1"
    d="m15.14,21.45c.16-.15.41-.2.63-.11.3.13.44.47.32.77-1.16,2.78-2.59,5.46-4.22,7.99-.18.27-.54.35-.82.17-.27-.18-.35-.54-.17-.82,1.6-2.47,2.99-5.09,4.12-7.8.03-.08.08-.15.15-.21Z" />
  <path class="cls-1"
    d="m24.52,37.3c.2-.18.5-.21.73-.05.27.19.34.55.15.82l-.62.9c-.19.27-.55.34-.82.15-.27-.19-.34-.55-.15-.82l.62-.9s.06-.07.09-.1Z" />
  <path class="cls-1"
    d="m21.75,35.96c.18-.17.46-.21.69-.08.28.16.39.52.22.81l-.51.9c-.16.28-.52.39-.81.22-.28-.16-.39-.52-.22-.81l.51-.9c.03-.06.07-.11.12-.15Z" />
</svg>