<svg id="_Слой_1" data-name="Слой 1" xmlns="http://www.w3.org/2000/svg" viewBox="0 0 50 50">
    <path style="fill:#000; opacity: 0.5;"
        d="M36.36 35.55a.6.6 0 0 1-.39.6c-.05 0-.11-.02-.16-.05-.3-.13-.43-.48-.3-.78.05-.11.09-.21.14-.32h.07c.33-.02.61.22.63.55z" />
    <path style="fill:#000; opacity: 0.5;"
        d="M42.02 17.56a73.6 73.6 0 0 1-5.42 18.25c-.11.25-.37.38-.62.35a.592.592 0 0 0-.24-1.15h-.07a72.856 72.856 0 0 0 5.2-17.64c.61-3.79.76-6.87.48-9.61-2.8.41-5.52.62-8.37.84-1.45.19-2.99.35-3.16.35-1.26.02-2.52.12-3.77.3-.97 7.46-2.82 14.57-5.5 21.13 4.53 1.19 8.51 2.46 11.84 3.8l.08.03c1.06.43 2.15.87 3.21.81-.05.11-.09.21-.14.32-.13.3 0 .65.3.78.05.02.11.04.16.05-.05.02-.1.03-.16.03-1.36.1-2.61-.4-3.82-.89l-.08-.03c-3.44-1.38-7.59-2.7-12.35-3.92a.568.568 0 0 1-.38-.31.598.598 0 0 1-.02-.49c2.84-6.76 4.77-14.13 5.74-21.89a.605.605 0 0 1 .5-.51c.87-.13 1.75-.23 2.63-.3.09-.09 3.36-.31 3.5-.32l.94-.07c3.17-.24 6.17-.47 9.27-.95.16-.02.32.02.45.11.13.1.21.24.23.4.39 3.01.26 6.37-.41 10.55z" />
    <path style="fill:#000; opacity: 0.5;"
        d="M36.36 35.55a.6.6 0 0 1-.39.6c-.05 0-.11-.02-.16-.05-.3-.13-.43-.48-.3-.78.05-.11.09-.21.14-.32h.07c.33-.02.61.22.63.55zM23.07 28.47c.15-.14.37-.19.58-.13a80.44 80.44 0 0 0 11.45 2.83c.32.05.54.36.49.68-.05.32-.36.54-.68.49-3.93-.66-7.84-1.63-11.63-2.87a.598.598 0 0 1-.22-1zM24.79 25.32c.14-.13.34-.19.54-.14 3.72.92 7.51 1.74 11.28 2.43a.59.59 0 0 1-.22 1.16c-3.79-.7-7.61-1.52-11.35-2.45a.59.59 0 0 1-.43-.72c.03-.12.09-.22.17-.29zM27.05 22.4a.58.58 0 0 1 .51-.14l10.07 1.98a.59.59 0 0 1-.22 1.16l-10.07-1.98a.59.59 0 0 1-.47-.69c.03-.13.09-.24.18-.32zM26.1 19.16c.12-.11.28-.17.46-.15 3.93.39 7.86 1.05 11.7 1.97.32.08.51.4.44.71-.08.32-.4.51-.71.44-3.78-.91-7.67-1.56-11.54-1.94a.588.588 0 0 1-.53-.65c.01-.15.09-.28.19-.38zM26.65 15.99c.1-.09.23-.15.38-.15 3.99-.15 7.98.24 11.87 1.16.32.07.52.39.44.71-.08.32-.39.52-.71.44a43.61 43.61 0 0 0-11.56-1.13c-.33.01-.6-.24-.61-.57 0-.18.07-.35.19-.46zM27.81 12.07c.1-.09.23-.15.37-.15 3.54-.15 7.14-.15 10.68.02.33.02.58.29.56.62-.02.33-.29.58-.62.56-3.51-.17-7.07-.18-10.58-.02a.6.6 0 0 1-.62-.57c0-.18.07-.35.19-.46z" />
    <path style="fill:#000; opacity: 0.5;"
        d="M21.36 13.65c.08-.08.19-.13.31-.15l.23-.04c.46-.07 1.98-.16 2.44-.13.33.02.57.3.55.63-.02.33-.3.57-.63.55-.28-.02-1.67.04-2.02.09a69.636 69.636 0 0 1-6.84 16.78c6.02 3.01 11.33 5.13 16.2 6.45.01-.02.03-.04.04-.06.24-.41 1.09-2.13 1.2-2.52a.588.588 0 1 1 1.14.3c-.15.55-1.04 2.35-1.32 2.82-.09.15-.17.29-.25.43-.13.24-.41.36-.67.29-5.22-1.37-10.92-3.64-17.43-6.93a.57.57 0 0 1-.3-.36.56.56 0 0 1 .06-.47 68.94 68.94 0 0 0 7.13-17.4c.03-.11.09-.21.17-.29z" />
    <path style="fill:#000; opacity: 0.5;"
        d="M13.12 18.73s.08-.07.13-.09c.13-.07.34-.13.62-.01l5.26 2.39c.3.12.45.47.32.77-.13.3-.47.45-.77.32l-4.81-2.2c-.61 1.67-1.34 3.57-2.24 5.44-.13.26-.9 1.64-1.61 2.89-.62 1.08-1 1.74-1.26 2.14 5.42 4.45 10.98 8.3 16.96 11.76.63-.95 1.77-3.26 2.19-4.32.12-.3.46-.45.77-.33.3.12.45.46.33.77-.52 1.31-1.81 3.87-2.63 5.01-.18.25-.51.32-.77.17-6.38-3.65-12.28-7.74-18.03-12.5a.589.589 0 0 1-.08-.83c.02-.03.05-.06.08-.08.41-.57 2.74-4.66 2.99-5.19.96-1.99 1.73-4.05 2.36-5.79.04-.12.11-.23.2-.31zm-4.8 11.28s-.1-.07-.15-.09c.05.02.11.05.15.09z" />
    <path style="fill:#000; opacity: 0.5;"
        d="M15.14 21.45c.16-.15.41-.2.63-.11.3.13.44.47.32.77a51.224 51.224 0 0 1-4.22 7.99c-.18.27-.54.35-.82.17a.594.594 0 0 1-.17-.82c1.6-2.47 2.99-5.09 4.12-7.8a.51.51 0 0 1 .15-.21zM24.52 37.3c.2-.18.5-.21.73-.05.27.19.34.55.15.82l-.62.9c-.19.27-.55.34-.82.15a.584.584 0 0 1-.15-.82l.62-.9s.06-.07.09-.1zM21.75 35.96a.59.59 0 0 1 .91.73l-.51.9a.59.59 0 0 1-.81.22.59.59 0 0 1-.22-.81l.51-.9c.03-.06.07-.11.12-.15z" />
</svg>