<?xml version="1.0" encoding="utf-8"?>
<svg viewBox="0 0.5 50.0001 49.0002" width="50.0001" height="49.0002"
  xmlns="http://www.w3.org/2000/svg">
  <g id="_x35_45_x2C__Bottle_x2C__Gas_x2C__Plastic_x2C__Pollution_x2C__Waste"
    transform="matrix(0.10204099863767624, 0, 0, 0.10204099863767625, -1.4210854715202004e-14, 0.4999520288563204)">
    <g>
      <path style="fill:#A7C7FC;"
        d="M217.2,390.39c12.16,12.16,12.16,31.891,0,44.051L190.55,461.1c-12.17,12.16-31.9,12.16-44.06,0 L49.12,363.73c-12.16-12.16-12.16-31.891,0-44.051l26.66-26.66c12.16-12.159,31.89-12.159,44.05,0L217.2,390.39z" />
      <path style="fill:#A7C7FC;"
        d="M358.62,248.96c12.17,12.17,12.17,31.9,0,44.059l-26.65,26.66c-12.17,12.16-31.89,12.16-44.06,0 l-97.36-97.37c-12.17-12.16-12.17-31.89,0-44.06l26.65-26.65c12.16-12.16,31.89-12.16,44.06,0l9.81,9.81 c0.109,0.12,0.23,0.24,0.35,0.36l77.03,77.03c0.12,0.12,0.24,0.24,0.359,0.35L358.62,248.96z" />
      <path style="fill:#FFFFFF;"
        d="M287.91,319.68c12.17,12.16,12.17,31.891,0,44.051l-26.65,26.659c-12.17,12.16-31.9,12.16-44.06,0 l-97.37-97.37c-12.16-12.159-12.16-31.89,0-44.059l26.66-26.65c12.16-12.16,31.89-12.16,44.06,0L287.91,319.68z" />
      <path style="fill:#FFFFFF;"
        d="M416.23,136.88c8.63,9.08,12.34,21.82,9.869,34.15l-8.47,42.35c-1.07,5.35-3.27,10.41-6.439,14.85 l-4.08,5.71c-13.75,19.26-41.41,21.68-58.301,5.21c-0.119-0.11-0.239-0.23-0.359-0.35l-77.03-77.03 c-0.12-0.12-0.24-0.24-0.35-0.36c-16.47-16.88-14.051-44.55,5.21-58.3l5.71-4.08c4.439-3.17,9.5-5.37,14.85-6.44l42.351-8.47 c12.329-2.47,25.069,1.24,34.149,9.87L416.23,136.88z" />
      <circle style="fill:#FFFFFF;" cx="460" cy="279.78" r="20" />
      <circle style="fill:#FFFFFF;" cx="420" cy="439.78" r="20" />
      <circle style="fill:#FFFFFF;" cx="70" cy="149.78" r="20" />
      <polygon style="fill:#FFFFFF;"
        points="445.5,109.57 417.21,137.85 416.23,136.88 373.34,93.99 372.37,93.01 400.65,64.72 &#9;&#9;" />
      <path style="fill:#4D80C9;"
        d="M409.48,296.62c0.35,1.05,0.52,2.12,0.52,3.17c0,4.18-2.65,8.08-6.84,9.47 c-1.05,0.351-2.12,0.521-3.17,0.521c-4.181,0-8.08-2.65-9.48-6.84c-0.35-1.051-0.52-2.12-0.52-3.171 c0-4.18,2.649-8.079,6.84-9.479C402.07,288.54,407.74,291.38,409.48,296.62z" />
      <path style="fill:#4D80C9;"
        d="M269.49,456.62c0.35,1.05,0.51,2.11,0.51,3.16c0,4.189-2.65,8.09-6.84,9.489 c-1.05,0.351-2.11,0.511-3.16,0.511c-4.19,0-8.09-2.65-9.49-6.84c-0.35-1.051-0.51-2.11-0.51-3.16c0-4.19,2.65-8.09,6.84-9.49 C262.08,448.55,267.74,451.38,269.49,456.62z" />
      <path style="fill:#4D80C9;"
        d="M159.48,56.62c0.35,1.05,0.52,2.12,0.52,3.17c0,4.18-2.65,8.08-6.84,9.48 c-1.05,0.35-2.11,0.51-3.16,0.51c-4.19,0-8.09-2.65-9.49-6.84c-0.35-1.05-0.52-2.12-0.52-3.17c0-4.18,2.65-8.08,6.84-9.48 C152.07,48.55,157.74,51.38,159.48,56.62z" />
      <path style="fill:#4D80C9;"
        d="M69.49,216.62c0.35,1.05,0.51,2.11,0.51,3.16c0,4.19-2.65,8.09-6.84,9.49 c-1.05,0.35-2.11,0.51-3.16,0.51c-4.19,0-8.09-2.65-9.49-6.84c-0.35-1.05-0.51-2.11-0.51-3.16c0-4.19,2.65-8.09,6.84-9.49 C62.08,208.54,67.74,211.38,69.49,216.62z" />
      <path style="fill:#4D80C9;"
        d="M168.515,480.201c-10.54,0.001-21.075-4.01-29.096-12.03l-97.37-97.369 c-16.044-16.044-16.044-42.149,0-58.193l26.66-26.66c16.044-16.043,42.148-16.043,58.192,0c3.905,3.905,3.906,10.236,0.001,14.142 c-3.905,3.906-10.237,3.905-14.142,0.001c-8.246-8.244-21.662-8.244-29.909,0l-26.659,26.66c-8.246,8.246-8.246,21.662,0,29.908 l97.37,97.369c8.245,8.246,21.667,8.245,29.92-0.003l26.646-26.655c8.247-8.246,8.247-21.664,0.001-29.909 c-3.905-3.905-3.905-10.237,0.001-14.143c3.905-3.904,10.237-3.903,14.142,0c16.043,16.044,16.043,42.149,0,58.193l-26.649,26.658 C189.595,476.19,179.052,480.2,168.515,480.201z" />
      <path style="fill:#4D80C9;"
        d="M239.225,409.491c-10.54,0.001-21.075-4.01-29.096-12.03l-97.37-97.37 c-16.04-16.039-16.041-42.147-0.003-58.199l26.664-26.654c16.038-16.039,42.146-16.04,58.198-0.001 c3.907,3.903,3.909,10.235,0.005,14.142c-3.903,3.906-10.235,3.91-14.142,0.005c-8.252-8.246-21.675-8.248-29.92-0.003 L126.9,256.032c-8.243,8.249-8.244,21.672,0.001,29.916l97.371,97.37c8.244,8.246,21.667,8.245,29.92-0.003l26.646-26.655 c3.999-3.996,6.2-9.306,6.2-14.955c0-5.649-2.201-10.959-6.196-14.951c-3.906-3.904-3.909-10.235-0.006-14.143 c3.903-3.906,10.235-3.909,14.143-0.006c7.776,7.771,12.06,18.104,12.06,29.1c0,10.995-4.283,21.329-12.06,29.1l-26.646,26.655 C260.306,405.479,249.762,409.49,239.225,409.491z" />
      <path style="fill:#4D80C9;"
        d="M309.939,338.777c-10.538,0-21.074-4.008-29.097-12.023l-97.363-97.373 c-7.773-7.767-12.056-18.102-12.056-29.097c0-10.994,4.282-21.33,12.057-29.105l26.65-26.65 c16.039-16.04,42.148-16.041,58.199-0.002l9.814,9.813c3.905,3.905,3.905,10.237,0,14.142c-3.904,3.905-10.236,3.906-14.143,0 l-9.81-9.81c-8.251-8.244-21.673-8.246-29.917-0.001l-26.651,26.65c-3.997,3.997-6.198,9.311-6.198,14.962 c0,5.65,2.2,10.96,6.196,14.953l97.363,97.373c8.248,8.24,21.672,8.238,29.92-0.004l26.646-26.655 c3.999-3.996,6.2-9.307,6.2-14.956c0-5.652-2.202-10.966-6.199-14.963l-9.811-9.81c-3.905-3.905-3.905-10.237,0-14.142 c3.904-3.905,10.236-3.906,14.143-0.001l9.81,9.81c7.774,7.775,12.057,18.111,12.057,29.105c0,10.995-4.283,21.33-12.06,29.1 l-26.646,26.655C331.018,334.768,320.477,338.776,309.939,338.777z" />
      <path style="fill:#4D80C9;"
        d="M375.707,260.096c-12.578,0.001-24.697-4.873-33.801-13.71c-0.175-0.165-0.352-0.339-0.527-0.515 l-77.03-77.03c-0.178-0.178-0.355-0.357-0.522-0.536c-9.843-10.139-14.766-24.025-13.51-38.12 c1.259-14.135,8.605-26.97,20.153-35.214l5.707-4.078c5.64-4.027,11.931-6.755,18.701-8.109l42.352-8.47 c15.473-3.101,31.55,1.545,43,12.428c4.003,3.805,4.163,10.134,0.358,14.137c-3.806,4.002-10.133,4.164-14.138,0.359 c-6.736-6.403-16.19-9.141-25.295-7.313l-42.355,8.47c-3.978,0.796-7.68,2.402-10.999,4.772l-5.708,4.078 c-6.795,4.851-11.115,12.4-11.855,20.714c-0.741,8.314,2.171,16.503,7.989,22.466c0.076,0.077,0.15,0.156,0.223,0.236l0.041,0.036 l77.146,77.145c0.068,0.063,0.088,0.081,0.154,0.146c5.969,5.821,14.15,8.736,22.477,7.992c8.31-0.742,15.856-5.062,20.704-11.853 l4.082-5.713c2.369-3.317,3.975-7.018,4.771-10.997l8.47-42.35c1.824-9.106-0.909-18.563-7.311-25.3 c-3.806-4.003-3.645-10.333,0.359-14.138c4.003-3.805,10.332-3.644,14.137,0.359c10.883,11.45,15.527,27.526,12.426,43.004 l-8.469,42.346c-1.354,6.771-4.082,13.063-8.106,18.7l-4.082,5.713c-8.241,11.542-21.072,18.888-35.202,20.148 C378.597,260.032,377.147,260.096,375.707,260.096z" />
      <path style="fill:#4D80C9;"
        d="M417.21,147.85c-2.544,0-5.088-0.964-7.037-2.895l-0.979-0.97l-43.934-43.942 c-3.867-3.911-3.851-10.212,0.038-14.102l28.28-28.29c1.875-1.876,4.419-2.93,7.071-2.93c2.652,0,5.196,1.053,7.072,2.929 l44.85,44.85c1.875,1.876,2.929,4.42,2.929,7.072s-1.055,5.196-2.93,7.071l-28.291,28.28 C422.328,146.874,419.769,147.85,417.21,147.85z M386.506,93.014l30.7,30.7l14.15-14.146l-30.705-30.705L386.506,93.014z" />
      <path style="fill:#4D80C9;"
        d="M147.3,387.06c-2.559,0-5.118-0.977-7.071-2.929l-56.57-56.569c-3.905-3.905-3.905-10.237,0-14.143 c3.905-3.904,10.238-3.904,14.142,0l56.57,56.569c3.905,3.905,3.905,10.237,0.001,14.143 C152.419,386.083,149.859,387.06,147.3,387.06z" />
      <path style="fill:#4D80C9;"
        d="M182.66,422.42c-2.562,0-5.123-0.977-7.076-2.934l-7.07-7.08c-3.902-3.908-3.898-10.24,0.01-14.143 c3.908-3.902,10.239-3.898,14.143,0.01l7.07,7.08c3.902,3.908,3.898,10.24-0.01,14.143 C187.774,421.445,185.217,422.42,182.66,422.42z" />
      <path style="fill:#4D80C9;"
        d="M324.08,280.99c-2.56,0-5.118-0.977-7.071-2.929l-63.64-63.641 c-3.905-3.905-3.905-10.237,0.001-14.142c3.906-3.905,10.238-3.904,14.142,0.001l63.64,63.64c3.905,3.905,3.905,10.237,0,14.143 C329.199,280.014,326.639,280.99,324.08,280.99z" />
      <path style="fill:#4D80C9;"
        d="M347.935,436.481c-7.876,0-16.126-2.48-24.163-8.877c-7.516-5.982-15.653-7.814-24.873-5.601 c-7.503,1.802-12.821,5.718-12.874,5.757c-4.388,3.356-10.64,2.5-13.993-1.888c-3.355-4.387-2.494-10.682,1.894-14.036 c10.964-8.384,38.094-19.147,62.302,0.119c4.386,3.492,11.577,7.422,23.324,1.276c7.541-3.945,12.832-9.933,12.883-9.991 c3.611-4.18,9.929-4.637,14.104-1.026c4.179,3.611,4.638,9.927,1.026,14.104C380.063,425,364.873,436.479,347.935,436.481z" />
      <path style="fill:#4D80C9;"
        d="M437.935,376.481c-7.876,0-16.126-2.48-24.163-8.877c-7.516-5.982-15.654-7.814-24.873-5.601 c-7.503,1.802-12.821,5.718-12.874,5.757c-4.387,3.357-10.64,2.5-13.993-1.888c-3.355-4.387-2.494-10.682,1.894-14.036 c10.964-8.384,38.094-19.147,62.302,0.119c4.386,3.492,11.576,7.422,23.324,1.276c7.541-3.945,12.832-9.933,12.883-9.991 c3.611-4.179,9.929-4.637,14.104-1.026c4.179,3.611,4.638,9.927,1.026,14.104C470.063,365,454.873,376.479,437.935,376.481z" />
      <path style="fill:#4D80C9;"
        d="M460,309.78c-16.542,0-30-13.458-30-30s13.458-30,30-30s30,13.458,30,30S476.542,309.78,460,309.78 z M460,269.78c-5.514,0-10,4.486-10,10c0,5.514,4.486,10,10,10s10-4.486,10-10C470,274.267,465.514,269.78,460,269.78z" />
      <path style="fill:#4D80C9;"
        d="M70,179.78c-16.542,0-30-13.458-30-30s13.458-30,30-30s30,13.458,30,30S86.542,179.78,70,179.78z M70,139.78c-5.514,0-10,4.486-10,10c0,5.514,4.486,10,10,10s10-4.486,10-10C80,144.266,75.514,139.78,70,139.78z" />
      <path style="fill:#4D80C9;"
        d="M420,469.78c-16.542,0-30-13.458-30-30s13.458-30,30-30s30,13.458,30,30S436.542,469.78,420,469.78 z M420,429.78c-5.514,0-10,4.486-10,10c0,5.514,4.486,10,10,10s10-4.486,10-10C430,434.267,425.514,429.78,420,429.78z" />
    </g>
  </g>
  <g id="g-1"
    transform="matrix(0.10204099863767624, 0, 0, 0.10204099863767625, -1.4210854715202004e-14, 0.4999520288563204)" />
</svg>