<svg viewBox="6.2621 2.7748 37.4749 44.4507" width="37.4749" height="44.4507" xmlns="http://www.w3.org/2000/svg">
  <path style="fill: rgb(0, 0, 0); opacity: 1;" d="M 11.026 6.936 C 10.742 6.862 10.544 6.605 10.543 6.311 L 10.52 4.52 C 10.52 4.331 10.52 4.024 10.685 3.73 C 10.991 3.199 11.592 3.129 11.852 3.093 C 14.103 2.81 16.402 2.716 18.665 2.81 C 18.853 2.81 19.242 2.834 19.537 3.117 C 19.891 3.435 19.903 3.883 19.903 4.083 C 19.926 4.744 19.879 5.404 19.761 6.064 C 19.702 6.417 19.36 6.547 19.007 6.476 C 18.653 6.417 18.417 6.193 18.476 5.828 C 18.571 5.262 18.618 4.685 18.606 4.119 C 16.413 4.024 14.197 4.119 12.017 4.39 C 11.922 4.39 11.863 4.413 11.828 4.425 L 11.828 4.508 L 11.852 6.299 C 11.852 6.665 11.569 6.96 11.215 6.96 C 11.156 6.96 11.097 6.96 11.038 6.936 L 11.026 6.936 Z M 9.529 22.496 C 9.093 22.543 8.905 22.201 8.834 21.635 C 9.317 21.152 9.777 20.68 10.142 20.162 C 10.083 21.069 10.437 22.401 9.529 22.496 Z" transform="matrix(1.0000000000000002, 0, 0, 1, 0, 3.552713678800501e-15)"/>
  <path style="fill: rgb(0, 0, 0); opacity: 1;" d="M 9.529 22.496 C 9.093 22.543 8.905 22.201 8.834 21.635 C 9.317 21.152 9.777 20.68 10.142 20.162 C 10.083 21.069 10.437 22.401 9.529 22.496 Z M 12.806 19.879 C 12.514 19.801 12.314 19.532 12.323 19.23 C 12.323 18.865 12.63 18.582 12.995 18.594 L 17.722 18.735 C 18.075 18.735 18.37 19.042 18.358 19.407 C 18.358 19.773 18.052 20.056 17.686 20.044 L 12.96 19.902 C 12.96 19.902 12.854 19.902 12.806 19.879 Z M 11.651 16.201 C 11.166 16.062 11.012 15.449 11.375 15.098 C 11.483 14.994 11.622 14.93 11.769 14.916 C 13.785 14.775 15.812 14.504 17.793 14.103 C 18.146 14.032 18.488 14.256 18.559 14.61 C 18.629 14.963 18.406 15.305 18.052 15.376 C 16.013 15.789 13.938 16.071 11.863 16.213 C 11.793 16.213 11.722 16.213 11.651 16.189 L 11.651 16.201 Z M 9.376 33.776 C 8.894 33.648 8.731 33.046 9.084 32.692 C 9.173 32.602 9.288 32.54 9.412 32.515 C 11.946 31.985 14.539 31.714 17.121 31.702 C 17.474 31.702 17.769 31.996 17.769 32.35 C 17.769 32.716 17.474 32.998 17.121 32.998 C 14.622 32.998 12.111 33.27 9.671 33.776 C 9.565 33.8 9.471 33.788 9.364 33.776 L 9.376 33.776 Z M 23.828 47.214 C 20.032 47.309 16.354 45.776 15.447 41.768 C 14.197 36.452 17.981 34.437 19.938 31.82 C 20.079 31.065 19.926 30.782 19.891 30.723 C 19.219 30.393 19.702 29.309 20.398 29.604 C 24.134 33.022 14.681 35.391 16.637 41.462 C 19.29 50.032 33.741 44.998 38.421 40.436 C 41.403 37.23 44.574 30.794 40.437 27.8 C 39.081 26.61 37.572 26.056 36.83 26.15 C 34.012 26.291 30.394 32.657 29.545 31.855 C 29.263 31.662 29.19 31.277 29.38 30.995 C 31.796 27.718 36.582 22.048 41.25 26.881 C 42.853 28.295 43.737 30.052 43.737 31.796 C 43.23 41.179 32.574 47.533 23.828 47.214 Z" transform="matrix(1.0000000000000002, 0, 0, 1, 0, 3.552713678800501e-15)"/>
  <path style="fill: rgb(0, 0, 0); opacity: 1;" d="M 30.948 29.474 C 30.948 29.474 30.83 29.474 30.771 29.45 C 30.559 29.391 30.111 29.321 29.769 29.391 C 29.438 29.461 29.111 29.251 29.038 28.92 C 28.967 28.59 29.179 28.26 29.509 28.189 C 30.111 28.059 30.806 28.189 31.113 28.272 C 31.443 28.366 31.619 28.708 31.525 29.038 C 31.443 29.309 31.207 29.474 30.936 29.474 L 30.948 29.474 Z M 17.286 30.888 C 16.908 30.888 16.531 30.865 16.178 30.782 C 15.152 30.558 14.787 29.568 14.846 28.602 C 14.657 28.484 14.492 28.331 14.362 28.154 C 13.962 27.6 13.855 26.834 14.056 25.973 C 14.433 24.429 16.425 24.228 17.569 24.346 C 17.663 24.323 17.875 24.193 18.005 24.122 C 18.429 23.875 18.901 23.604 19.396 23.781 C 19.525 23.828 19.796 23.898 20.115 23.969 C 20.692 24.111 21.482 24.299 22.331 24.594 C 23.238 24.9 24.453 25.667 24.889 26.786 C 25.124 27.376 25.101 27.989 24.806 28.531 C 24.099 29.886 22.354 30.747 20.386 30.723 C 19.808 30.723 19.231 30.759 18.688 30.806 C 18.205 30.841 17.734 30.888 17.274 30.888 L 17.286 30.888 Z M 16.072 28.814 C 16.072 29.132 16.142 29.509 16.437 29.58 C 17.038 29.71 17.793 29.651 18.594 29.58 C 19.172 29.533 19.773 29.486 20.421 29.486 L 20.48 29.486 C 21.706 29.486 23.179 29.014 23.734 27.953 C 23.851 27.718 23.863 27.494 23.757 27.234 C 23.533 26.657 22.767 26.044 21.942 25.761 C 21.14 25.49 20.386 25.301 19.844 25.171 C 19.502 25.089 19.254 25.03 19.054 24.971 C 18.948 25.006 18.747 25.124 18.629 25.195 C 18.264 25.407 17.887 25.631 17.474 25.584 C 17.05 25.537 15.447 25.513 15.258 26.279 C 15.14 26.763 15.176 27.187 15.353 27.435 C 15.447 27.553 15.565 27.623 15.694 27.635 C 15.777 27.635 15.989 27.588 16.201 27.541 C 17.038 27.329 18.606 26.94 21.671 27.6 C 22.001 27.67 22.213 28 22.142 28.331 C 22.071 28.661 21.741 28.873 21.411 28.802 C 18.629 28.201 17.297 28.543 16.496 28.743 C 16.343 28.778 16.201 28.814 16.072 28.837 L 16.072 28.814 Z M 19.089 24.959 Z" transform="matrix(1.0000000000000002, 0, 0, 1, 0, 3.552713678800501e-15)"/>
  <path style="fill: rgb(0, 0, 0); opacity: 1;" d="M 20.739 26.928 C 20.622 26.928 20.504 26.892 20.398 26.822 C 19.455 26.173 18.123 25.737 17.463 25.596 C 17.131 25.523 16.921 25.196 16.991 24.865 C 17.062 24.535 17.392 24.323 17.722 24.393 C 18.417 24.535 19.914 25.006 21.093 25.808 C 21.486 26.067 21.449 26.653 21.029 26.863 C 20.942 26.907 20.848 26.928 20.751 26.928 L 20.739 26.928 Z" transform="matrix(1.0000000000000002, 0, 0, 1, 0, 3.552713678800501e-15)"/>
  <path style="fill: rgb(0, 0, 0); opacity: 1;" d="M 29.498 29.639 C 29.38 29.639 29.262 29.604 29.156 29.533 C 28.872 29.348 28.793 28.967 28.979 28.684 C 29.604 27.741 30.665 25.336 30.158 22.979 C 29.674 20.692 28.213 17.816 23.993 17.085 C 20.457 16.472 19.466 17.627 18.347 19.466 C 17.498 20.845 17.25 23.545 17.286 24.924 C 17.286 25.266 17.026 25.549 16.685 25.56 C 16.343 25.56 16.06 25.301 16.048 24.959 C 16.024 23.863 16.189 20.633 17.286 18.83 C 18.535 16.779 19.926 15.128 24.193 15.871 C 28.012 16.531 30.547 18.971 31.348 22.731 C 31.926 25.49 30.712 28.283 29.981 29.368 C 29.863 29.545 29.663 29.639 29.474 29.639 L 29.498 29.639 Z" transform="matrix(1.0000000000000002, 0, 0, 1, 0, 3.552713678800501e-15)"/>
  <path style="fill: rgb(0, 0, 0); opacity: 1;" d="M 16.107 42.829 C 16.107 42.829 16.072 42.888 16.06 42.924 C 15.871 43.265 15.706 43.584 15.482 43.772 C 15.223 43.984 14.81 44.008 14.527 43.843 C 14.292 43.702 14.103 43.43 13.891 43.148 C 13.785 43.006 13.69 42.876 13.584 42.747 C 12.96 41.992 12.135 41.674 11.427 41.922 C 10.673 42.181 10.402 42.888 10.19 43.454 C 10.06 43.808 9.93 44.149 9.742 44.244 C 9.565 44.338 9.235 44.208 9.046 43.973 C 8.799 43.643 8.693 43.171 8.61 42.664 C 8.139 39.847 7.997 36.924 7.867 34.106 C 7.867 33.953 7.797 33.328 7.702 32.657 L 7.702 32.598 C 7.608 30.995 7.561 29.356 7.561 27.741 C 7.561 26.739 7.573 25.855 7.879 25.054 C 8.233 24.099 8.952 23.38 9.718 22.614 C 10.508 21.812 11.333 20.999 11.804 19.855 C 11.944 19.523 11.784 19.141 11.451 19.007 C 11.118 18.867 10.738 19.025 10.602 19.36 C 10.484 19.655 10.331 19.914 10.154 20.174 C 10.095 21.081 10.449 22.413 9.541 22.507 C 9.105 22.555 8.916 22.213 8.846 21.647 L 8.799 21.694 C 7.962 22.531 7.101 23.392 6.653 24.606 C 6.288 25.608 6.252 26.668 6.264 27.753 C 6.264 29.391 6.323 31.042 6.406 32.68 C 6.406 32.786 6.476 33.376 6.571 34.071 C 6.665 34.767 6.571 34.154 6.571 34.177 C 6.712 37.042 6.854 39.988 7.337 42.888 C 7.443 43.537 7.584 44.22 8.032 44.786 C 8.304 45.128 8.704 45.411 9.152 45.529 C 9.541 45.635 9.977 45.611 10.366 45.399 C 10.979 45.069 11.227 44.432 11.415 43.914 C 11.557 43.56 11.675 43.218 11.863 43.159 C 12.028 43.1 12.347 43.277 12.582 43.584 C 12.677 43.69 12.759 43.808 12.842 43.926 C 13.101 44.291 13.396 44.692 13.855 44.975 C 14.61 45.423 15.612 45.352 16.296 44.798 C 16.72 44.456 16.979 43.984 17.203 43.56 C 17.262 43.454 17.309 43.372 17.356 43.277 L 16.06 42.994 L 16.095 42.841 L 16.107 42.829 Z" transform="matrix(1.0000000000000002, 0, 0, 1, 0, 3.552713678800501e-15)"/>
  <path style="fill: rgb(0, 0, 0); opacity: 1;" d="M 10.19 19.808 C 10.307 18.146 10.437 16.26 9.471 14.881 C 7.396 12.523 7.419 9.647 10.06 7.749 C 12.099 6.347 15.105 6.347 17.463 6.476 C 21.989 5.84 23.038 11.946 21.022 14.846 C 20.492 15.682 19.95 16.378 19.761 17.451 L 21.211 16.661 C 21.423 16.119 21.789 16.083 22.119 15.541 C 24.653 11.887 23.073 5.121 17.899 5.109 C 13.49 4.861 7.419 5.474 6.7 10.92 C 6.441 13.066 7.396 14.197 8.398 15.623 C 9.435 16.661 8.634 20.02 8.822 21.623 C 9.305 21.14 9.765 20.669 10.131 20.15 C 10.131 20.032 10.154 19.914 10.178 19.808 L 10.19 19.808 Z" transform="matrix(1.0000000000000002, 0, 0, 1, 0, 3.552713678800501e-15)"/>
  <path style="fill: rgb(216, 216, 216); stroke: rgb(0, 0, 0); fill-opacity: 0;" d="M 22.435 21.25 C 21.784 21.054 21.2 21.482 20.97 22.293 C 20.663 23.323 21.284 24.026 21.438 24.072 C 21.809 24.339 22.365 24.205 22.688 23.671 C 23.124 22.966 23.267 21.516 22.435 21.25 Z" transform="matrix(1.0000000000000002, 0, 0, 1, 0, 3.552713678800501e-15)"/>
  <path style="fill: rgb(216, 216, 216); stroke: rgb(0, 0, 0); fill-opacity: 0; stroke-linecap: round; stroke-linejoin: round;" d="M 17.26 24.754 C 17.732 24.826 18.204 23.885 18.331 23.403 C 18.786 21.679 18.151 21.336 18.151 21.336 C 17.646 21.06 17.041 21.918 16.894 22.663 C 16.722 23.541 16.811 24.686 17.26 24.754 Z" transform="matrix(1.0000000000000002, 0, 0, 1, 0, 3.552713678800501e-15)"/>
</svg>