<?xml version="1.0" encoding="UTF-8"?>
<svg id="_Слой_1" data-name="Слой 1" xmlns="http://www.w3.org/2000/svg" viewBox="0 0 50 50">
  <defs>
    <style>
      .cls-1 {
        fill: rgba(0, 0, 0, 0.5);
      }
    </style>
  </defs>
  <g>
    <path class="cls-1" d="m13.15,9.67c-.23-.06-.41-.27-.41-.53l-.02-1.52c0-.16,0-.42.14-.67.26-.45.77-.51.99-.54,1.91-.24,3.86-.32,5.78-.24.16,0,.49.02.74.26.3.27.31.65.31.82.02.56-.02,1.12-.12,1.68-.05.3-.34.41-.64.35-.3-.05-.5-.24-.45-.55.08-.48.12-.97.11-1.45,0,0,0,0,0,0-1.86-.08-3.74,0-5.59.23-.08,0-.13.02-.16.03,0,.02,0,.05,0,.07l.02,1.52c0,.31-.24.56-.54.56-.05,0-.1,0-.15-.02Z"/>
    <path class="cls-1" d="m11.88,22.87c-.37.04-.53-.25-.59-.73.41-.41.8-.81,1.11-1.25-.05.77.25,1.9-.52,1.98Z"/>
    <path class="cls-1" d="m11.88,22.87c-.37.04-.53-.25-.59-.73.41-.41.8-.81,1.11-1.25-.05.77.25,1.9-.52,1.98Z"/>
    <path class="cls-1" d="m14.66,20.65c-.24-.06-.42-.29-.41-.55,0-.31.26-.55.57-.54l4.01.12c.3,0,.55.26.54.57,0,.31-.26.55-.57.54l-4.01-.12s-.09,0-.13-.02Z"/>
    <path class="cls-1" d="m13.68,17.53c-.22-.06-.39-.25-.41-.5-.02-.3.21-.57.51-.59,1.71-.12,3.43-.35,5.11-.69.3-.06.59.13.65.43.06.3-.13.59-.43.65-1.73.35-3.49.59-5.25.71-.06,0-.12,0-.18-.02Z"/>
    <path class="cls-1" d="m11.75,32.44c-.2-.05-.35-.21-.4-.42-.06-.3.13-.59.43-.65,2.15-.45,4.35-.68,6.54-.69.3,0,.55.25.55.55,0,.31-.25.55-.55.55-2.12,0-4.25.23-6.32.66-.09.02-.17.01-.26,0Z"/>
  </g>
  <path class="cls-1" d="m24.01,43.84c-3.22.08-6.34-1.22-7.11-4.62-1.06-4.51,2.15-6.22,3.81-8.44.12-.64-.01-.88-.04-.93-.57-.28-.16-1.2.43-.95,3.17,2.9-4.85,4.91-3.19,10.06,2.25,7.27,14.51,3,18.48-.87,2.53-2.72,5.22-8.18,1.71-10.72-1.15-1.01-2.43-1.48-3.06-1.4-2.39.12-5.46,5.52-6.18,4.84-.24-.16-.3-.49-.14-.73,2.05-2.78,6.11-7.59,10.07-3.49,1.36,1.2,2.11,2.69,2.11,4.17-.43,7.96-9.47,13.35-16.89,13.08Z"/>
  <path class="cls-1" d="m30.05,28.79s-.1,0-.15-.02c-.18-.05-.56-.11-.85-.05-.28.06-.56-.12-.62-.4-.06-.28.12-.56.4-.62.51-.11,1.1,0,1.36.07.28.08.43.37.35.65-.07.23-.27.37-.5.37Z"/>
  <path class="cls-1" d="m18.46,29.99c-.32,0-.64-.02-.94-.09-.87-.19-1.18-1.03-1.13-1.85-.16-.1-.3-.23-.41-.38-.34-.47-.43-1.12-.26-1.85.32-1.31,2.01-1.48,2.98-1.38.08-.02.26-.13.37-.19.36-.21.76-.44,1.18-.29.11.04.34.1.61.16.49.12,1.16.28,1.88.53.77.26,1.8.91,2.17,1.86.2.5.18,1.02-.07,1.48-.6,1.15-2.08,1.88-3.75,1.86-.49,0-.98.03-1.44.07-.41.03-.81.07-1.2.07Zm-1.03-1.76c0,.27.06.59.31.65.51.11,1.15.06,1.83,0,.49-.04,1-.08,1.55-.08.02,0,.04,0,.05,0,1.04,0,2.29-.4,2.76-1.3.1-.2.11-.39.02-.61-.19-.49-.84-1.01-1.54-1.25-.68-.23-1.32-.39-1.78-.5-.29-.07-.5-.12-.67-.17-.09.03-.26.13-.36.19-.31.18-.63.37-.98.33-.36-.04-1.72-.06-1.88.59-.1.41-.07.77.08.98.08.1.18.16.29.17.07,0,.25-.04.43-.08.71-.18,2.04-.51,4.64.05.28.06.46.34.4.62-.06.28-.34.46-.62.4-2.36-.51-3.49-.22-4.17-.05-.13.03-.25.06-.36.08Zm2.56-3.27h0Z"/>
  <path class="cls-1" d="m21.39,26.63c-.1,0-.2-.03-.29-.09-.8-.55-1.93-.92-2.49-1.04-.28-.06-.46-.34-.4-.62.06-.28.34-.46.62-.4.59.12,1.86.52,2.86,1.2.24.16.3.49.14.72-.1.15-.26.23-.43.23Z"/>
  <path class="cls-1" d="m28.82,28.93c-.1,0-.2-.03-.29-.09-.24-.16-.31-.48-.15-.72.53-.8,1.43-2.84,1-4.84-.41-1.94-1.65-4.38-5.23-5-3-.52-3.84.46-4.79,2.02-.72,1.17-.93,3.46-.9,4.63,0,.29-.22.53-.51.54-.29,0-.53-.22-.54-.51-.02-.93.12-3.67,1.05-5.2,1.06-1.74,2.24-3.14,5.86-2.51,3.24.56,5.39,2.63,6.07,5.82.49,2.34-.54,4.71-1.16,5.63-.1.15-.27.23-.43.23Z"/>
  <path class="cls-1" d="m18.53,25.3c-.11,0-.22-.02-.32-.05-.29-.1-.51-.33-.62-.64-.05-.15-.08-.32-.08-.53,0-.14,0-.32.01-.55.03-.45.13-.89.29-1.25.08-.18.18-.35.28-.49.19-.23.41-.38.66-.43h.03s.05-.02.08-.02h.03s0,0,0,0c.33-.01.64.13.85.39.12.15.21.35.25.57.04.23.04.49,0,.79-.03.21-.1.58-.2.93-.06.22-.13.4-.2.54-.06.12-.11.21-.18.3-.12.16-.28.29-.46.36-.14.06-.28.08-.42.08Zm.41-2.89s-.02.02-.04.04c-.03.04-.09.12-.14.25-.11.26-.18.58-.2.9-.01.19-.02.34-.01.45,0,.1.01.16.02.2,0,0,0,0,0,0,.02-.03.04-.07.07-.12.04-.09.09-.22.13-.38.09-.32.15-.65.17-.8.03-.18.03-.35.01-.46,0-.04-.01-.06-.02-.08Zm-.02-.36h0s0-.18,0-.18v.18Z"/>
  <path class="cls-1" d="m22.34,24.79c-.08,0-.17-.01-.25-.03-.72-.19-1.11-.87-1.04-1.83h0c.06-.87.75-1.63,1.51-1.67.01,0,.02,0,.04,0,.48.01.75.23.9.4.41.5.3,1.23.25,1.58v.04c-.06.36-.35,1.02-.82,1.33-.18.12-.38.18-.58.18Zm.01-1.04h0,0Zm-.26-.75c-.01.2-.02.66.25.75.12-.06.33-.41.37-.62v-.04c.09-.51.04-.69,0-.75-.01-.02-.06-.03-.1-.03-.2.02-.48.35-.5.7h0Z"/>
  <g>
    <path class="cls-1" d="m17.46,40.12s-.03.05-.04.08c-.16.29-.3.56-.49.72-.22.18-.57.2-.81.06-.2-.12-.36-.35-.54-.59-.09-.12-.17-.23-.26-.34-.53-.64-1.23-.91-1.83-.7-.64.22-.87.82-1.05,1.3-.11.3-.22.59-.38.67-.15.08-.43-.03-.59-.23-.21-.28-.3-.68-.37-1.11-.4-2.39-.52-4.87-.63-7.26,0-.13-.06-.66-.14-1.23,0-.02,0-.04,0-.05-.08-1.36-.12-2.75-.12-4.12,0-.85.01-1.6.27-2.28.3-.81.91-1.42,1.56-2.07.67-.68,1.37-1.37,1.77-2.34.12-.28-.02-.61-.3-.72-.28-.12-.61.02-.72.3-.1.25-.23.47-.38.69-.05.77.25,1.9-.52,1.98-.37.04-.53-.25-.59-.73-.01.01-.03.03-.04.04-.71.71-1.44,1.44-1.82,2.47-.31.85-.34,1.75-.33,2.67,0,1.39.05,2.79.12,4.18,0,.09.06.59.14,1.18h0s0,.07,0,.09c.12,2.43.24,4.93.65,7.39.09.55.21,1.13.59,1.61.23.29.57.53.95.63.33.09.7.07,1.03-.11.52-.28.73-.82.89-1.26.12-.3.22-.59.38-.64.14-.05.41.1.61.36.08.09.15.19.22.29.22.31.47.65.86.89.64.38,1.49.32,2.07-.15.36-.29.58-.69.77-1.05.05-.09.09-.16.13-.24l-1.1-.24.03-.13Z"/>
    <path class="cls-1" d="m12.44,20.59c.1-1.41.21-3.01-.61-4.18-1.76-2-1.74-4.44.5-6.05,1.73-1.19,4.28-1.19,6.28-1.08,3.84-.54,4.73,4.64,3.02,7.1-.45.71-.91,1.3-1.07,2.21l1.23-.67c.18-.46.49-.49.77-.95,2.15-3.1.81-8.84-3.58-8.85-3.74-.21-8.89.31-9.5,4.93-.22,1.82.59,2.78,1.44,3.99.88.88.2,3.73.36,5.09.41-.41.8-.81,1.11-1.25,0-.1.02-.2.04-.29Z"/>
  </g>
</svg>