<svg viewBox="0 0 50 50" width="50" height="50" xmlns="http://www.w3.org/2000/svg">
  <defs>
    <style>
      .cls-1 { fill: #000; opacity: 0.5; }
    </style>
  </defs>
  <g transform="matrix(1.3259190320968628, 0, 0, 1.3259190320968628, -8.153555870056152, -8.141140937805176)">
    <path class="cls-1" d="m13.15,9.67c-.23-.06-.41-.27-.41-.53l-.02-1.52c0-.16,0-.42.14-.67.26-.45.77-.51.99-.54,1.91-.24,3.86-.32,5.78-.24.16,0,.49.02.74.26.3.27.31.65.31.82.02.56-.02,1.12-.12,1.68-.05.3-.34.41-.64.35-.3-.05-.5-.24-.45-.55.08-.48.12-.97.11-1.45,0,0,0,0,0,0-1.86-.08-3.74,0-5.59.23-.08,0-.13.02-.16.03,0,.02,0,.05,0,.07l.02,1.52c0,.31-.24.56-.54.56-.05,0-.1,0-.15-.02Z"/>
    <path class="cls-1" d="m11.88,22.87c-.37.04-.53-.25-.59-.73.41-.41.8-.81,1.11-1.25-.05.77.25,1.9-.52,1.98Z"/>
    <path class="cls-1" d="m11.88,22.87c-.37.04-.53-.25-.59-.73.41-.41.8-.81,1.11-1.25-.05.77.25,1.9-.52,1.98Z"/>
    <path class="cls-1" d="m14.66,20.65c-.24-.06-.42-.29-.41-.55,0-.31.26-.55.57-.54l4.01.12c.3,0,.55.26.54.57,0,.31-.26.55-.57.54l-4.01-.12s-.09,0-.13-.02Z"/>
    <path class="cls-1" d="m13.68,17.53c-.22-.06-.39-.25-.41-.5-.02-.3.21-.57.51-.59,1.71-.12,3.43-.35,5.11-.69.3-.06.59.13.65.43.06.3-.13.59-.43.65-1.73.35-3.49.59-5.25.71-.06,0-.12,0-.18-.02Z"/>
    <path class="cls-1" d="m11.75,32.44c-.2-.05-.35-.21-.4-.42-.06-.3.13-.59.43-.65,2.15-.45,4.35-.68,6.54-.69.3,0,.55.25.55.55,0,.31-.25.55-.55.55-2.12,0-4.25.23-6.32.66-.09.02-.17.01-.26,0Z"/>
  </g>
  <path class="cls-1" d="M 23.682 49.987 C 19.412 50.093 15.275 48.37 14.254 43.861 C 12.849 37.881 17.105 35.614 19.306 32.671 C 19.465 31.822 19.293 31.504 19.253 31.438 C 18.497 31.066 19.041 29.846 19.823 30.178 C 24.026 34.023 13.393 36.688 15.594 43.517 C 18.577 53.156 34.833 47.494 40.097 42.363 C 43.451 38.757 47.018 31.517 42.364 28.149 C 40.839 26.81 39.142 26.187 38.307 26.293 C 35.138 26.452 31.067 33.612 30.112 32.71 C 29.794 32.498 29.715 32.061 29.927 31.742 C 32.645 28.056 38.028 21.679 43.279 27.115 C 45.082 28.706 46.077 30.682 46.077 32.644 C 45.506 43.198 33.52 50.345 23.682 49.987 L 23.682 49.987 Z"/>
  <path class="cls-1" d="M 31.69 30.032 C 31.69 30.032 31.558 30.032 31.491 30.006 C 31.253 29.939 30.749 29.86 30.364 29.939 C 29.993 30.019 29.622 29.78 29.542 29.409 C 29.463 29.038 29.701 28.666 30.073 28.587 C 30.749 28.441 31.531 28.587 31.876 28.68 C 32.247 28.786 32.446 29.17 32.34 29.541 C 32.247 29.846 31.982 30.032 31.677 30.032 L 31.69 30.032 Z"/>
  <path class="cls-1" d="M 16.323 31.623 C 15.899 31.623 15.474 31.597 15.077 31.504 C 13.923 31.252 13.512 30.138 13.578 29.051 C 13.366 28.918 13.18 28.746 13.035 28.547 C 12.584 27.924 12.464 27.062 12.69 26.094 C 13.114 24.357 15.355 24.132 16.641 24.264 C 16.747 24.238 16.986 24.092 17.132 24.012 C 17.609 23.734 18.139 23.429 18.696 23.628 C 18.842 23.681 19.147 23.76 19.505 23.84 C 20.155 23.999 21.043 24.211 21.998 24.543 C 23.019 24.887 24.384 25.749 24.875 27.009 C 25.14 27.672 25.114 28.361 24.782 28.971 C 23.987 30.496 22.024 31.464 19.81 31.438 C 19.16 31.438 18.511 31.477 17.901 31.53 C 17.357 31.57 16.827 31.623 16.31 31.623 L 16.323 31.623 Z M 14.957 29.29 C 14.957 29.648 15.037 30.072 15.368 30.151 C 16.044 30.297 16.893 30.231 17.795 30.151 C 18.444 30.098 19.121 30.045 19.85 30.045 C 19.876 30.045 19.903 30.045 19.916 30.045 C 21.295 30.045 22.952 29.515 23.576 28.322 C 23.708 28.056 23.722 27.805 23.602 27.513 C 23.35 26.863 22.488 26.174 21.56 25.855 C 20.659 25.55 19.81 25.338 19.2 25.192 C 18.816 25.1 18.537 25.033 18.312 24.967 C 18.192 25.007 17.967 25.139 17.834 25.219 C 17.423 25.458 16.999 25.71 16.535 25.657 C 16.058 25.603 14.254 25.577 14.042 26.439 C 13.91 26.982 13.95 27.46 14.148 27.738 C 14.254 27.871 14.387 27.95 14.533 27.964 C 14.626 27.964 14.864 27.911 15.103 27.858 C 16.044 27.619 17.808 27.181 21.255 27.924 C 21.627 28.003 21.865 28.375 21.786 28.746 C 21.706 29.117 21.335 29.356 20.964 29.276 C 17.834 28.6 16.336 28.985 15.435 29.21 C 15.262 29.25 15.103 29.29 14.957 29.316 L 14.957 29.29 Z M 18.352 24.954 Z"/>
  <path class="cls-1" d="M 20.208 27.168 C 20.075 27.168 19.943 27.128 19.823 27.049 C 18.763 26.319 17.264 25.829 16.522 25.67 C 16.151 25.59 15.912 25.219 15.991 24.848 C 16.071 24.476 16.442 24.238 16.813 24.317 C 17.596 24.476 19.28 25.007 20.606 25.908 C 20.924 26.121 21.003 26.558 20.791 26.863 C 20.659 27.062 20.447 27.168 20.221 27.168 L 20.208 27.168 Z"/>
  <path class="cls-1" d="M 30.059 30.218 C 29.927 30.218 29.794 30.178 29.675 30.098 C 29.357 29.886 29.264 29.462 29.476 29.144 C 30.179 28.083 31.372 25.378 30.802 22.726 C 30.258 20.154 28.614 16.919 23.867 16.097 C 19.89 15.407 18.776 16.707 17.516 18.775 C 16.562 20.326 16.283 23.363 16.323 24.914 C 16.323 25.299 16.031 25.617 15.647 25.63 C 15.262 25.63 14.944 25.338 14.931 24.954 C 14.904 23.721 15.09 20.088 16.323 18.059 C 17.728 15.752 19.293 13.896 24.093 14.731 C 28.389 15.473 31.239 18.218 32.141 22.448 C 32.791 25.55 31.425 28.693 30.603 29.913 C 30.47 30.112 30.245 30.218 30.033 30.218 L 30.059 30.218 Z"/>
  <path class="cls-1" d="M 16.416 25.405 C 16.27 25.405 16.124 25.378 15.991 25.338 C 15.607 25.206 15.315 24.901 15.169 24.49 C 15.103 24.291 15.063 24.065 15.063 23.787 C 15.063 23.601 15.063 23.363 15.077 23.058 C 15.116 22.461 15.249 21.878 15.461 21.4 C 15.567 21.162 15.7 20.936 15.832 20.751 C 16.084 20.446 16.376 20.247 16.707 20.18 L 16.747 20.18 C 16.747 20.18 16.813 20.154 16.853 20.154 L 16.893 20.154 C 16.893 20.154 16.893 20.154 16.893 20.154 C 17.331 20.141 17.742 20.326 18.02 20.671 C 18.179 20.87 18.299 21.135 18.352 21.427 C 18.405 21.732 18.405 22.077 18.352 22.474 C 18.312 22.753 18.219 23.243 18.086 23.707 C 18.007 23.999 17.914 24.238 17.821 24.423 C 17.742 24.583 17.675 24.702 17.583 24.821 C 17.423 25.033 17.211 25.206 16.973 25.299 C 16.787 25.378 16.601 25.405 16.416 25.405 L 16.416 25.405 Z M 16.959 21.573 C 16.959 21.573 16.933 21.599 16.906 21.626 C 16.867 21.679 16.787 21.785 16.721 21.957 C 16.575 22.302 16.482 22.726 16.455 23.151 C 16.442 23.402 16.429 23.601 16.442 23.747 C 16.442 23.88 16.455 23.959 16.469 24.012 C 16.469 24.012 16.469 24.012 16.469 24.012 C 16.495 23.973 16.522 23.92 16.562 23.853 C 16.615 23.734 16.681 23.562 16.734 23.349 C 16.853 22.925 16.933 22.488 16.959 22.289 C 16.999 22.05 16.999 21.825 16.973 21.679 C 16.973 21.626 16.959 21.599 16.946 21.573 L 16.959 21.573 Z M 16.933 21.095 C 16.933 21.095 16.933 20.857 16.933 20.857 L 16.933 21.095 Z"/>
  <path class="cls-1" d="M 21.467 24.728 C 21.361 24.728 21.242 24.715 21.136 24.689 C 20.181 24.437 19.664 23.535 19.757 22.262 C 19.837 21.109 20.751 20.101 21.759 20.048 C 21.772 20.048 21.786 20.048 21.812 20.048 C 22.449 20.061 22.807 20.353 23.006 20.578 C 23.549 21.241 23.403 22.209 23.337 22.673 L 23.337 22.726 C 23.257 23.204 22.873 24.079 22.25 24.49 C 22.011 24.649 21.746 24.728 21.481 24.728 L 21.467 24.728 Z M 21.481 23.349 Z M 21.136 22.355 C 21.123 22.62 21.109 23.23 21.467 23.349 C 21.627 23.27 21.905 22.806 21.958 22.527 L 21.958 22.474 C 22.077 21.798 22.011 21.559 21.958 21.48 C 21.945 21.453 21.878 21.44 21.825 21.44 C 21.56 21.467 21.189 21.904 21.163 22.368 L 21.136 22.355 Z"/>
  <g transform="matrix(1.3259190320968628, 0, 0, 1.3259190320968628, -8.153555870056152, -8.141140937805176)">
    <path class="cls-1" d="m17.46,40.12s-.03.05-.04.08c-.16.29-.3.56-.49.72-.22.18-.57.2-.81.06-.2-.12-.36-.35-.54-.59-.09-.12-.17-.23-.26-.34-.53-.64-1.23-.91-1.83-.7-.64.22-.87.82-1.05,1.3-.11.3-.22.59-.38.67-.15.08-.43-.03-.59-.23-.21-.28-.3-.68-.37-1.11-.4-2.39-.52-4.87-.63-7.26,0-.13-.06-.66-.14-1.23,0-.02,0-.04,0-.05-.08-1.36-.12-2.75-.12-4.12,0-.85.01-1.6.27-2.28.3-.81.91-1.42,1.56-2.07.67-.68,1.37-1.37,1.77-2.34.12-.28-.02-.61-.3-.72-.28-.12-.61.02-.72.3-.1.25-.23.47-.38.69-.05.77.25,1.9-.52,1.98-.37.04-.53-.25-.59-.73-.01.01-.03.03-.04.04-.71.71-1.44,1.44-1.82,2.47-.31.85-.34,1.75-.33,2.67,0,1.39.05,2.79.12,4.18,0,.09.06.59.14,1.18h0s0,.07,0,.09c.12,2.43.24,4.93.65,7.39.09.55.21,1.13.59,1.61.23.29.57.53.95.63.33.09.7.07,1.03-.11.52-.28.73-.82.89-1.26.12-.3.22-.59.38-.64.14-.05.41.1.61.36.08.09.15.19.22.29.22.31.47.65.86.89.64.38,1.49.32,2.07-.15.36-.29.58-.69.77-1.05.05-.09.09-.16.13-.24l-1.1-.24.03-.13Z"/>
    <path class="cls-1" d="m12.44,20.59c.1-1.41.21-3.01-.61-4.18-1.76-2-1.74-4.44.5-6.05,1.73-1.19,4.28-1.19,6.28-1.08,3.84-.54,4.73,4.64,3.02,7.1-.45.71-.91,1.3-1.07,2.21l1.23-.67c.18-.46.49-.49.77-.95,2.15-3.1.81-8.84-3.58-8.85-3.74-.21-8.89.31-9.5,4.93-.22,1.82.59,2.78,1.44,3.99.88.88.2,3.73.36,5.09.41-.41.8-.81,1.11-1.25,0-.1.02-.2.04-.29Z"/>
  </g>
</svg>