<svg data-name="Слой 1" viewBox="0 0 50 50" xmlns="http://www.w3.org/2000/svg">
    <path style="fill:#000; opacity: 0.5;"
        d="M35.537 12.693H31.67v-2.054c0-.586-.453-1.065-1.02-1.065h-1.418l-1.847-3.32a1.024 1.024 0 0 0-.881-.529h-3.205c-.362 0-.7.202-.88.53L20.57 9.567h-1.412c-.561 0-1.02.473-1.02 1.065v2.054h-3.874c-1.594 0-2.885 1.348-2.885 3.011v25.27c0 1.664 1.291 3.012 2.885 3.012H35.53c1.594 0 2.885-1.348 2.885-3.012V15.705c.006-1.664-1.285-3.012-2.879-3.012zM23.884 7.848h2.027l.96 1.72h-3.947l.96-1.72zm-3.706 3.85h9.457V15.2h-9.457v-3.502zm16.216 29.27h-.006c0 .492-.38.889-.85.889H14.27c-.471 0-.851-.397-.851-.889V15.705c0-.492.38-.889.85-.889h3.875v1.443c0 .586.453 1.065 1.02 1.065h11.491c.561 0 1.02-.473 1.02-1.065v-1.443h3.868c.471 0 .851.397.851.889v25.263z" />
    <path style="fill:#000; opacity: 0.5;"
        d="M33.808 19.516H27.93c-.562 0-1.02.473-1.02 1.065v6.98c0 .586.452 1.065 1.02 1.065h5.878c.561 0 1.02-.472 1.02-1.065v-6.987c0-.58-.453-1.058-1.02-1.058zm-1.014 6.993H28.95v-4.863h3.844v4.863zM24.2 20.877h-7.918c-.561 0-1.02.473-1.02 1.065s.453 1.064 1.02 1.064H24.2c.561 0 1.02-.472 1.02-1.064 0-.586-.453-1.065-1.02-1.065zM24.2 26.503h-7.918c-.561 0-1.02.473-1.02 1.065s.453 1.064 1.02 1.064H24.2c.561 0 1.02-.472 1.02-1.064 0-.586-.453-1.065-1.02-1.065zM33.808 32.13H16.282c-.561 0-1.02.472-1.02 1.064 0 .586.453 1.064 1.02 1.064H33.82c.561 0 1.02-.472 1.02-1.064-.012-.586-.465-1.065-1.032-1.065zM33.808 37.755H16.282c-.561 0-1.02.473-1.02 1.065s.453 1.065 1.02 1.065H33.82c.561 0 1.02-.473 1.02-1.065-.012-.592-.465-1.065-1.032-1.065z" />
</svg>