<?xml version="1.0" encoding="utf-8"?>
<svg viewBox="9.783 0 30.434 50" width="30.434" height="50" xmlns="http://www.w3.org/2000/svg">
  <path class="fil2" d="M 31.839 41.622 L 18.161 41.622 C 18.073 41.682 17.955 41.71 17.839 41.71 C 15.056 41.71 15.056 44.729 17.839 44.729 C 22.584 44.729 27.416 44.729 32.191 44.729 C 33.304 44.729 34.3 44.025 34.3 43.205 C 34.3 42.414 33.304 41.71 32.191 41.71 C 32.045 41.71 31.927 41.682 31.839 41.622 Z M 24.546 27.974 C 24.458 27.974 24.37 27.944 24.282 27.915 C 21.675 27.651 19.011 26.245 17.985 23.375 C 16.812 20.094 18.453 18.014 19.977 16.021 C 21.323 14.265 22.613 12.595 22.379 10.018 C 22.32 8.406 25.688 9.198 28.471 12.361 C 30.785 14.967 32.865 19.098 32.337 22.525 C 31.839 25.541 29.379 27.651 26.01 27.974 L 24.546 27.974 Z M 24.194 26.479 C 27.739 20.796 24.928 15.905 24.81 15.699 C 24.342 14.939 25.512 14.147 26.04 14.967 C 26.186 15.201 29.175 20.386 25.834 26.509 C 27.973 26.333 30.463 25.103 30.931 22.29 C 31.605 18.102 27.153 11.51 23.814 10.75 C 23.726 16.345 17.604 18.102 19.303 22.906 C 20.093 25.073 22.144 26.215 24.194 26.479 Z M 32.367 35.765 C 33.041 22.466 38.723 23.521 38.723 15.261 C 38.723 7.645 32.543 1.434 24.898 1.434 C 17.311 1.434 11.131 7.616 11.131 15.261 C 11.131 23.521 16.812 22.466 17.487 35.765 L 32.367 35.765 Z M 16.052 35.765 C 15.378 23.229 9.783 24.049 9.783 15.261 C 9.783 6.825 16.608 0 24.986 0 C 33.392 0 40.217 6.825 40.217 15.261 C 40.217 24.165 34.534 22.847 33.832 35.765 L 34.534 35.765 C 38.05 35.765 38.519 40.862 35.15 41.564 C 36.672 43.527 34.944 46.105 32.191 46.105 L 31.341 46.105 C 30.755 48.36 28.325 50 25.424 50 L 24.576 50 C 21.705 50 19.245 48.36 18.689 46.105 L 17.839 46.105 C 14.91 46.105 13.386 43.439 14.85 41.564 C 11.481 40.862 11.951 35.765 15.466 35.765 L 16.052 35.765 Z M 20.181 46.105 C 20.767 47.511 22.525 48.536 24.576 48.536 L 25.424 48.536 C 27.504 48.536 29.233 47.511 29.819 46.105 L 20.181 46.105 Z M 15.466 37.199 C 13.474 37.199 13.532 40.218 15.466 40.218 L 34.534 40.218 C 36.526 40.218 36.496 37.199 34.534 37.199 L 15.466 37.199 Z" style="fill: rgb(77, 77, 77);" transform="matrix(1, 0, 0, 1, 0, 3.552713678800501e-15)"/>
  <path class="fil3" d="M 31.839 41.622 L 18.161 41.622 C 18.073 41.682 17.955 41.71 17.839 41.71 C 15.056 41.71 15.056 44.729 17.839 44.729 C 22.584 44.729 27.416 44.729 32.191 44.729 C 33.304 44.729 34.3 44.025 34.3 43.205 C 34.3 42.414 33.304 41.71 32.191 41.71 C 32.045 41.71 31.927 41.682 31.839 41.622 Z" style="fill: rgb(153, 164, 172);" transform="matrix(1, 0, 0, 1, 0, 3.552713678800501e-15)"/>
  <path class="fil3" d="M 29.819 46.105 L 20.181 46.105 C 20.767 47.511 22.525 48.536 24.576 48.536 L 25.424 48.536 C 27.504 48.536 29.233 47.511 29.819 46.105 Z" style="fill: rgb(153, 164, 172);" transform="matrix(1, 0, 0, 1, 0, 3.552713678800501e-15)"/>
  <path class="fil3" d="M 15.466 40.218 L 34.534 40.218 C 36.526 40.218 36.496 37.199 34.534 37.199 L 15.466 37.199 C 13.474 37.199 13.532 40.218 15.466 40.218 Z" style="fill: rgb(153, 164, 172);" transform="matrix(1, 0, 0, 1, 0, 3.552713678800501e-15)"/>
  <path class="fil4" d="M 17.487 35.765 L 32.367 35.765 C 33.041 22.466 38.723 23.521 38.723 15.261 C 38.723 7.645 32.543 1.434 24.898 1.434 C 17.311 1.434 11.131 7.616 11.131 15.261 C 11.131 23.521 16.812 22.466 17.487 35.765 Z M 24.546 27.974 C 24.458 27.974 24.37 27.944 24.282 27.915 C 21.675 27.651 19.011 26.245 17.985 23.375 C 16.812 20.094 18.453 18.014 19.977 16.021 C 21.323 14.265 22.613 12.595 22.379 10.018 C 22.32 8.406 25.688 9.198 28.471 12.361 C 30.785 14.967 32.865 19.098 32.337 22.525 C 31.839 25.541 29.379 27.651 26.01 27.974 L 24.546 27.974 Z" style="fill: rgb(255, 230, 0);" transform="matrix(1, 0, 0, 1, 0, 3.552713678800501e-15)"/>
  <path class="fil5" d="M 25.834 26.509 C 27.973 26.333 30.463 25.103 30.931 22.29 C 31.605 18.102 27.153 11.51 23.814 10.75 C 23.726 16.345 17.604 18.102 19.303 22.906 C 20.093 25.073 22.144 26.215 24.194 26.479 C 27.739 20.796 24.928 15.905 24.81 15.699 C 24.342 14.939 25.512 14.147 26.04 14.967 C 26.186 15.201 29.175 20.386 25.834 26.509 Z" style="fill: rgb(126, 214, 63);" transform="matrix(1, 0, 0, 1, 0, 3.552713678800501e-15)"/>
</svg>